# This file uses feet as units for non-parametric coordinates.

mtllib Box.mtl
g default
v 344.766096 10.107055 486.326415
v 429.499209 10.107055 457.331284
v 344.766096 46.292662 486.326415
v 292.263491 46.292662 332.896885
v 292.263491 10.107055 332.896885
v 376.996604 10.107055 303.901755
v 428.765406 43.398107 457.582387
v 426.760587 45.517073 458.268423
v 424.021923 46.292662 459.205577
v 429.499209 40.503547 457.331284
v 376.996604 40.503547 303.901755
v 371.519318 46.292662 305.776047
v 374.257982 45.517073 304.838894
v 376.262801 43.398107 304.152858
v 349.424020 46.292662 484.732503
v 296.921415 46.292662 331.302973
v 288.757810 10.154719 334.096507
v 341.260415 10.154719 487.526036
v 338.776879 46.245001 488.375887
v 286.274273 46.245001 334.946357
v 325.104343 149.674741 493.054541
v 272.601738 149.674741 339.625012
v 266.612521 149.627080 341.674483
v 319.115126 149.627080 495.104013
v 349.976396 46.292662 480.258587
v 300.098925 46.292662 334.500546
v 420.844413 46.292662 456.008004
v 370.966942 46.292662 310.249963
v 349.976396 21.146513 480.258587
v 300.098925 21.146513 334.500546
v 420.844413 21.146513 456.008004
v 370.966942 21.146513 310.249963
v 273.916789 149.674741 343.468014
v 323.789292 149.674741 489.211538
v 317.800075 149.627080 491.261010
v 267.927572 149.627080 345.517486
v 334.663544 46.245001 485.490439
v 284.791041 46.245001 339.746914
v 339.945364 10.154719 483.683034
v 290.072861 10.154719 337.939509
v 343.451045 10.107055 482.483412
v 293.578542 10.107055 336.739888
v 428.184158 10.107055 453.488282
v 378.311655 10.107055 307.744758
v 428.184158 40.503547 453.488282
v 378.311655 40.503547 307.744758
v 427.450355 43.398107 453.739385
v 377.577852 43.398107 307.995860
v 425.445536 45.517073 454.425421
v 375.573033 45.517073 308.681896
v 422.706872 46.292662 455.362574
v 372.834369 46.292662 309.619050
v 420.841929 46.292662 456.000746
v 370.969426 46.292662 310.257221
v 420.841929 21.146513 456.000746
v 370.969426 21.146513 310.257221
v 349.973912 21.146513 480.251329
v 300.101409 21.146513 334.507804
v 349.973912 46.292662 480.251329
v 300.101409 46.292662 334.507804
v 348.108969 46.292662 480.889500
v 298.236466 46.292662 335.145976
v 340.652740 46.292662 483.440974
v 290.780237 46.292662 337.697450
v 321.649263 146.213477 489.943843
v 271.776760 146.213477 344.200318
v 273.260014 146.213477 339.399754
v 267.270818 146.165771 341.449218
v 265.787564 146.165771 346.249783
v 315.660067 146.165771 491.993307
v 319.773423 146.165771 494.878748
v 325.762619 146.213477 492.829283
v 281.267289 149.674741 340.952720
v 331.139793 149.674741 486.696244
v 331.798069 146.213477 486.470986
v 281.925565 146.213477 340.727462
v 333.113120 146.213477 490.313989
v 332.454843 149.674741 490.539247
v 280.610515 146.213477 336.884459
v 279.952238 149.674741 337.109717
v 300.929021 46.292662 334.224601
v 299.613970 46.292662 330.381598
v 350.801524 46.292662 479.968125
v 352.116575 46.292662 483.811128
v 420.227618 40.503547 430.236708
v 421.674113 40.503547 434.463834
v 419.493815 43.398107 430.487810
v 420.940310 43.398107 434.714936
v 421.674113 10.107055 434.463834
v 420.227618 10.107055 430.236708
v 342.017372 21.146513 456.999754
v 343.463867 21.146513 461.226880
v 412.885389 21.146513 432.749171
v 414.331884 21.146513 436.976297
v 412.885389 46.292662 432.749171
v 414.331884 46.292662 436.976297
v 414.750332 46.292662 432.111000
v 416.196827 46.292662 436.338126
v 417.488996 45.517073 431.173846
v 418.935491 45.517073 435.400973
v 384.821699 40.503547 326.769206
v 386.268208 40.503547 330.996370
v 384.087896 43.398107 327.020309
v 385.534405 43.398107 331.247473
v 386.268208 10.107055 330.996370
v 384.821699 10.107055 326.769206
v 306.611453 21.146513 353.532253
v 308.057962 21.146513 357.759417
v 377.479471 21.146513 329.281670
v 378.925979 21.146513 333.508834
v 377.479471 46.292662 329.281670
v 378.925979 46.292662 333.508834
v 379.344413 46.292662 328.643498
v 380.790922 46.292662 332.870663
v 382.083078 45.517073 327.706345
v 383.529586 45.517073 331.933509
v 421.777707 40.503547 429.706277
v 423.224202 40.503547 433.933403
v 423.224202 10.107055 433.933403
v 421.777707 10.107055 429.706277
v 421.777686 43.398107 429.706284
v 423.224181 43.398107 433.933410
v 421.777664 45.517073 429.706291
v 423.224160 45.517073 433.933418
v 386.371789 40.503547 326.238775
v 387.818297 40.503547 330.465940
v 387.818297 10.107055 330.465940
v 386.371789 10.107055 326.238775
v 386.371767 43.398107 326.238783
v 387.818276 43.398107 330.465947
v 386.371746 45.517073 326.238790
v 387.818255 45.517073 330.465954
v 424.657696 45.620700 458.988019
v 426.993275 45.271115 458.188799
v 425.678225 45.271115 454.345796
v 419.168206 45.271115 435.321425
v 423.224186 45.271115 433.933494
v 421.777664 45.271115 429.706291
v 417.721684 45.271115 431.094222
v 383.762275 45.271115 331.853885
v 387.818255 45.271115 330.465954
v 386.371746 45.271115 326.238790
v 382.315766 45.271115 327.626720
v 375.805721 45.271115 308.602272
v 374.490670 45.271115 304.759270
v 372.155091 45.620700 305.558490
v 346.718890 33.719591 470.739105
v 303.356431 33.719591 344.020029
v 344.368131 27.433051 463.869429
v 305.707190 27.433051 350.889704
v 352.064527 46.566436 483.828938
v 344.714027 46.566436 486.344232
v 338.724831 46.518771 488.393697
v 334.611454 46.518771 485.508264
v 284.738950 46.518771 339.764739
v 286.222226 46.518771 334.964168
v 292.211422 46.566436 332.914703
v 299.561922 46.566436 330.399409
v 300.876973 46.566436 334.242411
v 290.728146 46.566436 337.715275
v 340.600650 46.566436 483.458799
v 350.749476 46.566436 479.985936
v 332.498895 149.443094 490.524172
v 325.148395 149.443094 493.039467
v 319.159178 149.395388 495.088938
v 317.656827 149.395388 491.310029
v 267.784323 149.395388 345.566505
v 266.656573 149.395388 341.659409
v 272.645790 149.443094 339.609937
v 279.996290 149.443094 337.094643
v 281.311341 149.443094 340.937645
v 331.183844 149.443094 486.681170
v 333.149557 146.021783 490.301520
v 325.799078 146.021783 492.816807
v 319.809903 145.974168 494.866264
v 315.696505 145.974168 491.980838
v 265.824002 145.974168 346.237314
v 267.307298 145.974168 341.436735
v 273.296473 146.021783 339.387278
v 280.646952 146.021783 336.871991
v 281.962003 146.021783 340.714993
v 271.813219 146.021783 344.187842
v 321.685722 146.021783 489.931367
v 331.834506 146.021783 486.458517
v 331.771890 146.213477 486.394484
v 331.157666 149.443094 486.604668
v 331.113614 149.674741 486.619742
v 323.763114 149.674741 489.135036
v 317.773896 149.627080 491.184508
v 317.630648 149.395388 491.233527
v 315.633889 146.165771 491.916805
v 315.670327 145.974122 491.904336
v 334.585275 46.518771 485.431762
v 334.637365 46.245001 485.413937
v 339.919185 10.154719 483.606532
v 343.424866 10.107055 482.406910
v 420.209784 10.107055 430.184592
v 420.209784 40.503547 430.184592
v 419.475981 43.398107 430.435695
v 417.703851 45.271115 431.042107
v 417.471141 45.517073 431.121739
v 414.732498 46.292662 432.058885
v 412.867555 46.292662 432.697056
v 412.867555 21.146513 432.697056
v 341.999538 21.146513 456.947639
v 344.347853 27.433051 463.810171
v 346.696154 33.719591 470.672664
v 349.947733 46.292662 480.174827
v 348.082791 46.292662 480.812998
v 340.626561 46.292662 483.364472
v 340.574471 46.566436 483.382297
v 321.659544 146.021783 489.854864
v 321.623085 146.213477 489.867340
v 281.990578 146.213477 340.917450
v 281.376354 149.443094 341.127633
v 281.332302 149.674741 341.142708
v 273.981801 149.674741 343.658002
v 267.992584 149.627080 345.707474
v 267.849336 149.395388 345.756492
v 265.852577 146.165771 346.439771
v 265.889014 145.974168 346.427302
v 284.803963 46.518771 339.954727
v 284.856053 46.245001 339.936902
v 290.137873 10.154719 338.129497
v 293.643554 10.107055 336.929876
v 386.312470 10.107055 331.125717
v 386.312470 40.503547 331.125717
v 385.578667 43.398107 331.376820
v 383.806536 45.271115 331.983232
v 383.573848 45.517073 332.062856
v 380.835184 46.292662 333.000010
v 378.970241 46.292662 333.638181
v 378.970241 21.146513 333.638181
v 308.102224 21.146513 357.888764
v 305.757576 27.433051 351.036947
v 303.412967 33.719591 344.185245
v 300.166421 46.292662 334.697792
v 298.301479 46.292662 335.335964
v 290.845249 46.292662 337.887438
v 290.793159 46.566436 337.905263
v 271.878232 146.021783 344.377830
v 271.841773 146.213477 344.390306
v 300.101409 22.375938 334.507804
v 306.452319 21.761227 353.067210
v 307.943024 21.453867 357.423530
v 307.987574 21.453867 357.553722
v 342.114372 21.453867 457.283219
v 342.132297 21.453867 457.335603
v 343.623028 21.761227 461.691999
v 349.973912 22.375938 480.251329
v 349.976396 22.375938 480.258587
v 420.844413 22.375938 456.008004
v 420.841929 22.375938 456.000746
v 414.331884 22.375938 436.976297
v 412.885389 22.375938 432.749171
v 412.867555 22.375938 432.697056
v 378.970241 22.375938 333.638181
v 378.925979 22.375938 333.508834
v 377.479471 22.375938 329.281670
v 370.969426 22.375938 310.257221
v 370.966942 22.375938 310.249963
v 300.098925 22.375938 334.500546
v 378.775233 10.107055 309.099483
v 378.775233 40.503547 309.099483
v 378.041430 43.398107 309.350585
v 376.269299 45.271115 309.956997
v 376.036611 45.517073 310.036621
v 373.297947 46.292662 310.973775
v 371.433004 46.292662 311.611946
v 371.433004 22.375938 311.611946
v 371.433004 21.146513 311.611946
v 300.564987 21.146513 335.862529
v 300.553646 22.332167 335.829386
v 300.333204 45.397345 335.185186
v 300.397599 45.397345 335.373369
v 349.716187 45.397345 479.498175
v 349.742116 45.397345 479.573947
v 349.521662 22.332167 478.929709
v 349.510334 21.146513 478.896604
v 420.378351 21.146513 454.646021
v 420.378351 22.375938 454.646021
v 420.378351 46.292662 454.646021
v 422.243294 46.292662 454.007849
v 424.981958 45.517073 453.070696
v 425.214646 45.271115 452.991071
v 426.986777 43.398107 452.384660
v 427.720580 40.503547 452.133557
v 427.720580 10.107055 452.133557
v 429.499209 10.429645 457.331284
v 428.184158 10.429645 453.488282
v 427.720580 10.429645 452.133557
v 421.674113 10.429645 434.463834
v 423.224202 10.429645 433.933403
v 421.777707 10.429645 429.706277
v 420.227618 10.429645 430.236708
v 420.209784 10.429645 430.184592
v 386.312470 10.429645 331.125717
v 386.268208 10.429645 330.996370
v 387.818297 10.429645 330.465940
v 386.371789 10.429645 326.238775
v 384.821699 10.429645 326.769206
v 378.775233 10.429645 309.099483
v 378.311655 10.429645 307.744758
v 376.996604 10.429645 303.901755
v 376.996604 40.307813 303.901755
v 378.311655 40.307813 307.744758
v 378.775233 40.307813 309.099483
v 384.821699 40.307813 326.769206
v 386.371789 40.307813 326.238775
v 387.818297 40.307813 330.465940
v 386.268208 40.307813 330.996370
v 386.312470 40.307813 331.125717
v 420.209784 40.307813 430.184592
v 420.227618 40.307813 430.236708
v 421.777707 40.307813 429.706277
v 423.224202 40.307813 433.933403
v 421.674113 40.307813 434.463834
v 427.720580 40.307813 452.133557
v 428.184158 40.307813 453.488282
v 429.499209 40.307813 457.331284
v 429.457654 40.503547 457.209849
v 429.457654 40.307813 457.209849
v 429.457654 10.429645 457.209849
v 429.457654 10.107055 457.209849
v 344.724541 10.107055 486.204979
v 341.218860 10.154719 487.404601
v 338.646881 46.245001 488.284716
v 338.594812 46.518771 488.302533
v 319.679863 145.974168 494.775108
v 319.643426 146.165771 494.787577
v 319.111706 149.395388 494.969528
v 319.073571 149.627080 494.982577
v 325.062789 149.674741 492.933105
v 332.413289 149.674741 490.417811
v 332.457341 149.443094 490.402737
v 333.071565 146.213477 490.192553
v 333.108003 146.021783 490.180084
v 352.022973 46.566436 483.707502
v 352.075021 46.292662 483.689692
v 344.636098 46.292662 486.235244
v 349.382466 46.292662 484.611067
v 349.976317 46.292662 480.258357
v 349.976317 22.375938 480.258357
v 349.976317 21.146513 480.258357
v 420.844334 21.146513 456.007774
v 420.844334 22.375938 456.007774
v 420.844334 46.292662 456.007774
v 423.980368 46.292662 459.084141
v 426.719033 45.517073 458.146988
v 426.951721 45.271115 458.067363
v 428.723851 43.398107 457.460952
v 272.715809 149.674741 339.958364
v 280.066309 149.674741 337.443070
v 280.110361 149.443094 337.427996
v 280.724586 146.213477 337.217812
v 280.761023 146.021783 337.205343
v 299.675993 46.566436 330.732761
v 299.728041 46.292662 330.714951
v 292.134799 46.292662 333.313310
v 297.035486 46.292662 331.636326
v 300.099135 46.292662 334.501160
v 300.099135 22.375938 334.501160
v 300.099135 21.146513 334.501160
v 370.967152 21.146513 310.250577
v 370.967152 22.375938 310.250577
v 370.967152 46.292662 310.250577
v 371.633389 46.292662 306.109400
v 374.372053 45.517073 305.172247
v 374.604741 45.271115 305.092622
v 376.376872 43.398107 304.486210
v 377.110675 40.503547 304.235108
v 377.110675 40.307813 304.235108
v 377.110675 10.429645 304.235108
v 377.110675 10.107055 304.235108
v 292.377562 10.107055 333.230238
v 288.871881 10.154719 334.429860
v 286.145603 46.245001 335.362774
v 286.093555 46.518771 335.380585
v 267.178585 145.974168 341.853167
v 267.142126 146.165789 341.865643
v 266.754440 149.395388 341.998307
v 266.726592 149.627080 342.007836
vt 0.596757 0.438300
vt 0.596757 0.452407
vt 0.596679 0.452407
vt 0.596679 0.438300
vt 0.746627 0.438300
vt 0.746627 0.452407
vt 0.596757 0.453419
vt 0.596679 0.453419
vt 0.592845 0.438300
vt 0.592845 0.452407
vt 0.746823 0.438300
vt 0.746823 0.452407
vt 0.746627 0.453419
vt 0.592845 0.453419
vt 0.592845 0.437463
vt 0.596679 0.437463
vt 0.592720 0.438300
vt 0.592720 0.452407
vt 0.750439 0.438300
vt 0.750439 0.452407
vt 0.746823 0.453419
vt 0.592720 0.453419
vt 0.592845 0.003032
vt 0.596679 0.003032
vt 0.592720 0.437463
vt 0.750439 0.437463
vt 0.746823 0.437463
vt 0.750782 0.438300
vt 0.750782 0.452407
vt 0.750439 0.453419
vt 0.592845 0.001836
vt 0.596679 0.001836
vt 0.592720 0.003032
vt 0.750782 0.437463
vt 0.750439 0.003032
vt 0.746823 0.003032
vt 0.750782 0.453419
vt 0.592720 0.001836
vt 0.750782 0.003032
vt 0.750439 0.001836
vt 0.746823 0.001836
vt 0.750782 0.001836
vt 0.581083 0.610053
vt 0.581083 0.595946
vt 0.581162 0.595946
vt 0.581162 0.610053
vt 0.431213 0.610053
vt 0.431213 0.595946
vt 0.581083 0.595109
vt 0.581162 0.595109
vt 0.584996 0.595946
vt 0.584996 0.610053
vt 0.581083 0.611065
vt 0.581162 0.611065
vt 0.431018 0.610053
vt 0.431018 0.595946
vt 0.431213 0.595109
vt 0.431213 0.611065
vt 0.581083 0.160678
vt 0.581162 0.160678
vt 0.584996 0.595109
vt 0.585121 0.595946
vt 0.585121 0.610053
vt 0.584996 0.611065
vt 0.427402 0.610053
vt 0.427402 0.595946
vt 0.431018 0.595109
vt 0.431018 0.611065
vt 0.431213 0.160678
vt 0.581083 0.159482
vt 0.581162 0.159482
vt 0.584996 0.160678
vt 0.585121 0.595109
vt 0.585121 0.611065
vt 0.427059 0.595946
vt 0.427059 0.610053
vt 0.427402 0.595109
vt 0.427402 0.611065
vt 0.431018 0.160678
vt 0.431213 0.159482
vt 0.581083 0.001836
vt 0.581162 0.001836
vt 0.584996 0.159482
vt 0.585121 0.160678
vt 0.427059 0.595109
vt 0.427059 0.611065
vt 0.427402 0.160678
vt 0.431018 0.159482
vt 0.431213 0.001836
vt 0.584996 0.001836
vt 0.585121 0.159482
vt 0.427059 0.160678
vt 0.427402 0.159482
vt 0.431018 0.001836
vt 0.585121 0.001836
vt 0.427059 0.159482
vt 0.427402 0.001836
vt 0.427059 0.001836
vt 0.426421 0.772994
vt 0.426421 0.769160
vt 0.556932 0.769160
vt 0.556932 0.772994
vt 0.425012 0.772994
vt 0.425012 0.769160
vt 0.426421 0.767764
vt 0.556932 0.767764
vt 0.557787 0.769160
vt 0.557787 0.772994
vt 0.426421 0.773119
vt 0.556932 0.773119
vt 0.425012 0.767764
vt 0.425012 0.773119
vt 0.426421 0.749561
vt 0.556932 0.749561
vt 0.557787 0.767764
vt 0.570431 0.772994
vt 0.570431 0.769160
vt 0.557787 0.773119
vt 0.425012 0.749561
vt 0.557787 0.749561
vt 0.570431 0.767764
vt 0.570431 0.773119
vt 0.578612 0.769160
vt 0.578612 0.772994
vt 0.570431 0.749561
vt 0.578612 0.767764
vt 0.578612 0.773119
vt 0.579687 0.772994
vt 0.579687 0.769160
vt 0.578612 0.749561
vt 0.579687 0.767764
vt 0.579687 0.773119
vt 0.583074 0.772994
vt 0.583074 0.769160
vt 0.579687 0.749561
vt 0.583074 0.767764
vt 0.583074 0.773119
vt 0.583074 0.749561
vt 0.583074 0.745206
vt 0.579687 0.745206
vt 0.583074 0.745153
vt 0.579687 0.745153
vt 0.578612 0.745206
vt 0.578612 0.745153
vt 0.583074 0.643103
vt 0.579687 0.643103
vt 0.570431 0.745206
vt 0.570431 0.745153
vt 0.578612 0.643103
vt 0.583074 0.642969
vt 0.579687 0.642969
vt 0.557787 0.745206
vt 0.557787 0.745153
vt 0.570431 0.643103
vt 0.578612 0.642969
vt 0.583074 0.638615
vt 0.579687 0.638615
vt 0.556932 0.745206
vt 0.556932 0.745153
vt 0.557787 0.643103
vt 0.570431 0.642969
vt 0.579687 0.620411
vt 0.583074 0.620411
vt 0.426421 0.745206
vt 0.426421 0.745153
vt 0.556932 0.643103
vt 0.557787 0.642969
vt 0.578612 0.638615
vt 0.578612 0.620411
vt 0.579687 0.619016
vt 0.583074 0.619016
vt 0.425012 0.745206
vt 0.425012 0.745153
vt 0.426421 0.643103
vt 0.556932 0.642969
vt 0.570431 0.638615
vt 0.570431 0.620411
vt 0.578612 0.619016
vt 0.579687 0.615400
vt 0.583074 0.615400
vt 0.425012 0.643103
vt 0.426421 0.642969
vt 0.557787 0.638615
vt 0.557787 0.620411
vt 0.570431 0.619016
vt 0.578612 0.615400
vt 0.579687 0.615057
vt 0.583074 0.615057
vt 0.425012 0.642969
vt 0.556932 0.638615
vt 0.556932 0.620411
vt 0.557787 0.619016
vt 0.570431 0.615400
vt 0.578612 0.615057
vt 0.426421 0.638615
vt 0.426421 0.620411
vt 0.556932 0.619016
vt 0.557787 0.615400
vt 0.570431 0.615057
vt 0.425012 0.638615
vt 0.425012 0.620411
vt 0.426421 0.619016
vt 0.556932 0.615400
vt 0.557787 0.615057
vt 0.425012 0.619016
vt 0.426421 0.615400
vt 0.556932 0.615057
vt 0.425012 0.615400
vt 0.426421 0.615057
vt 0.425012 0.615057
vt 0.098550 0.765625
vt 0.098550 0.765632
vt 0.093180 0.765632
vt 0.093180 0.765625
vt 0.203021 0.765625
vt 0.203021 0.765632
vt 0.098550 0.765632
vt 0.093180 0.765632
vt 0.093180 0.764229
vt 0.098359 0.764263
vt 0.203021 0.765632
vt 0.199110 0.764927
vt 0.093180 0.746026
vt 0.095865 0.746505
vt 0.148100 0.755825
vt 0.199110 0.764849
vt 0.203021 0.765546
vt 0.093180 0.741671
vt 0.094522 0.742017
vt 0.120640 0.748748
vt 0.148100 0.755757
vt 0.199110 0.616372
vt 0.203021 0.615676
vt 0.094522 0.741963
vt 0.093180 0.741618
vt 0.120640 0.748687
vt 0.148100 0.625450
vt 0.199110 0.616178
vt 0.203021 0.615481
vt 0.094522 0.639222
vt 0.093180 0.639568
vt 0.120640 0.632509
vt 0.148100 0.625280
vt 0.098359 0.616842
vt 0.098550 0.615481
vt 0.094522 0.639088
vt 0.093180 0.639434
vt 0.120640 0.632357
vt 0.095865 0.634600
vt 0.093180 0.616876
vt 0.093180 0.615481
vt 0.098550 0.615474
vt 0.203021 0.615474
vt 0.093180 0.635080
vt 0.093180 0.615474
vt 0.203021 0.615473
vt 0.098550 0.615473
vt 0.093180 0.615473
vt 0.007362 0.769624
vt 0.007362 0.769631
vt 0.001992 0.769631
vt 0.001992 0.769624
vt 0.111833 0.769624
vt 0.111833 0.769631
vt 0.007362 0.771027
vt 0.001992 0.771027
vt 0.007362 0.769624
vt 0.001992 0.769624
vt 0.111833 0.771027
vt 0.111833 0.769624
vt 0.007362 0.789230
vt 0.001992 0.789230
vt 0.111833 0.789230
vt 0.001992 0.793585
vt 0.007362 0.793585
vt 0.111833 0.793585
vt 0.001992 0.793639
vt 0.007362 0.793639
vt 0.111833 0.793639
vt 0.001992 0.895689
vt 0.007362 0.895689
vt 0.111833 0.895689
vt 0.001992 0.895822
vt 0.007362 0.895822
vt 0.111833 0.895822
vt 0.001992 0.900177
vt 0.007362 0.900177
vt 0.111833 0.900177
vt 0.007362 0.918380
vt 0.001992 0.918380
vt 0.111833 0.918380
vt 0.007362 0.919776
vt 0.001992 0.919776
vt 0.111833 0.919776
vt 0.007362 0.919782
vt 0.001992 0.919782
vt 0.111833 0.919782
vt 0.007362 0.919783
vt 0.001992 0.919783
vt 0.111833 0.919783
vt 0.758459 0.001836
vt 0.758459 0.003032
vt 0.758381 0.003032
vt 0.758381 0.001836
vt 0.908329 0.001836
vt 0.908329 0.003032
vt 0.758459 0.437463
vt 0.758381 0.437463
vt 0.908525 0.001836
vt 0.908525 0.003032
vt 0.908329 0.437463
vt 0.758459 0.438300
vt 0.758381 0.438300
vt 0.908525 0.437463
vt 0.908329 0.438300
vt 0.908525 0.438300
vt 0.418877 0.747393
vt 0.414522 0.747393
vt 0.414522 0.616882
vt 0.418877 0.616882
vt 0.418877 0.748248
vt 0.414522 0.748248
vt 0.414522 0.615473
vt 0.418877 0.615473
vt 0.418877 0.760892
vt 0.414522 0.760892
vt 0.418877 0.769073
vt 0.414522 0.769073
vt 0.418877 0.770148
vt 0.414522 0.770148
vt 0.408387 0.747393
vt 0.404032 0.747393
vt 0.404032 0.616882
vt 0.408387 0.616882
vt 0.408387 0.748248
vt 0.404032 0.748248
vt 0.404032 0.615473
vt 0.408387 0.615473
vt 0.408387 0.760892
vt 0.404032 0.760892
vt 0.408387 0.769073
vt 0.404032 0.769073
vt 0.408387 0.770148
vt 0.404032 0.770148
vt 0.634138 0.457411
vt 0.773294 0.457411
vt 0.769815 0.461362
vt 0.637617 0.461362
vt 0.773294 0.457536
vt 0.769815 0.461363
vt 0.637617 0.461363
vt 0.634138 0.457536
vt 0.773294 0.461370
vt 0.769815 0.461370
vt 0.634138 0.461370
vt 0.637617 0.461370
vt 0.625449 0.457411
vt 0.625284 0.457536
vt 0.773294 0.462765
vt 0.769815 0.462765
vt 0.620229 0.461370
vt 0.637617 0.461449
vt 0.634138 0.461449
vt 0.773294 0.480969
vt 0.769815 0.480969
vt 0.620229 0.461449
vt 0.637617 0.611318
vt 0.634138 0.611318
vt 0.769815 0.485323
vt 0.773294 0.485323
vt 0.620229 0.611318
vt 0.637617 0.611514
vt 0.634138 0.611514
vt 0.769815 0.485377
vt 0.773294 0.485377
vt 0.620229 0.611514
vt 0.637617 0.611521
vt 0.634138 0.615130
vt 0.769815 0.587427
vt 0.773294 0.587427
vt 0.624996 0.615130
vt 0.634138 0.615473
vt 0.637617 0.611522
vt 0.769815 0.587560
vt 0.773294 0.587560
vt 0.625449 0.615473
vt 0.773294 0.615473
vt 0.769815 0.611522
vt 0.769815 0.591915
vt 0.773294 0.591915
vt 0.769815 0.611521
vt 0.773294 0.615130
vt 0.773294 0.610118
vt 0.769815 0.610118
vt 0.769815 0.611514
vt 0.773294 0.611514
vt 0.600382 0.619095
vt 0.589210 0.619095
vt 0.589210 0.619016
vt 0.600382 0.619016
vt 0.600382 0.768964
vt 0.589210 0.768964
vt 0.600382 0.615182
vt 0.589210 0.615182
vt 0.614094 0.619095
vt 0.614094 0.619016
vt 0.600382 0.769160
vt 0.589210 0.769160
vt 0.614094 0.768964
vt 0.614094 0.615182
vt 0.600382 0.615057
vt 0.589210 0.615057
vt 0.600382 0.772776
vt 0.589210 0.772776
vt 0.614094 0.769160
vt 0.614094 0.615057
vt 0.614094 0.772776
vt 0.600382 0.773119
vt 0.589210 0.773119
vt 0.614094 0.773119
vt 0.933454 0.609785
vt 0.933454 0.603245
vt 0.933533 0.603245
vt 0.933533 0.609785
vt 0.783584 0.609785
vt 0.783584 0.603245
vt 0.909525 0.445183
vt 0.909579 0.445183
vt 0.913934 0.445183
vt 0.932137 0.445183
vt 0.933533 0.445183
vt 0.937367 0.603245
vt 0.937367 0.609785
vt 0.783388 0.609785
vt 0.783388 0.603245
vt 0.807475 0.445183
vt 0.909579 0.442292
vt 0.913934 0.442292
vt 0.937367 0.445183
vt 0.937492 0.603245
vt 0.937492 0.609785
vt 0.779773 0.609785
vt 0.779773 0.603245
vt 0.783388 0.445183
vt 0.784784 0.445183
vt 0.802987 0.445183
vt 0.807342 0.445183
vt 0.937492 0.445183
vt 0.779429 0.603245
vt 0.779429 0.609785
vt 0.779773 0.445183
vt 0.802987 0.442292
vt 0.807342 0.442292
vt 0.779429 0.445183
vt 0.209156 0.615481
vt 0.209156 0.615473
vt 0.341354 0.615473
vt 0.341354 0.615481
vt 0.209156 0.615473
vt 0.341354 0.615473
vt 0.341354 0.616876
vt 0.209156 0.616876
vt 0.341354 0.635080
vt 0.209156 0.635080
vt 0.209156 0.639434
vt 0.341354 0.639434
vt 0.341354 0.639488
vt 0.209156 0.639488
vt 0.341354 0.741538
vt 0.209156 0.741538
vt 0.341354 0.741671
vt 0.209156 0.741671
vt 0.209156 0.746026
vt 0.341354 0.746026
vt 0.341354 0.764229
vt 0.209156 0.764229
vt 0.341354 0.765625
vt 0.209156 0.765625
vt 0.341354 0.765632
vt 0.209156 0.765632
vt 0.209156 0.765632
vt 0.341354 0.765632
vt 0.119124 0.919689
vt 0.138056 0.919689
vt 0.138056 0.919768
vt 0.119124 0.919768
vt 0.119124 0.769820
vt 0.138056 0.769820
vt 0.119124 0.769624
vt 0.138056 0.769624
vt 0.378678 0.774139
vt 0.378678 0.788304
vt 0.378335 0.787851
vt 0.378335 0.774139
vt 0.382294 0.793071
vt 0.382294 0.774139
vt 0.393862 0.788016
vt 0.390029 0.793071
vt 0.390029 0.774139
vt 0.393862 0.774139
vt 0.393988 0.787851
vt 0.393988 0.774139
vt 0.406077 0.782139
vt 0.401722 0.782139
vt 0.401722 0.774139
vt 0.406077 0.774139
vt 0.417771 0.782139
vt 0.413416 0.782139
vt 0.413416 0.774139
vt 0.417771 0.774139
vt 0.203229 0.155436
vt 0.202795 0.156510
vt 0.197687 0.159898
vt 0.198873 0.156963
vt 0.207904 0.134611
vt 0.058531 0.159898
vt 0.049842 0.159898
vt 0.049842 0.001836
vt 0.207904 0.001836
vt 0.207904 0.003245
vt 0.207904 0.133756
vt 0.206535 0.147255
vt 0.038669 0.159690
vt 0.043302 0.002044
vt 0.049745 0.161094
vt 0.038572 0.160886
vt 0.063553 0.159898
vt 0.063456 0.161094
vt 0.014460 0.595525
vt 0.003288 0.595317
vt 0.028172 0.595525
vt 0.014392 0.596362
vt 0.003220 0.596154
vt 0.028104 0.596362
vt 0.013247 0.610470
vt 0.002074 0.610261
vt 0.026958 0.610470
vt 0.013164 0.611482
vt 0.001992 0.611273
vt 0.026876 0.611482
vt 0.411503 0.456354
vt 0.410317 0.453419
vt 0.415426 0.456807
vt 0.415860 0.457882
vt 0.420535 0.478707
vt 0.420535 0.479562
vt 0.420535 0.610073
vt 0.420535 0.611482
vt 0.262472 0.611482
vt 0.262472 0.453419
vt 0.271161 0.453419
vt 0.419166 0.466063
vt 0.255933 0.611273
vt 0.251300 0.453627
vt 0.251203 0.452432
vt 0.262375 0.452223
vt 0.215919 0.018000
vt 0.227091 0.017792
vt 0.276087 0.452223
vt 0.276184 0.453419
vt 0.215851 0.017163
vt 0.227023 0.016955
vt 0.240803 0.017792
vt 0.214705 0.003056
vt 0.225877 0.002848
vt 0.240735 0.016955
vt 0.214623 0.002044
vt 0.225795 0.001836
vt 0.239589 0.002848
vt 0.239507 0.001836
vt 0.248931 0.901822
vt 0.248931 0.769624
vt 0.254301 0.769624
vt 0.254301 0.901822
vt 0.144460 0.901822
vt 0.144460 0.769624
vt 0.266768 0.774139
vt 0.266768 0.906337
vt 0.261398 0.906337
vt 0.261398 0.774139
vt 0.371239 0.774139
vt 0.371239 0.906337
vt 0.951598 0.003032
vt 0.951695 0.001836
vt 0.970627 0.001836
vt 0.970530 0.003032
vt 0.916314 0.437463
vt 0.935245 0.437463
vt 0.916246 0.438300
vt 0.935177 0.438300
vt 0.979076 0.878756
vt 0.978979 0.877560
vt 0.997911 0.877560
vt 0.998008 0.878756
vt 0.943695 0.443129
vt 0.962627 0.443129
vt 0.943627 0.442292
vt 0.962559 0.442292
vt 0.395005 0.747393
vt 0.395005 0.616882
vt 0.397896 0.616882
vt 0.397896 0.747393
vt 0.395005 0.615473
vt 0.397896 0.615473
vt 0.395005 0.748248
vt 0.397896 0.748248
vt 0.393636 0.760892
vt 0.397896 0.760892
vt 0.397896 0.769073
vt 0.390330 0.769073
vt 0.389896 0.770148
vt 0.397896 0.770148
vt 0.380869 0.768739
vt 0.380869 0.638228
vt 0.383761 0.638228
vt 0.383761 0.768739
vt 0.380869 0.637373
vt 0.383761 0.637373
vt 0.380869 0.770148
vt 0.383761 0.770148
vt 0.379500 0.624729
vt 0.383761 0.624729
vt 0.376195 0.616547
vt 0.383761 0.616547
vt 0.375761 0.615473
vt 0.383761 0.615473
vt 0.366734 0.747393
vt 0.366734 0.616882
vt 0.369625 0.616882
vt 0.369625 0.747393
vt 0.366734 0.615473
vt 0.369625 0.615473
vt 0.366734 0.748248
vt 0.369625 0.748248
vt 0.365365 0.760892
vt 0.369625 0.760892
vt 0.369625 0.769073
vt 0.362059 0.769073
vt 0.361625 0.770148
vt 0.369625 0.770148
vt 0.352598 0.768739
vt 0.352598 0.638228
vt 0.355490 0.638228
vt 0.355490 0.768739
vt 0.352598 0.637373
vt 0.355490 0.637373
vt 0.352598 0.770148
vt 0.355490 0.770148
vt 0.351229 0.624729
vt 0.355490 0.624729
vt 0.347924 0.616547
vt 0.355490 0.616547
vt 0.347490 0.615473
vt 0.355490 0.615473
vn 0.323766 0.000000 0.946137
vn 0.323765 0.000000 0.946137
vn 0.323765 0.000000 0.946137
vn 0.323766 0.000000 0.946137
vn -0.323759 0.000000 -0.946139
vn -0.323760 0.000000 -0.946139
vn -0.323760 0.000000 -0.946139
vn -0.323759 0.000000 -0.946139
vn 0.323762 0.000000 0.946138
vn 0.323762 0.000000 0.946138
vn 0.323762 0.000000 0.946138
vn 0.323762 0.000000 0.946138
vn 0.323762 0.000000 0.946138
vn 0.323762 0.000000 0.946138
vn 0.323762 0.000000 0.946138
vn 0.323762 0.000000 0.946138
vn 0.323762 0.000000 0.946138
vn -0.323763 0.000000 -0.946138
vn -0.323763 0.000000 -0.946138
vn -0.323763 0.000000 -0.946138
vn -0.323763 0.000000 -0.946138
vn -0.323763 0.000000 -0.946138
vn -0.323763 0.000000 -0.946138
vn -0.323763 0.000000 -0.946138
vn -0.323763 0.000000 -0.946138
vn -0.323763 0.000000 -0.946138
vn 0.323763 0.000000 0.946138
vn 0.323763 0.000000 0.946138
vn 0.323763 0.000000 0.946138
vn 0.323763 0.000000 0.946138
vn -0.323761 0.000000 -0.946139
vn -0.323761 0.000000 -0.946139
vn -0.323761 0.000000 -0.946139
vn -0.323761 0.000000 -0.946139
vn -0.323763 0.000000 -0.946138
vn -0.323763 0.000000 -0.946138
vn -0.323762 0.000000 -0.946138
vn -0.323762 0.000000 -0.946138
vn 0.323762 0.000000 0.946138
vn 0.323762 0.000000 0.946138
vn 0.323763 0.000000 0.946138
vn 0.323763 0.000000 0.946138
vn 0.000000 1.000000 0.000000
vn 0.000558 1.000000 -0.000191
vn 0.000000 1.000000 0.000000
vn 0.000000 1.000000 0.000000
vn 0.001524 0.999999 -0.000522
vn -0.000000 1.000000 -0.000000
vn -0.000000 1.000000 -0.000000
vn -0.000000 1.000000 -0.000000
vn -0.323763 0.000000 -0.946138
vn -0.323763 0.000000 -0.946138
vn -0.323763 0.000000 -0.946138
vn -0.323763 0.000000 -0.946138
vn 0.323763 0.000000 0.946138
vn 0.323763 0.000000 0.946138
vn 0.323763 0.000000 0.946138
vn 0.323763 0.000000 0.946138
vn 0.927584 0.197070 -0.317413
vn 0.927584 0.197069 -0.317413
vn 0.927584 0.197069 -0.317413
vn 0.927585 0.197064 -0.317414
vn -0.007123 0.999972 0.002438
vn -0.007123 0.999972 0.002438
vn -0.007123 0.999972 0.002438
vn -0.007123 0.999972 0.002438
vn -0.792028 0.547024 0.271027
vn -0.809300 0.518016 0.276937
vn -0.742709 0.201613 0.638541
vn -0.761470 0.227376 0.607012
vn -0.934969 -0.153201 0.319941
vn -0.935019 -0.152864 0.319957
vn -0.777736 -0.108426 0.619169
vn -0.776229 -0.108996 0.620958
vn -0.012170 -0.999917 0.004165
vn -0.000566 -1.000000 0.000194
vn -0.000123 -1.000000 0.000042
vn -0.012170 -0.999917 0.004165
vn 0.000000 -1.000000 0.000000
vn 0.000000 -1.000000 0.000000
vn 0.000000 -1.000000 0.000000
vn 0.000000 -1.000000 0.000000
vn 0.000000 -1.000000 0.000000
vn 0.000000 1.000000 0.000000
vn 0.000000 1.000000 0.000000
vn 0.000000 1.000000 0.000000
vn 0.000000 1.000000 0.000000
vn 0.000000 1.000000 0.000000
vn 0.000000 1.000000 0.000000
vn 0.000000 1.000000 0.000000
vn 0.000000 1.000000 0.000000
vn 0.000000 -1.000000 0.000000
vn -0.000484 -1.000000 0.000165
vn 0.946138 0.000000 -0.323763
vn 0.946138 0.000000 -0.323763
vn 0.946138 0.000000 -0.323763
vn 0.946138 0.000000 -0.323763
vn -0.773883 -0.106241 0.624354
vn -0.772406 -0.106764 0.626091
vn 0.210926 0.974834 -0.072177
vn 0.244876 0.965927 -0.083795
vn 0.244876 0.965927 -0.083795
vn 0.174036 0.982937 -0.059554
vn 0.669055 0.707070 -0.228946
vn 0.669024 0.707103 -0.228936
vn 0.669024 0.707103 -0.228936
vn 0.669054 0.707071 -0.228946
vn 0.913901 0.258814 -0.312731
vn 0.917679 0.243423 -0.314024
vn 0.917679 0.243423 -0.314024
vn 0.913901 0.258814 -0.312731
vn 0.000000 1.000000 0.000000
vn 0.000000 1.000000 0.000000
vn 0.000000 1.000000 0.000000
vn 0.000000 1.000000 0.000000
vn -0.012170 -0.999917 0.004165
vn -0.007123 0.999972 0.002438
vn -0.007123 0.999972 0.002438
vn 0.927585 0.197064 -0.317414
vn 0.927584 0.197069 -0.317413
vn -0.740721 0.181791 0.646749
vn -0.748237 0.206426 0.630500
vn 0.000000 1.000000 0.000000
vn 0.000000 1.000000 0.000000
vn 0.000000 1.000000 0.000000
vn 0.946138 -0.000000 -0.323763
vn 0.946138 0.000000 -0.323763
vn 0.946138 0.000000 -0.323763
vn 0.946138 0.000000 -0.323763
vn -0.946138 0.000000 0.323763
vn -0.946138 0.000000 0.323763
vn -0.946138 0.000000 0.323763
vn -0.946138 0.000000 0.323763
vn -0.007123 0.999972 0.002438
vn -0.007123 0.999972 0.002438
vn -0.007123 0.999972 0.002438
vn -0.007123 0.999972 0.002438
vn -0.986681 -0.152044 -0.057824
vn -0.981737 0.181469 -0.057100
vn -0.977629 0.206514 -0.039911
vn -0.987700 -0.151073 -0.040310
vn -0.997252 -0.071499 -0.019415
vn -0.994152 -0.106241 -0.019343
vn -0.994042 -0.106827 -0.021634
vn -0.997149 -0.072266 -0.021693
vn -0.000484 -1.000000 0.000165
vn -0.000484 -1.000000 0.000165
vn -0.012170 -0.999917 0.004165
vn -0.012170 -0.999917 0.004165
vn 0.000000 -1.000000 0.000000
vn 0.000000 -1.000000 0.000000
vn 0.946138 0.000000 -0.323763
vn 0.946138 0.000000 -0.323763
vn 0.946138 0.000000 -0.323763
vn 0.946138 0.000000 -0.323763
vn 0.913901 0.258813 -0.312731
vn 0.917679 0.243422 -0.314024
vn 0.917678 0.243424 -0.314024
vn 0.913901 0.258815 -0.312731
vn 0.669051 0.707075 -0.228945
vn 0.669023 0.707104 -0.228935
vn 0.669024 0.707103 -0.228936
vn 0.669058 0.707068 -0.228947
vn 0.206699 0.975845 -0.070731
vn 0.244876 0.965926 -0.083795
vn 0.244876 0.965927 -0.083795
vn 0.000000 1.000000 0.000000
vn -0.946138 0.000000 0.323763
vn -0.946138 0.000000 0.323763
vn -0.946138 0.000000 0.323763
vn -0.946138 0.000000 0.323763
vn 0.000000 1.000000 0.000000
vn 0.000000 1.000000 0.000000
vn 0.000000 1.000000 0.000000
vn 0.000000 1.000000 0.000000
vn 0.946138 0.000000 -0.323763
vn 0.946138 0.000000 -0.323763
vn 0.946138 0.000000 -0.323763
vn 0.946138 0.000000 -0.323763
vn -0.000000 1.000000 -0.000000
vn 0.000000 1.000000 0.000000
vn -0.000000 1.000000 -0.000000
vn 0.000001 1.000000 0.000002
vn 0.927584 0.197069 -0.317413
vn 0.927585 0.197065 -0.317414
vn 0.927585 0.197064 -0.317414
vn 0.927584 0.197069 -0.317413
vn 0.927568 0.197155 -0.317408
vn 0.927584 0.197070 -0.317413
vn 0.927581 0.197085 -0.317412
vn 0.927570 0.197142 -0.317409
vn 0.927584 0.197071 -0.317413
vn 0.927584 0.197070 -0.317413
vn 0.927597 0.197000 -0.317418
vn 0.927597 0.197000 -0.317418
vn -0.323763 0.000000 -0.946138
vn -0.323763 0.000000 -0.946138
vn -0.323763 0.000000 -0.946138
vn -0.323763 0.000000 -0.946138
vn -0.943063 -0.160393 -0.291388
vn -0.943051 -0.160385 -0.291431
vn -0.927584 -0.197070 0.317413
vn -0.574216 -0.161442 0.802628
vn -0.566836 -0.160393 0.808066
vn 0.323763 0.000000 0.946138
vn 0.323763 0.000000 0.946138
vn 0.323763 0.000000 0.946138
vn 0.323763 0.000000 0.946138
vn 0.927599 0.196994 -0.317418
vn 0.927599 0.196994 -0.317418
vn 0.927584 0.197070 -0.317413
vn 0.927584 0.197070 -0.317413
vn 0.000000 1.000000 0.000000
vn 0.000000 1.000000 0.000000
vn 0.000000 1.000000 0.000000
vn 0.000000 1.000000 0.000000
vn 0.000000 -1.000000 0.000000
vn 0.000000 -1.000000 0.000000
vn 0.000000 -1.000000 0.000000
vn 0.000000 -1.000000 0.000000
vn 0.000000 1.000000 0.000000
vn 0.000000 1.000000 0.000000
vn 0.000000 1.000000 0.000000
vn 0.000000 1.000000 0.000000
vn 0.323763 0.000000 0.946138
vn 0.323763 0.000000 0.946138
vn 0.323763 0.000000 0.946138
vn 0.323763 0.000000 0.946138
vn -0.323763 0.000000 -0.946138
vn -0.323763 0.000000 -0.946138
vn -0.323763 0.000000 -0.946138
vn -0.323763 0.000000 -0.946138
vn 0.000000 1.000000 0.000000
vn 0.000000 1.000000 0.000000
vn 0.000000 1.000000 0.000000
vn 0.000000 1.000000 0.000000
vn 0.323763 0.000000 0.946138
vn 0.323763 0.000000 0.946138
vn 0.323763 0.000000 0.946138
vn 0.323763 0.000000 0.946138
vn 0.000000 -1.000000 0.000000
vn 0.000000 -1.000000 0.000000
vn 0.000000 -1.000000 0.000000
vn 0.000000 -1.000000 0.000000
vn -0.323763 0.000000 -0.946138
vn -0.323763 0.000000 -0.946138
vn -0.323763 0.000000 -0.946138
vn -0.323763 0.000000 -0.946138
vn 0.000000 -1.000000 0.000000
vn 0.000000 -1.000000 0.000000
vn 0.000000 -1.000000 0.000000
vn 0.000000 -1.000000 0.000000
vn -0.323763 0.000000 -0.946138
vn -0.323763 0.000000 -0.946138
vn -0.323763 0.000000 -0.946138
vn -0.323763 0.000000 -0.946138
vn 0.323763 0.000000 0.946138
vn 0.323763 0.000000 0.946138
vn 0.323763 0.000000 0.946138
vn 0.323763 0.000000 0.946138
vn 0.946138 -0.000000 -0.323763
vn 0.946138 -0.000000 -0.323763
vn 0.946138 -0.000001 -0.323763
vn 0.946138 -0.000001 -0.323763
vn 0.946138 0.000000 -0.323763
vn 0.946138 0.000000 -0.323763
vn 0.946138 0.000000 -0.323763
vn 0.946138 0.000000 -0.323763
vn 0.946138 0.000006 -0.323763
vn 0.946138 0.000006 -0.323763
vn 0.946138 0.000007 -0.323763
vn 0.946138 0.000007 -0.323763
vn 0.946138 0.000011 -0.323763
vn 0.946138 0.000011 -0.323763
vn 0.946138 0.000003 -0.323763
vn 0.946138 0.000003 -0.323763
vn 0.000000 1.000000 0.000000
vn 0.000000 1.000000 0.000000
vn 0.000000 1.000000 0.000000
vn 0.000000 1.000000 0.000000
vn -0.946138 0.000000 0.323763
vn -0.946138 0.000000 0.323763
vn -0.946138 0.000000 0.323763
vn -0.946138 0.000000 0.323763
vn 0.000000 1.000000 0.000000
vn 0.000000 1.000000 0.000000
vn 0.148934 0.987533 -0.050964
vn 0.148934 0.987533 -0.050965
vn 0.244876 0.965927 -0.083795
vn 0.244876 0.965927 -0.083796
vn 0.946138 0.000000 -0.323763
vn 0.946138 0.000000 -0.323763
vn 0.946138 0.000000 -0.323763
vn 0.946138 0.000000 -0.323763
vn 0.000000 1.000000 0.000000
vn 0.000000 1.000000 0.000000
vn -0.946138 0.000000 0.323763
vn -0.946138 0.000000 0.323763
vn 0.148934 0.987533 -0.050964
vn 0.000000 1.000000 0.000000
vn 0.244876 0.965927 -0.083795
vn 0.669024 0.707104 -0.228936
vn 0.669024 0.707104 -0.228936
vn 0.669054 0.707072 -0.228946
vn 0.669054 0.707072 -0.228946
vn 0.917679 0.243423 -0.314024
vn 0.917679 0.243423 -0.314024
vn 0.913901 0.258814 -0.312731
vn 0.913901 0.258813 -0.312731
vn 0.946138 0.000000 -0.323763
vn 0.946138 0.000000 -0.323763
vn 0.946138 0.000000 -0.323763
vn 0.946138 0.000000 -0.323763
vn 0.946138 0.000008 -0.323763
vn 0.946138 0.000008 -0.323763
vn 0.946138 0.000008 -0.323763
vn 0.946138 0.000008 -0.323763
vn 0.946138 0.000011 -0.323763
vn 0.946138 0.000011 -0.323763
vn 0.946138 0.000000 -0.323763
vn 0.946138 0.000000 -0.323763
vn 0.000000 1.000000 0.000000
vn 0.000000 1.000000 0.000000
vn 0.000000 1.000000 0.000000
vn 0.000000 1.000000 0.000000
vn -0.946138 0.000000 0.323763
vn -0.946138 0.000000 0.323763
vn -0.946138 0.000000 0.323763
vn -0.946138 0.000000 0.323763
vn 0.000000 1.000000 0.000000
vn 0.000000 1.000000 0.000000
vn 0.148934 0.987533 -0.050964
vn 0.148934 0.987533 -0.050964
vn 0.244876 0.965926 -0.083795
vn 0.244876 0.965927 -0.083795
vn 0.946138 0.000000 -0.323763
vn 0.946138 0.000000 -0.323763
vn 0.946138 0.000000 -0.323763
vn 0.946138 0.000000 -0.323763
vn 0.913901 0.258814 -0.312731
vn 0.917679 0.243423 -0.314024
vn 0.917679 0.243423 -0.314024
vn 0.913901 0.258813 -0.312731
vn 0.669024 0.707104 -0.228936
vn 0.669024 0.707104 -0.228936
vn 0.669054 0.707071 -0.228946
vn 0.669055 0.707071 -0.228946
vn 0.244876 0.965927 -0.083795
vn 0.148934 0.987533 -0.050964
vn 0.000000 1.000000 0.000000
vn -0.946138 0.000000 0.323763
vn -0.946138 0.000000 0.323763
vn 0.000000 1.000000 0.000000
vn 0.000000 1.000000 0.000000
vn 0.917678 0.243428 -0.314023
vn 0.917679 0.243423 -0.314024
vn 0.913901 0.258813 -0.312731
vn 0.913900 0.258819 -0.312731
vn 0.946138 0.000000 -0.323763
vn 0.946138 0.000000 -0.323763
vn 0.946138 0.000000 -0.323763
vn 0.946138 0.000000 -0.323763
vn 0.000000 1.000000 0.000000
vn 0.000000 1.000000 0.000000
vn -0.946138 0.000000 0.323763
vn -0.946138 0.000000 0.323763
vn 0.000000 1.000000 0.000000
vn 0.148935 0.987533 -0.050964
vn 0.244877 0.965926 -0.083795
vn 0.669035 0.707092 -0.228939
vn 0.668975 0.707103 -0.229080
vn 0.669027 0.707095 -0.228955
vn 0.669022 0.707106 -0.228935
vn 0.323763 0.000000 0.946138
vn 0.323763 0.000000 0.946138
vn 0.323763 0.000000 0.946138
vn 0.323763 0.000000 0.946138
vn 0.000000 -1.000000 0.000000
vn 0.000000 -1.000000 0.000000
vn 0.000000 -1.000000 0.000000
vn 0.000000 -1.000000 0.000000
vn -0.323763 0.000000 -0.946138
vn -0.323763 0.000000 -0.946138
vn -0.323763 0.000000 -0.946138
vn -0.323763 0.000000 -0.946138
vn -0.323763 0.000000 -0.946138
vn -0.323763 0.000000 -0.946138
vn -0.323763 0.000000 -0.946138
vn -0.323763 0.000000 -0.946138
vn 0.323763 0.000000 0.946138
vn 0.323763 0.000000 0.946138
vn 0.323763 0.000000 0.946138
vn 0.323763 0.000000 0.946138
vn -0.323763 0.000000 -0.946138
vn -0.323763 0.000000 -0.946138
vn -0.323763 0.000000 -0.946138
vn -0.323763 0.000000 -0.946138
vn 0.000000 1.000000 0.000000
vn 0.000000 1.000000 0.000000
vn 0.000000 1.000000 0.000000
vn 0.000000 1.000000 0.000000
vn 0.323763 0.000330 0.946138
vn 0.323763 0.000039 0.946138
vn 0.323763 0.000012 0.946138
vn 0.323763 0.000330 0.946138
vn 0.323763 0.000000 0.946138
vn 0.323763 0.000000 0.946138
vn 0.323763 0.000000 0.946138
vn 0.323763 0.000000 0.946138
vn 0.000000 -1.000000 0.000000
vn 0.000000 -1.000000 0.000000
vn 0.000000 -1.000000 0.000000
vn 0.000000 -1.000000 0.000000
vn -0.323763 0.000000 -0.946138
vn -0.323763 0.000000 -0.946138
vn -0.323763 0.000000 -0.946138
vn -0.323763 0.000000 -0.946138
vn -0.323763 0.000000 -0.946138
vn -0.323763 0.000000 -0.946138
vn -0.323763 0.000000 -0.946138
vn -0.323763 0.000000 -0.946138
vn 0.323763 0.000000 0.946138
vn 0.323763 0.000000 0.946138
vn 0.323763 0.000000 0.946138
vn 0.323763 0.000000 0.946138
vn -0.323763 0.000000 -0.946138
vn -0.323763 0.000000 -0.946138
vn -0.323763 0.000000 -0.946138
vn -0.323763 0.000000 -0.946138
vn 0.000000 1.000000 0.000000
vn 0.000000 1.000000 0.000000
vn 0.000000 1.000000 0.000000
vn 0.000000 1.000000 0.000000
vn 0.323763 0.000000 0.946138
vn 0.323763 0.000000 0.946138
vn 0.323763 0.000000 0.946138
vn 0.323763 0.000000 0.946138
vn 0.323766 0.000000 0.946137
vn 0.323766 0.000000 0.946137
vn 0.669020 0.707108 -0.228934
vn 0.669020 0.707108 -0.228934
vn 0.669020 0.707108 -0.228934
vn 0.669020 0.707108 -0.228934
vn 0.323763 -0.000043 0.946138
vn 0.323763 -0.000043 0.946138
vn 0.946138 0.000012 -0.323763
vn 0.946138 0.000012 -0.323763
vn -0.323763 0.000000 -0.946138
vn -0.323763 0.000000 -0.946138
vn 0.669033 0.707093 -0.228939
vn 0.669020 0.707108 -0.228934
vn 0.323763 0.000000 0.946138
vn 0.323763 0.000000 0.946138
vn 0.946138 0.000012 -0.323763
vn 0.946138 0.000012 -0.323763
vn -0.323763 0.000000 -0.946138
vn -0.323763 0.000000 -0.946138
vn 0.669020 0.707108 -0.228934
vn 0.669020 0.707108 -0.228934
vn 0.669020 0.707108 -0.228934
vn 0.669020 0.707108 -0.228934
vn -0.323759 0.000000 -0.946139
vn -0.323759 0.000000 -0.946139
vn 0.946138 -0.000004 -0.323763
vn 0.946138 -0.000000 -0.323763
vn 0.946138 -0.000000 -0.323763
vn 0.946138 -0.000003 -0.323763
vn 0.946138 -0.000034 -0.323763
vn 0.946138 0.000000 -0.323763
vn 0.946138 0.000000 -0.323763
vn 0.946138 -0.000031 -0.323763
vn 0.946138 0.000001 -0.323763
vn 0.946138 0.000001 -0.323763
vn 0.946138 0.000000 -0.323763
vn 0.946138 0.000000 -0.323763
vn 0.946138 0.000055 -0.323763
vn 0.946138 0.000055 -0.323763
vn 0.946138 -0.000001 -0.323763
vn 0.946138 -0.000001 -0.323763
vn 0.946138 0.000000 -0.323763
vn 0.946138 0.000000 -0.323763
vn 0.946138 0.000003 -0.323763
vn 0.946138 0.000003 -0.323763
vn 0.946138 0.000000 -0.323763
vn 0.946138 -0.000082 -0.323763
vn 0.946138 0.000000 -0.323763
vn 0.946138 0.000001 -0.323763
vn 0.323763 0.000000 0.946138
vn 0.323763 0.000000 0.946138
vn 0.323763 0.000000 0.946138
vn 0.323763 0.000000 0.946138
vn -0.566837 -0.160393 0.808065
vn -0.574821 -0.161528 0.802178
vn -0.927584 -0.197070 0.317413
vn -0.943063 -0.160393 -0.291388
vn -0.943051 -0.160385 -0.291431
vn -0.323763 0.000000 -0.946138
vn -0.323763 0.000000 -0.946138
vn -0.323763 0.000000 -0.946138
vn -0.323763 0.000000 -0.946138
vn 0.927584 0.197071 -0.317413
vn 0.927584 0.197070 -0.317413
vn 0.323763 0.000000 0.946138
vn 0.323763 0.000000 0.946138
vn 0.927584 0.197070 -0.317413
vn 0.927581 0.197085 -0.317412
vn -0.323763 0.000000 -0.946138
vn -0.323763 0.000000 -0.946138
vn 0.927584 0.197070 -0.317413
vn 0.927584 0.197070 -0.317413
vn 0.323763 0.000000 0.946138
vn 0.323763 0.000000 0.946138
vn 0.323763 0.000000 0.946138
vn 0.323763 0.000000 0.946138
vn -0.914881 0.220514 0.338181
vn -0.914861 0.220609 0.338173
vn -0.910554 0.240718 0.336074
vn -0.792027 0.547027 0.271026
vn -0.941160 -0.161789 0.296718
vn -0.930305 0.220340 0.293228
vn -0.930266 0.220520 0.293216
vn -0.941160 -0.161789 0.296718
vn -0.323762 0.000000 -0.946139
vn -0.323762 0.000000 -0.946139
vn -0.323763 0.000000 -0.946138
vn -0.323763 0.000000 -0.946138
vn 0.927587 0.197054 -0.317414
vn 0.927587 0.197055 -0.317414
vn 0.927588 0.197048 -0.317415
vn 0.927586 0.197060 -0.317414
vn 0.927586 0.197061 -0.317414
vn 0.323763 0.000000 0.946138
vn 0.323763 0.000000 0.946138
vn -0.323763 0.000000 -0.946138
vn -0.323763 0.000000 -0.946138
vn 0.323763 0.000000 0.946138
vn 0.323763 0.000000 0.946138
vn 0.927582 0.197081 -0.317413
vn 0.927584 0.197072 -0.317413
vn -0.323763 0.000000 -0.946138
vn -0.323763 0.000000 -0.946138
vn 0.927584 0.197070 -0.317413
vn 0.927584 0.197069 -0.317413
vn 0.927588 0.197048 -0.317415
vn 0.000000 1.000000 0.000000
vn 0.000000 1.000000 0.000000
vn -0.007123 0.999972 0.002438
vn -0.007123 0.999972 0.002438
vn -0.792026 0.547027 0.271026
vn -0.792028 0.547024 0.271027
vn -0.809300 0.518016 0.276937
vn -0.927584 -0.197070 0.317413
vn -0.927584 -0.197070 0.317413
vn -0.934969 -0.153201 0.319941
vn -0.935019 -0.152864 0.319957
vn -0.012170 -0.999917 0.004165
vn -0.000566 -1.000000 0.000194
vn 0.000000 -1.000000 0.000000
vn 0.946138 0.000000 -0.323763
vn 0.946138 0.000000 -0.323763
vn 0.917679 0.243423 -0.314024
vn 0.913901 0.258813 -0.312731
vn 0.669022 0.707106 -0.228935
vn 0.669020 0.707108 -0.228934
vn 0.669035 0.707092 -0.228939
vn 0.148935 0.987533 -0.050964
vn 0.244877 0.965926 -0.083795
vn 0.000000 1.000000 0.000000
vn -0.946138 0.000000 0.323763
vn -0.946138 0.000000 0.323763
vn 0.000000 1.000000 0.000000
vn 0.000000 1.000000 0.000000
vn 0.946138 0.000000 -0.323763
vn 0.946138 0.000001 -0.323763
vn 0.946138 -0.000001 -0.323763
vn 0.946138 -0.000001 -0.323763
vn 0.946138 0.000000 -0.323763
vn 0.946138 0.000000 -0.323763
vn 0.000000 1.000000 0.000000
vn 0.000000 1.000000 0.000000
vn 0.000000 1.000000 0.000000
vn 0.927568 0.197155 -0.317408
vn 0.927584 0.197070 -0.317413
vn 0.927584 0.197070 -0.317413
vn 0.927582 0.197081 -0.317413
vn 0.000000 -1.000000 0.000000
vn 0.000000 -1.000000 0.000000
vn 0.927585 0.197065 -0.317414
vn 0.927584 0.197069 -0.317413
vn 0.927587 0.197053 -0.317414
vn 0.000000 1.000000 0.000000
vn 0.000000 1.000000 0.000000
vn -0.007123 0.999972 0.002438
vn -0.007123 0.999972 0.002438
vn -0.917301 0.272462 0.290385
vn -0.966024 0.258428 -0.003465
vn -0.971846 0.232672 -0.037140
vn -0.949836 -0.163286 -0.266737
vn -0.949344 -0.163070 -0.268615
vn -0.993636 -0.112535 -0.004800
vn -0.993710 -0.111945 -0.002830
vn -0.012170 -0.999917 0.004165
vn -0.000121 -1.000000 0.000041
vn 0.000000 -1.000000 0.000000
vn 0.000000 -1.000000 0.000000
vn 0.000000 -1.000000 0.000000
vn 0.000000 -1.000000 0.000000
vn 0.946138 0.000000 -0.323763
vn 0.946138 0.000000 -0.323763
vn 0.917677 0.243428 -0.314023
vn 0.913899 0.258820 -0.312731
vn 0.669024 0.707103 -0.228936
vn 0.669020 0.707108 -0.228934
vn 0.669056 0.707069 -0.228947
vn 0.946138 0.000000 -0.323763
vn 0.946138 0.000000 -0.323763
vn 0.946138 0.000006 -0.323763
vn 0.946138 0.000006 -0.323763
vn 0.946138 -0.000004 -0.323763
vn 0.946138 -0.000003 -0.323763
vn 0.000000 1.000000 0.000000
vn -0.000000 1.000000 -0.000000
vn -0.000000 1.000000 -0.000000
vn 0.927569 0.197150 -0.317408
vn 0.927583 0.197076 -0.317413
vn 0.927583 0.197075 -0.317413
vn 0.927580 0.197089 -0.317412
vn 0.000000 -1.000000 0.000000
vn 0.000000 -1.000000 0.000000
vn 0.946138 -0.000000 -0.323763
vn 0.946138 0.000000 -0.323763
vn 0.946138 0.000000 -0.323763
vn 0.946138 0.000000 -0.323763
vn 0.946138 0.000000 -0.323763
vn 0.946138 0.000000 -0.323763
vn 0.946138 -0.000000 -0.323763
vn 0.946138 -0.000085 -0.323763
vn 0.946138 0.000000 -0.323763
vn 0.946138 0.000000 -0.323763
vn 0.946138 0.000000 -0.323763
vn 0.946138 -0.000000 -0.323763
vn 0.946138 -0.000000 -0.323763
vn 0.946138 0.000000 -0.323763
vn -0.323763 0.000000 -0.946138
vn -0.323763 0.000000 -0.946138
vn -0.946138 0.000000 0.323763
vn -0.946138 0.000000 0.323763
vn -0.946138 0.000000 0.323763
vn -0.946138 0.000000 0.323763
vn -0.946138 0.000000 0.323763
vn -0.946138 0.000000 0.323763
vn -0.946138 0.000000 0.323763
vn -0.946138 0.000000 0.323763
vn -0.946138 0.000000 0.323763
vn -0.946138 0.000000 0.323763
vn -0.946138 0.000000 0.323763
vn -0.946138 0.000000 0.323763
vn 0.323763 0.000000 0.946138
vn 0.323763 0.000000 0.946138
vn 0.946138 0.000000 -0.323763
vn 0.946138 0.000000 -0.323763
vn 0.946138 0.000000 -0.323763
vn 0.946138 0.000000 -0.323763
vn 0.917679 0.243422 -0.314024
vn 0.913901 0.258813 -0.312731
vn 0.669020 0.707108 -0.228934
vn 0.669023 0.707104 -0.228935
vn 0.669050 0.707076 -0.228945
vn 0.244876 0.965927 -0.083795
vn 0.173573 0.983028 -0.059396
vn 0.000000 1.000000 0.000000
vn -0.946138 0.000000 0.323763
vn -0.946138 0.000000 0.323763
vn -0.946138 0.000000 0.323763
vn 0.000000 1.000000 0.000000
vn 0.000000 1.000000 0.000000
vn 0.946138 -0.000000 -0.323763
vn 0.946138 0.000000 -0.323763
vn 0.946138 -0.000000 -0.323763
vn 0.946138 0.000000 -0.323763
vn 0.946138 0.000005 -0.323763
vn 0.946138 0.000000 -0.323763
vn 0.946138 0.000000 -0.323763
vn 0.946138 0.000000 -0.323763
vn 0.946138 0.000000 -0.323763
vn 0.946138 0.000000 -0.323763
vn 0.946138 0.000000 -0.323763
vn 0.323763 0.000000 0.946138
vn 0.323763 0.000000 0.946138
vn 0.946138 0.000000 -0.323763
vn 0.946138 0.000000 -0.323763
vn -0.323763 0.000000 -0.946138
vn -0.323763 0.000000 -0.946138
vn 0.946138 0.000000 -0.323763
vn 0.946138 0.000000 -0.323763
vn 0.946138 0.000000 -0.323763
vn 0.946138 0.000000 -0.323763
vn 0.323763 0.000000 0.946138
vn 0.323763 0.000000 0.946138
vn 0.946138 0.000000 -0.323763
vn 0.946138 0.000000 -0.323763
vn -0.323763 0.000000 -0.946138
vn -0.323763 0.000000 -0.946138
vn 0.946138 0.000000 -0.323763
vn 0.946138 0.000000 -0.323763
vn 0.946138 0.000000 -0.323763
vn 0.946138 0.000000 -0.323763
vn 0.946138 0.000000 -0.323763
vn -0.323763 0.000000 -0.946138
vn -0.323763 0.000000 -0.946138
vn 0.323763 0.000000 0.946138
vn 0.323763 0.000000 0.946138
vn -0.323763 0.000000 -0.946138
vn -0.323763 0.000000 -0.946138
vn 0.323763 0.000000 0.946138
vn 0.323763 0.000000 0.946138
vn 0.946138 0.000000 -0.323763
vn 0.917679 0.243421 -0.314024
vn 0.946138 0.000000 -0.323763
vn 0.946138 0.000000 -0.323763
vn 0.000000 -1.000000 0.000000
vn -0.000484 -1.000000 0.000165
vn -0.012170 -0.999917 0.004165
vn -0.776367 -0.069391 0.626450
vn -0.774890 -0.070175 0.628189
vn -0.566630 -0.160361 0.808217
vn -0.566630 -0.160361 0.808217
vn -0.741915 -0.171723 0.648131
vn -0.753242 -0.172173 0.634809
vn -0.921923 -0.184203 0.340774
vn -0.921923 -0.184203 0.340774
vn -0.007123 0.999972 0.002438
vn -0.007123 0.999972 0.002438
vn 0.000000 1.000000 0.000000
vn 0.000000 1.000000 0.000000
vn 0.927585 0.197066 -0.317414
vn 0.927587 0.197054 -0.317414
vn 0.927586 0.197061 -0.317414
vn 0.927585 0.197067 -0.317414
vn 0.927585 0.197067 -0.317414
vn 0.927599 0.196990 -0.317419
vn 0.000000 -1.000000 0.000000
vn 0.000000 -1.000000 0.000000
vn -0.000000 1.000000 -0.000000
vn 0.946138 0.000000 -0.323763
vn 0.946138 0.000000 -0.323763
vn 0.946138 0.000000 -0.323763
vn 0.000000 1.000000 0.000000
vn 0.000000 1.000000 0.000000
vn -0.946138 0.000000 0.323763
vn -0.946138 0.000000 0.323763
vn -0.946138 0.000000 0.323763
vn 0.244879 0.965926 -0.083796
vn 0.669056 0.707070 -0.228947
vn 0.669016 0.707112 -0.228933
vn 0.669011 0.707117 -0.228931
vn 0.913902 0.258811 -0.312731
vn 0.000000 1.000000 0.000000
vn 0.000000 1.000000 0.000000
vn 0.927584 0.197070 -0.317413
vn 0.927584 0.197070 -0.317413
vn 0.927597 0.197001 -0.317418
vn 0.000000 -1.000000 0.000000
vn 0.000000 -1.000000 0.000000
s 1
g pCube17
usemtl lambert2SG
f 134/511/1 8/512/2 9/513/3 133/514/4
s 2
f 146/541/5 12/542/6 13/543/7 145/544/8
s off
f 10/515/9 133/514/10 9/513/11 15/516/12 3/517/13 1/518/14 2/519/15 289/520/16 320/521/17
f 11/545/18 305/546/19 304/547/20 6/548/21 5/549/22 4/550/23 16/551/24 12/542/25 146/541/26
f 1/518/27 3/517/28 19/523/29 18/524/30
f 4/550/31 5/549/32 17/553/33 20/554/34
s 3
f 67/562/35 68/561/36 168/564/37 169/565/38
s 4
f 71/533/39 72/532/40 164/535/41 165/536/42
s 5
f 15/345/43 9/346/44 27/347/45 25/348/46
f 12/387/47 16/382/48 26/383/49 28/388/50
s 7
f 251/571/51 252/572/52 31/573/53 29/574/54
s 8
f 261/577/55 262/578/56 30/579/57 32/580/58
s 9
f 185/1/59 186/2/60 172/3/61 75/4/62
s 10
f 188/397/63 189/398/64 35/399/65 34/400/66
s 11
f 190/43/67 191/44/68 70/45/69 166/46/70
f 194/70/71 195/81/72 39/82/73 37/71/74
s 13
f 195/421/75 196/422/76 41/423/77 39/424/78
f 196/422/76 197/427/79 90/428/80 89/429/81 288/430/82 43/431/83 41/423/77
s 5
f 59/356/84 208/362/85 209/363/86 61/355/87
f 209/363/86 210/366/88 63/361/89 61/355/87
f 340/358/90 341/352/91 61/355/87 63/361/89
s 13
f 41/423/77 43/431/83 324/439/92 325/432/93
s 15
f 323/99/94 290/100/95 319/101/96 322/102/97
s 11
f 39/82/73 326/90/98 327/83/99 37/71/74
s 5
f 348/133/100 349/128/101 49/129/102 51/134/103
s 17
f 349/128/104 350/124/105 135/123/106 49/129/107
s 15
f 351/116/108 321/108/109 45/107/110 47/117/111
s 19
f 57/455/112 344/456/113 345/457/114 55/458/115
s 13
f 41/423/77 325/432/93 326/433/116 39/424/78
s 10
f 333/403/117 34/400/66 35/399/65 332/404/118
s 9
f 336/9/119 75/4/62 172/3/61 335/10/120
s 11
f 70/45/69 330/51/121 331/52/122 166/46/70
s 5
f 61/355/87 341/352/91 342/351/123 59/356/84
f 348/349/100 51/353/103 53/354/124 347/350/125
s 20
f 250/211/126 343/212/127 344/213/128 57/214/129
s 21
f 346/259/130 253/260/131 55/261/132 345/262/133
s 10
f 382/414/134 352/413/135 22/418/136 23/419/137
s 11
f 68/75/138 380/66/139 381/65/140 168/76/141
f 17/98/142 376/97/143 377/93/144 20/96/145
s 13
f 5/449/146 375/443/147 376/442/148 17/450/149
f 5/449/146 6/454/150 374/451/151 375/443/147
s 26
f 372/203/152 373/206/153 304/209/154 305/207/155
f 370/193/156 371/198/157 11/204/158 14/199/159
s 28
f 368/179/160 369/186/161 145/194/162 13/187/163
s 5
f 367/180/164 368/179/165 13/187/166 12/188/47
f 366/391/167 367/392/164 12/387/47 28/388/50
s 21
f 364/296/168 365/295/169 261/298/170 32/299/171
s 19
f 30/481/172 363/480/173 364/479/174 32/482/175
s 32
f 262/257/176 362/252/177 363/255/178 30/258/179
s 5
f 16/382/48 360/378/180 361/377/181 26/383/49
f 359/381/182 360/378/180 16/382/48 4/386/183
s 9
f 354/20/184 355/19/185 79/28/186 170/29/187
s 34
f 210/301/188 211/302/189 161/303/190 63/304/191
s 9
f 158/39/192 357/35/193 358/40/194 82/42/195
s 3
f 4/550/196 20/554/197 156/555/198 157/556/199
s 11
f 20/96/145 377/93/144 378/87/200 156/92/201
f 193/59/202 194/70/71 37/71/74 154/60/203
f 37/71/74 327/83/99 328/72/204 154/60/203
s 4
f 19/523/205 3/517/206 152/525/207 153/526/208
s 9
f 339/31/209 83/32/210 162/24/211 338/23/212
s 39
f 187/405/213 188/397/214 34/400/215 74/406/216
s 40
f 213/483/217 185/484/218 75/485/219 65/486/220
s 41
f 34/400/221 333/403/222 334/410/223 74/406/224
s 42
f 164/535/225 72/532/226 77/534/227 163/537/228
s 43
f 67/562/229 169/565/230 170/569/231 79/566/232
s 44
f 22/418/233 352/413/234 353/417/235 80/420/236
s 45
f 160/583/237 64/584/238 81/585/239 159/586/240
s 46
f 358/491/241 359/492/242 4/493/243 82/494/244
s 47
f 4/550/245 157/556/246 158/559/247 82/560/248
s 48
f 340/497/249 63/498/250 83/499/251 339/500/252
s 49
f 63/591/253 161/592/254 162/593/255 83/594/256
s 50
f 152/525/257 3/517/258 84/527/259 151/528/260
s 32
f 273/244/261 244/249/262 107/254/263 272/250/264
s 52
f 315/317/265 316/318/266 293/319/267 294/320/268
f 118/322/269 117/321/270 121/325/271 122/326/272
s 53
f 137/328/273 138/327/274 123/329/275 124/330/276
s 19
f 91/465/277 92/464/278 94/463/279 93/466/280
s 21
f 93/274/281 94/272/282 254/271/283 255/275/284
s 5
f 95/369/285 96/365/286 98/364/287 97/370/288
f 97/139/288 98/138/287 100/135/289 99/140/290
s 15
f 291/105/291 292/113/292 317/114/293 318/106/294
s 19
f 280/461/295 94/463/279 92/464/278 279/462/296
s 21
f 281/265/297 254/271/283 94/272/282 280/266/298
s 5
f 283/359/299 98/364/287 96/365/286 282/360/300
f 284/131/301 100/135/289 98/138/287 283/136/299
s 17
f 285/126/302 136/130/303 100/135/304 284/131/305
s 15
f 287/115/306 86/120/307 88/125/308 286/121/309
s 59
f 309/331/310 310/332/311 299/333/312 300/334/313
f 126/336/314 125/335/315 129/339/316 130/340/317
s 60
f 141/342/318 142/341/319 131/343/320 132/344/321
s 19
f 107/473/322 108/472/323 110/471/324 109/474/325
s 21
f 109/286/326 110/283/327 258/284/328 259/287/329
s 5
f 111/389/330 112/384/331 114/385/332 113/390/333
f 113/156/333 114/150/332 116/151/334 115/157/335
s 26
f 308/190/336 301/195/337 302/196/338 307/191/339
f 103/176/340 101/183/341 264/184/342 265/177/343
s 28
f 143/168/344 266/169/345 267/162/346 115/157/347
s 5
f 115/157/335 267/162/348 268/163/349 113/156/333
f 113/390/333 268/393/349 269/394/350 111/389/330
s 21
f 259/287/329 270/289/351 271/290/352 109/286/326
s 19
f 109/474/325 271/475/353 272/476/354 107/473/322
s 66
f 85/152/355 198/153/356 199/148/357 87/147/358
f 313/159/359 314/158/360 295/164/361 296/165/362
s 19
f 204/467/363 205/468/364 91/465/277 93/466/280
s 21
f 204/277/365 93/274/281 255/275/284 256/278/366
s 5
f 203/374/367 95/369/285 97/370/288 202/375/368
f 202/141/368 97/139/288 99/140/290 201/142/369
s 67
f 201/142/370 99/140/371 139/143/372 200/144/373
s 68
f 317/599/374 292/600/375 293/601/376 316/602/377
s off
f 89/429/378 90/428/379 120/437/380 119/438/381
s 69
f 295/613/382 314/614/383 315/615/384 294/616/385
s off
f 85/617/386 87/621/387 121/622/388 117/618/389
f 88/607/390 86/605/391 118/606/392 122/608/393
s 70
f 139/623/394 99/625/395 123/626/396 138/624/397
s off
f 99/503/398 100/504/399 124/505/400 123/506/401
s 71
f 100/611/402 136/610/403 137/609/404 124/612/405
s 72
f 311/627/406 298/628/407 299/629/408 310/630/409
s off
f 105/447/410 106/446/411 128/452/412 127/453/413
s 73
f 301/641/414 308/642/415 309/643/416 300/644/417
s off
f 101/645/418 103/649/419 129/650/420 125/646/421
f 104/635/422 102/633/423 126/634/424 130/636/425
s 74
f 143/651/426 115/653/427 131/654/428 142/652/429
s off
f 115/507/430 116/508/431 132/509/432 131/510/433
s 75
f 116/639/434 140/638/435 141/637/436 132/640/437
s 1
f 7/522/438 134/511/1 133/514/4 10/515/439
s 17
f 135/123/106 350/124/105 351/116/440 47/117/441
f 286/121/442 88/125/443 136/130/303 285/126/302
s 71
f 137/609/404 136/610/403 88/607/444 122/608/445
s 53
f 122/326/446 121/325/447 138/327/274 137/328/273
s 70
f 87/621/448 139/623/394 138/624/397 121/622/449
s 67
f 200/144/373 139/143/372 87/147/450 199/148/451
s 75
f 141/637/436 140/638/435 104/635/452 130/636/453
s 60
f 130/340/454 129/339/455 142/341/319 141/342/318
s 74
f 103/649/456 143/651/426 142/652/429 129/650/457
s 28
f 103/176/458 265/177/459 266/169/345 143/168/344
f 145/194/162 369/186/161 370/193/460 14/199/461
s 2
f 11/545/462 146/541/5 145/544/8 14/552/463
s 20
f 92/223/464 249/224/465 278/220/466 279/219/467
s 77
f 147/225/468 207/231/469 276/226/470 277/222/471
s 78
f 92/223/472 91/228/473 248/229/474 249/224/475
s 79
f 147/225/476 149/230/477 206/236/478 207/231/479
s 80
f 244/249/480 245/246/481 108/247/482 107/254/483
s 81
f 247/234/484 248/229/485 91/228/486 205/235/487
s 50
f 174/529/488 152/525/257 151/528/260 173/531/489
s 4
f 153/526/208 152/525/207 174/529/490 175/530/491
s 11
f 154/60/203 328/72/204 329/61/492 176/50/493
f 192/49/494 193/59/202 154/60/203 176/50/493
f 156/92/201 378/87/200 379/77/495 178/85/496
s 3
f 157/556/199 156/555/198 178/557/497 179/558/498
s 47
f 158/559/247 157/556/246 179/558/499 180/563/500
s 9
f 180/34/501 356/26/502 357/35/193 158/39/192
s 45
f 182/587/503 160/583/237 159/586/240 181/588/504
s 34
f 161/303/190 211/302/189 212/307/505 183/308/506
s 49
f 162/593/255 161/592/254 183/595/507 184/596/508
s 9
f 338/23/212 162/24/211 184/16/509 337/15/510
s 42
f 21/538/511 164/535/225 163/537/228 78/540/512
s 4
f 165/536/42 164/535/41 21/538/513 24/539/514
s 11
f 166/46/70 331/52/515 332/64/516 35/54/517
f 189/53/518 190/43/67 166/46/70 35/54/517
f 168/76/519 381/65/520 382/78/521 23/86/522
s 3
f 169/565/38 168/564/37 23/567/523 22/568/524
s 43
f 170/569/231 169/565/230 22/568/525 80/570/526
s 9
f 353/30/527 354/20/184 170/29/187 80/37/528
f 172/3/61 186/2/60 187/7/529 74/8/530
f 335/10/120 172/3/61 74/8/530 334/14/531
s 50
f 72/532/532 174/529/488 173/531/489 77/534/533
s 4
f 175/530/491 174/529/490 72/532/40 71/533/39
s 11
f 176/50/493 329/61/492 330/51/121 70/45/69
f 191/44/68 192/49/494 176/50/493 70/45/69
f 178/85/496 379/77/495 380/66/139 68/75/138
s 3
f 179/558/498 178/557/497 68/561/36 67/562/35
s 47
f 180/563/500 179/558/499 67/562/534 79/566/535
s 9
f 79/28/186 355/19/185 356/26/502 180/34/501
s 45
f 66/589/536 182/587/503 181/588/504 76/590/537
s 34
f 183/308/506 212/307/505 213/312/538 65/313/539
s 49
f 184/596/508 183/595/507 65/597/540 75/598/541
s 9
f 337/15/510 184/16/509 75/4/62 336/9/119
f 214/5/542 215/6/543 186/2/60 185/1/59
f 187/7/529 186/2/60 215/6/543 216/13/544
s 39
f 216/409/545 217/401/546 188/397/214 187/405/213
s 10
f 217/401/547 218/402/548 189/398/64 188/397/63
s 11
f 218/58/549 219/47/550 190/43/67 189/53/518
f 219/47/550 220/48/551 191/44/68 190/43/67
f 220/48/551 221/57/552 192/49/494 191/44/68
f 221/57/552 222/69/553 193/59/202 192/49/494
f 222/69/553 223/80/554 194/70/71 193/59/202
f 223/80/554 224/89/555 195/81/72 194/70/71
s 13
f 224/425/556 225/426/557 196/422/76 195/421/75
f 225/426/557 226/436/558 197/427/79 196/422/76
s 66
f 312/166/559 313/159/359 296/165/362 297/174/560
f 199/148/357 198/153/356 227/160/561 228/154/562
s 67
f 229/149/563 200/144/373 199/148/451 228/154/564
f 230/146/565 201/142/370 200/144/373 229/149/563
s 5
f 231/145/566 202/141/368 201/142/369 230/146/567
f 232/379/568 203/374/367 202/375/368 231/380/566
s 21
f 233/280/569 204/277/365 256/278/366 257/281/570
s 19
f 233/469/571 234/470/572 205/468/364 204/467/363
s 81
f 246/240/573 247/234/484 205/235/487 234/241/574
s 79
f 207/231/479 206/236/478 235/242/575 236/237/576
s 77
f 276/226/470 207/231/469 236/237/577 275/232/578
s 5
f 209/363/86 208/362/85 237/367/579 238/368/580
f 238/368/580 239/371/581 210/366/88 209/363/86
s 34
f 239/305/582 240/306/583 211/302/189 210/301/188
f 212/307/505 211/302/189 240/306/583 241/311/584
f 213/312/538 212/307/505 241/311/584 242/315/585
s 40
f 242/487/586 214/488/587 185/484/218 213/483/217
s 9
f 76/11/588 171/12/589 215/6/543 214/5/542
f 216/13/544 215/6/543 171/12/589 73/21/590
s 39
f 73/415/591 33/407/592 217/401/546 216/409/545
s 10
f 33/407/593 36/408/594 218/402/548 217/401/547
s 11
f 36/68/595 167/55/596 219/47/550 218/58/549
f 167/55/596 69/56/597 220/48/551 219/47/550
f 69/56/597 177/67/598 221/57/552 220/48/551
f 177/67/598 155/79/599 222/69/553 221/57/552
f 155/79/599 38/88/600 223/80/554 222/69/553
f 38/88/600 40/94/601 224/89/555 223/80/554
s 13
f 40/434/602 42/435/603 225/426/557 224/425/556
f 42/435/603 44/444/604 263/445/605 106/446/606 105/447/607 226/436/558 225/426/557
s 66
f 311/175/608 312/166/559 297/174/560 298/182/609
f 228/154/562 227/160/561 102/167/610 104/161/611
s 67
f 140/155/612 229/149/563 228/154/564 104/161/613
f 116/151/614 230/146/565 229/149/563 140/155/612
s 5
f 114/150/332 231/145/566 230/146/567 116/151/334
f 112/384/331 232/379/568 231/380/566 114/385/332
s 21
f 110/283/327 233/280/569 257/281/570 258/284/328
s 19
f 110/471/324 108/472/323 234/470/572 233/469/571
s 81
f 245/246/615 246/240/573 234/241/574 108/247/616
s 79
f 236/237/576 235/242/575 150/248/617 148/243/618
s 77
f 275/232/578 236/237/577 148/243/619 274/238/620
s 5
f 238/368/580 237/367/579 60/372/621 62/373/622
f 62/373/622 64/376/623 239/371/581 238/368/580
s 34
f 64/309/624 160/310/625 240/306/583 239/305/582
f 241/311/584 240/306/583 160/310/625 182/314/626
f 242/315/585 241/311/584 182/314/626 66/316/627
s 40
f 66/489/628 76/490/629 214/488/587 242/487/586
s 32
f 274/238/630 148/243/631 244/249/262 273/244/261
s 80
f 148/243/632 150/248/633 245/246/481 244/249/480
s 81
f 150/248/634 235/242/635 246/240/573 245/246/615
f 235/242/635 206/236/636 247/234/484 246/240/573
f 206/236/636 149/230/637 248/229/485 247/234/484
s 78
f 249/224/475 248/229/474 149/230/638 147/225/639
s 20
f 278/220/466 249/224/465 147/225/640 277/222/641
f 59/215/642 342/216/643 343/212/127 250/211/126
s 7
f 25/575/644 27/576/645 252/572/52 251/571/51
s 21
f 347/263/646 53/264/647 253/260/131 346/259/130
f 282/269/648 96/273/649 254/271/283 281/265/297
f 255/275/284 254/271/283 96/273/649 95/276/650
f 256/278/366 255/275/284 95/276/650 203/279/651
f 257/281/570 256/278/366 203/279/651 232/282/652
f 258/284/328 257/281/570 232/282/652 112/285/653
f 259/287/329 258/284/328 112/285/653 111/288/654
f 111/288/654 269/291/655 270/289/351 259/287/329
f 261/298/170 365/295/169 366/297/656 28/300/657
s 8
f 28/581/658 26/582/659 262/578/56 261/577/55
s 32
f 26/256/660 361/253/661 362/252/177 262/257/176
s 26
f 307/191/339 302/196/338 303/202/662 306/197/663
f 265/177/343 264/184/342 46/192/664 48/185/665
s 28
f 266/169/345 265/177/459 48/185/666 144/178/667
f 267/162/346 266/169/345 144/178/667 50/170/668
s 5
f 268/163/349 267/162/348 50/170/669 52/171/670
f 269/394/350 268/393/349 52/396/670 54/395/671
s 21
f 270/289/351 269/291/655 54/294/672 260/292/673
f 271/290/352 270/289/351 260/292/673 56/293/674
s 19
f 272/476/354 271/475/353 56/477/675 58/478/676
s 32
f 243/245/677 273/244/261 272/250/264 58/251/678
f 60/239/679 274/238/630 273/244/261 243/245/677
s 77
f 237/233/680 275/232/578 274/238/620 60/239/681
f 208/227/682 276/226/470 275/232/578 237/233/680
f 277/222/471 276/226/470 208/227/682 59/215/683
s 20
f 250/211/126 278/220/466 277/222/641 59/215/642
f 279/219/467 278/220/466 250/211/126 57/214/129
s 19
f 55/458/115 280/461/295 279/462/296 57/455/112
s 21
f 253/260/131 281/265/297 280/266/298 55/261/132
f 53/264/647 282/269/648 281/265/297 253/260/131
s 5
f 51/353/103 283/359/299 282/360/300 53/354/124
f 49/129/102 284/131/301 283/136/299 51/134/103
s 17
f 135/123/106 285/126/302 284/131/305 49/129/107
f 47/117/441 286/121/442 285/126/302 135/123/106
s 15
f 45/107/110 287/115/306 286/121/309 47/117/111
f 290/100/95 291/105/291 318/106/294 319/101/96
f 324/103/684 43/104/685 290/100/95 323/99/94
f 43/104/685 288/111/686 291/105/291 290/100/95
f 288/111/686 89/119/687 292/113/292 291/105/291
s 68
f 293/601/376 292/600/375 89/603/688 119/604/689
s 52
f 294/320/268 293/319/267 119/323/690 120/324/691
s 69
f 90/619/692 295/613/382 294/616/385 120/620/693
s 66
f 296/165/362 295/164/361 90/172/694 197/173/695
f 297/174/560 296/165/362 197/173/695 226/181/696
f 298/182/609 297/174/560 226/181/696 105/189/697
s 72
f 299/629/408 298/628/407 105/631/698 127/632/699
s 59
f 300/334/313 299/333/312 127/337/700 128/338/701
s 73
f 106/647/702 301/641/414 300/644/417 128/648/703
s 26
f 302/196/338 301/195/337 106/200/704 263/201/705
f 303/202/662 302/196/338 263/201/705 44/205/706
f 304/209/154 373/206/153 374/208/707 6/210/708
f 371/198/157 372/203/152 305/207/155 11/204/158
f 264/184/342 307/191/339 306/197/663 46/192/664
f 101/183/341 308/190/336 307/191/339 264/184/342
s 73
f 309/643/416 308/642/415 101/645/709 125/646/710
s 59
f 125/335/315 126/336/314 310/332/311 309/331/310
s 72
f 102/633/711 311/627/406 310/630/409 126/634/712
s 66
f 102/167/610 227/160/561 312/166/559 311/175/608
f 227/160/561 198/153/356 313/159/359 312/166/559
f 198/153/356 85/152/355 314/158/360 313/159/359
s 69
f 315/615/384 314/614/383 85/617/713 117/618/714
s 52
f 117/321/270 118/322/269 316/318/266 315/317/265
s 68
f 86/605/715 317/599/374 316/602/377 118/606/716
s 15
f 318/106/294 317/114/293 86/120/307 287/115/306
f 319/101/96 318/106/294 287/115/306 45/107/110
f 322/102/97 319/101/96 45/107/110 321/108/109
f 320/110/717 322/102/97 321/108/109 10/118/718
f 289/109/719 323/99/94 322/102/97 320/110/717
f 2/112/720 324/103/684 323/99/94 289/109/719
s 13
f 325/432/93 324/439/92 2/448/721 1/440/722
f 326/433/116 325/432/93 1/440/722 18/441/723
s 11
f 327/83/99 326/90/98 18/95/724 19/91/725
f 328/72/204 327/83/99 19/91/725 153/84/726
f 329/61/492 328/72/204 153/84/726 175/73/727
f 330/51/121 329/61/492 175/73/727 71/62/728
f 331/52/122 330/51/121 71/62/728 165/63/729
f 332/64/516 331/52/515 165/63/730 24/74/731
s 10
f 21/411/732 333/403/117 332/404/118 24/412/733
s 41
f 334/410/223 333/403/222 21/411/734 78/416/735
s 9
f 163/18/736 335/10/120 334/14/531 78/22/737
f 77/17/738 336/9/119 335/10/120 163/18/736
f 173/25/739 337/15/510 336/9/119 77/17/738
f 151/33/740 338/23/212 337/15/510 173/25/739
f 84/38/741 339/31/209 338/23/212 151/33/740
s 48
f 3/501/742 340/497/249 339/500/252 84/502/743
s 5
f 3/357/744 15/345/43 341/352/91 340/358/90
f 342/351/123 341/352/91 15/345/43 25/348/46
s 20
f 343/212/127 342/216/643 25/221/745 251/217/746
f 344/213/128 343/212/127 251/217/746 29/218/747
s 19
f 345/457/114 344/456/113 29/459/748 31/460/749
s 21
f 252/267/750 346/259/130 345/262/133 31/268/751
f 27/270/752 347/263/646 346/259/130 252/267/750
s 5
f 9/346/44 348/349/100 347/350/125 27/347/45
f 9/137/44 8/132/753 349/128/101 348/133/100
s 17
f 8/132/754 134/127/755 350/124/105 349/128/104
f 351/116/440 350/124/105 134/127/755 7/122/756
s 15
f 7/122/757 10/118/718 321/108/109 351/116/108
s 44
f 353/417/235 352/413/234 33/407/758 73/415/759
s 9
f 73/21/590 171/12/589 354/20/184 353/30/527
f 171/12/589 76/11/588 355/19/185 354/20/184
f 356/26/502 355/19/185 76/11/588 181/27/760
f 357/35/193 356/26/502 181/27/760 159/36/761
f 358/40/194 357/35/193 159/36/761 81/41/762
s 46
f 64/495/763 359/492/242 358/491/241 81/496/764
s 5
f 64/376/623 62/373/622 360/378/180 359/381/182
f 361/377/181 360/378/180 62/373/622 60/372/621
s 32
f 362/252/177 361/253/661 60/239/679 243/245/677
f 363/255/178 362/252/177 243/245/677 58/251/678
s 19
f 364/479/174 363/480/173 58/478/676 56/477/675
s 21
f 56/293/674 260/292/673 365/295/169 364/296/168
f 366/297/656 365/295/169 260/292/673 54/294/672
s 5
f 54/395/671 52/396/670 367/392/164 366/391/167
f 52/171/670 50/170/669 368/179/165 367/180/164
s 28
f 50/170/668 144/178/667 369/186/161 368/179/160
f 370/193/460 369/186/161 144/178/667 48/185/666
s 26
f 48/185/665 46/192/664 371/198/157 370/193/156
f 46/192/664 306/197/663 372/203/152 371/198/157
f 306/197/663 303/202/662 373/206/153 372/203/152
f 374/208/707 373/206/153 303/202/662 44/205/706
s 13
f 375/443/147 374/451/151 44/444/604 42/435/603
f 376/442/148 375/443/147 42/435/603 40/434/602
s 11
f 377/93/144 376/97/143 40/94/601 38/88/600
f 378/87/200 377/93/144 38/88/600 155/79/599
f 379/77/495 378/87/200 155/79/599 177/67/598
f 380/66/139 379/77/495 177/67/598 69/56/597
f 381/65/140 380/66/139 69/56/597 167/55/596
f 382/78/521 381/65/520 167/55/596 36/68/595
s 10
f 33/407/593 352/413/135 382/414/134 36/408/594
