# This file uses feet as units for non-parametric coordinates.

mtllib Shelf big.mtl
g default
v 191.778122 159.054840 268.786316
v 191.778122 163.042999 268.786316
v 30.156021 159.054840 268.786316
v 30.156021 163.042999 268.786316
v 30.156021 159.054840 227.515610
v 30.156021 163.042999 227.515610
v 191.778122 159.054840 227.515610
v 191.778122 163.042999 227.515610
v 187.640274 3.279078 232.492508
v 191.778122 3.274327 268.786316
v 187.640274 3.279078 227.515610
v 191.778122 3.274326 227.515610
v 191.778122 7.257765 268.786316
v 30.156021 3.269575 268.786316
v 30.156044 7.257757 268.786316
v 30.156021 3.269574 227.515610
v 30.156044 7.257756 227.515610
v 191.778122 7.257751 227.515610
v 187.119080 159.054840 268.786316
v 187.119080 163.042999 268.786316
v 187.119034 163.042999 227.515610
v 187.119034 159.054840 227.515610
v 186.509232 3.274172 268.786316
v 186.509232 7.257752 268.786316
v 186.509232 7.257751 227.515610
v 186.509232 3.274171 227.515610
v 35.693535 159.054840 227.515610
v 35.693535 163.042999 227.515610
v 35.693520 163.042999 268.786316
v 35.693520 159.054840 268.786316
v 36.024097 3.269745 227.515610
v 36.024120 7.257756 227.515610
v 36.024139 7.257757 268.786316
v 36.024117 3.269746 268.786316
v 31.920109 126.158203 267.170593
v 186.859039 126.158203 267.170593
v 31.920109 128.167053 267.170593
v 186.859039 128.167053 267.170593
v 31.920109 128.167053 229.889252
v 186.859039 128.167053 229.889252
v 31.920109 126.158203 229.889252
v 186.859039 126.158203 229.889252
v 33.837555 59.464005 267.170593
v 186.859039 59.464005 267.170593
v 33.837555 61.472847 267.170593
v 186.859039 61.472847 267.170593
v 33.837555 61.472847 229.889252
v 186.859039 61.472847 229.889252
v 33.837555 59.464005 229.889252
v 186.859039 59.464005 229.889252
vt 0.843341 0.682626
vt 0.843341 0.691131
vt 0.755328 0.691131
vt 0.755328 0.682626
vt 0.755328 0.358907
vt 0.843341 0.358907
vt 0.843341 0.350412
vt 0.755328 0.350412
vt 0.368322 0.674131
vt 0.280309 0.674131
vt 0.280309 0.350412
vt 0.368322 0.350412
vt 0.937115 0.682636
vt 0.937115 0.691141
vt 0.849102 0.691141
vt 0.849102 0.682636
vt 0.849102 0.358917
vt 0.937115 0.358917
vt 0.937115 0.350412
vt 0.849102 0.350412
vt 0.274548 0.674131
vt 0.186535 0.674131
vt 0.186535 0.350412
vt 0.274548 0.350412
vt 0.111856 0.756592
vt 0.111856 0.677087
vt 0.116140 0.677087
vt 0.116140 0.756592
vt 0.122836 0.756592
vt 0.122836 0.677087
vt 0.127120 0.677087
vt 0.127120 0.756592
vt 0.133816 0.756592
vt 0.133816 0.677087
vt 0.138100 0.677087
vt 0.138100 0.756592
vt 0.144796 0.756592
vt 0.144796 0.677087
vt 0.149081 0.677087
vt 0.149081 0.756592
vt 0.697468 0.011928
vt 0.785481 0.011928
vt 0.785481 0.334855
vt 0.697468 0.334855
vt 0.697468 0.001992
vt 0.785481 0.001992
vt 0.785481 0.346664
vt 0.697468 0.346664
vt 0.092761 0.350412
vt 0.180774 0.350412
vt 0.180774 0.673339
vt 0.092761 0.673339
vt 0.097215 0.677087
vt 0.106040 0.677087
vt 0.106040 0.765100
vt 0.097215 0.687700
vt 0.001870 0.677087
vt 0.089883 0.677087
vt 0.089883 0.998008
vt 0.001870 0.998008
vt 0.792630 0.013228
vt 0.880643 0.013228
vt 0.880643 0.334150
vt 0.792630 0.334150
vt 0.792630 0.001992
vt 0.880643 0.001992
vt 0.880643 0.346664
vt 0.792630 0.346664
vt 0.660017 0.680831
vt 0.660017 0.350412
vt 0.739522 0.350412
vt 0.739522 0.680831
vt 0.564706 0.680831
vt 0.564706 0.350412
vt 0.644211 0.350412
vt 0.644211 0.680831
vt 0.469395 0.676742
vt 0.469395 0.350412
vt 0.548900 0.350412
vt 0.548900 0.676742
vt 0.374083 0.676742
vt 0.374083 0.350412
vt 0.453589 0.350412
vt 0.453589 0.676742
vt 0.334095 0.011928
vt 0.342600 0.011928
vt 0.342600 0.334855
vt 0.334095 0.334855
vt 0.334095 0.001992
vt 0.342600 0.001992
vt 0.342600 0.346664
vt 0.334095 0.346664
vt 0.010376 0.013228
vt 0.010376 0.001992
vt 0.010376 0.346664
vt 0.010376 0.334150
vt 0.001881 0.001992
vt 0.001880 0.013228
vt 0.001871 0.334150
vt 0.001870 0.346664
vt 0.358266 0.334855
vt 0.349761 0.334855
vt 0.349761 0.011928
vt 0.358266 0.011928
vt 0.358266 0.346664
vt 0.349761 0.346664
vt 0.349761 0.001992
vt 0.358266 0.001992
vt 0.681985 0.334150
vt 0.681985 0.346664
vt 0.681985 0.001992
vt 0.681985 0.013228
vt 0.690490 0.346664
vt 0.690490 0.334150
vt 0.690480 0.013228
vt 0.690480 0.001992
vt 0.745283 0.680831
vt 0.745283 0.350412
vt 0.749567 0.350412
vt 0.749567 0.680831
vt 0.649972 0.680831
vt 0.649972 0.350412
vt 0.654256 0.350412
vt 0.654256 0.680831
vt 0.554661 0.676742
vt 0.554661 0.350412
vt 0.558945 0.350412
vt 0.558945 0.676742
vt 0.459350 0.676742
vt 0.459350 0.350412
vt 0.463634 0.350412
vt 0.463634 0.676742
vn 0.000000 0.000000 1.000000
vn 0.000000 0.000000 1.000000
vn 0.000000 0.000000 1.000000
vn 0.000000 0.000000 1.000000
vn 0.000000 0.000000 -1.000000
vn 0.000000 0.000000 -1.000000
vn 0.000000 0.000000 -1.000000
vn 0.000000 0.000000 -1.000000
vn 1.000000 0.000000 0.000000
vn 1.000000 0.000000 0.000000
vn 1.000000 0.000000 0.000000
vn 1.000000 0.000000 0.000000
vn 0.000000 1.000000 0.000000
vn 0.000000 1.000000 0.000000
vn 0.000000 1.000000 0.000000
vn 0.000000 1.000000 0.000000
vn 0.000000 -1.000000 0.000000
vn 0.000000 -1.000000 0.000000
vn 0.000000 -1.000000 0.000000
vn 0.000000 -1.000000 0.000000
vn -0.001148 -0.999999 0.000000
vn -0.001148 -0.999999 0.000000
vn -0.001148 -0.999999 0.000000
vn -0.001148 -0.999999 0.000000
vn 0.000000 0.000000 1.000000
vn 0.000000 0.000000 1.000000
vn 0.000000 0.000000 1.000000
vn 0.000000 0.000000 1.000000
vn 0.000000 0.000000 -1.000000
vn 0.000000 0.000000 -1.000000
vn 0.000000 0.000000 -1.000000
vn 0.000000 0.000000 -1.000000
vn 1.000000 0.000000 0.000000
vn 1.000000 0.000000 0.000000
vn 1.000000 0.000000 0.000000
vn 1.000000 0.000000 0.000000
vn 0.000000 1.000000 -0.000000
vn 0.000000 1.000000 -0.000000
vn 0.000000 1.000000 -0.000000
vn 0.000000 1.000000 -0.000000
vn 0.000029 -1.000000 0.000000
vn 0.000029 -1.000000 0.000000
vn 0.000029 -1.000000 0.000000
vn 0.000029 -1.000000 0.000000
vn 0.000000 0.000000 1.000000
vn 0.000000 0.000000 1.000000
vn 0.000000 1.000000 0.000000
vn 0.000000 1.000000 0.000000
vn 0.000000 0.000000 -1.000000
vn 0.000000 0.000000 -1.000000
vn -0.000001 0.000000 1.000000
vn -0.000001 0.000000 1.000000
vn -0.000000 0.000000 -1.000000
vn -0.000000 0.000000 -1.000000
vn 0.000029 -1.000000 0.000000
vn 0.000029 -1.000000 0.000000
vn -0.999992 0.004017 0.000001
vn -0.999992 0.004017 0.000001
vn -0.999992 0.004017 0.000001
vn -0.999992 0.004017 0.000001
vn 0.000000 0.000000 -1.000000
vn 0.000000 0.000000 -1.000000
vn 0.000000 0.000000 -1.000000
vn 0.000000 0.000000 -1.000000
vn 1.000000 0.000000 0.000000
vn 1.000000 0.000000 0.000000
vn 1.000000 0.000000 0.000000
vn 1.000000 0.000000 0.000000
vn 0.000000 0.000000 1.000000
vn 0.000000 0.000000 1.000000
vn 0.000000 0.000000 1.000000
vn 0.000000 0.000000 1.000000
vn 0.000000 0.000000 -1.000000
vn 0.000000 0.000000 -1.000000
vn 0.000000 1.000000 0.000000
vn 0.000000 1.000000 0.000000
vn 0.000000 0.000000 1.000000
vn 0.000000 0.000000 1.000000
vn -0.000000 0.000000 -1.000000
vn -0.000000 0.000000 -1.000000
vn 0.000000 0.000000 1.000000
vn 0.000000 0.000000 1.000000
vn 0.000029 -1.000000 0.000000
vn 0.000029 -1.000000 0.000000
vn -1.000000 0.000000 0.000000
vn -1.000000 0.000000 0.000000
vn -1.000000 0.000000 0.000000
vn -1.000000 0.000000 0.000000
vn -1.000000 0.000006 -0.000000
vn -1.000000 0.000006 -0.000000
vn -1.000000 0.000006 -0.000000
vn -1.000000 0.000006 -0.000000
vn 0.999998 0.002178 -0.000000
vn 0.999998 0.002178 -0.000000
vn 0.999998 0.002178 -0.000000
vn 0.999998 0.002178 -0.000000
vn 0.000000 0.000000 1.000000
vn 0.000000 0.000000 1.000000
vn 0.000000 0.000000 1.000000
vn 0.000000 0.000000 1.000000
vn -1.000000 -0.000000 0.000000
vn -1.000000 -0.000000 0.000000
vn -1.000000 -0.000000 0.000000
vn -1.000000 -0.000000 0.000000
vn 0.000000 0.000000 -1.000000
vn 0.000000 0.000000 -1.000000
vn 0.000000 0.000000 -1.000000
vn 0.000000 0.000000 -1.000000
vn 0.000000 0.000000 1.000000
vn 0.000000 0.000000 1.000000
vn 0.000000 0.000000 1.000000
vn 0.000000 0.000000 1.000000
vn 0.000000 1.000000 0.000000
vn 0.000000 1.000000 0.000000
vn 0.000000 1.000000 0.000000
vn 0.000000 1.000000 0.000000
vn 0.000000 0.000000 -1.000000
vn 0.000000 0.000000 -1.000000
vn 0.000000 0.000000 -1.000000
vn 0.000000 0.000000 -1.000000
vn 0.000000 -1.000000 0.000000
vn 0.000000 -1.000000 0.000000
vn 0.000000 -1.000000 0.000000
vn 0.000000 -1.000000 0.000000
vn 1.000000 0.000000 0.000000
vn 1.000000 0.000000 0.000000
vn 1.000000 0.000000 0.000000
vn 1.000000 0.000000 0.000000
vn -1.000000 0.000000 0.000000
vn -1.000000 0.000000 0.000000
vn -1.000000 0.000000 0.000000
vn -1.000000 0.000000 0.000000
vn 0.000000 0.000000 1.000000
vn 0.000000 0.000000 1.000000
vn 0.000000 0.000000 1.000000
vn 0.000000 0.000000 1.000000
vn 0.000000 1.000000 0.000000
vn 0.000000 1.000000 0.000000
vn 0.000000 1.000000 0.000000
vn 0.000000 1.000000 0.000000
vn 0.000000 0.000000 -1.000000
vn 0.000000 0.000000 -1.000000
vn 0.000000 0.000000 -1.000000
vn 0.000000 0.000000 -1.000000
vn 0.000000 -1.000000 0.000000
vn 0.000000 -1.000000 0.000000
vn 0.000000 -1.000000 0.000000
vn 0.000000 -1.000000 0.000000
vn 1.000000 0.000000 0.000000
vn 1.000000 0.000000 0.000000
vn 1.000000 0.000000 0.000000
vn 1.000000 0.000000 0.000000
vn -1.000000 0.000000 0.000000
vn -1.000000 0.000000 0.000000
vn -1.000000 0.000000 0.000000
vn -1.000000 0.000000 0.000000
s 1
g pCube30
usemtl initialShadingGroup
f 19/85/1 20/86/2 29/87/3 30/88/4
s 2
f 27/101/5 28/102/6 21/103/7 22/104/8
s off
f 7/1/9 8/2/10 2/3/11 1/4/12
s 3
f 20/41/13 21/42/14 28/43/15 29/44/16
s off
f 22/49/17 19/50/18 30/51/19 27/52/20
f 11/53/21 12/54/22 10/55/23 9/56/24
s 4
f 23/98/25 24/93/26 33/96/27 34/99/28
s 5
f 31/114/29 32/109/30 25/112/31 26/115/32
s off
f 12/7/33 18/6/34 13/5/35 10/8/36
f 24/57/37 25/58/38 32/59/39 33/60/40
s 6
f 26/61/41 23/62/42 34/63/43 31/64/44
s 1
f 1/89/45 2/90/46 20/86/2 19/85/1
s 3
f 2/45/47 8/46/48 21/42/14 20/41/13
s 2
f 22/104/8 21/103/7 8/107/49 7/108/50
s 4
f 10/97/51 13/94/52 24/93/26 23/98/25
s 5
f 26/115/32 25/112/31 18/111/53 12/116/54
s 6
f 12/65/55 10/66/56 23/62/42 26/61/41
s off
f 19/9/57 22/10/58 25/11/59 24/12/60
f 22/104/61 7/108/62 18/111/63 25/112/64
f 7/1/65 1/4/66 13/5/67 18/6/68
f 1/89/69 19/85/70 24/93/71 13/94/72
s 2
f 5/105/73 6/106/74 28/102/6 27/101/5
s 3
f 29/44/16 28/43/15 6/47/75 4/48/76
s 1
f 30/88/4 29/87/3 4/91/77 3/92/78
s 5
f 16/113/79 17/110/80 32/109/30 31/114/29
s 4
f 34/99/28 33/96/27 15/95/81 14/100/82
s 6
f 31/64/44 34/63/43 14/67/83 16/68/84
s off
f 3/13/85 4/14/86 6/15/87 5/16/88
f 14/19/89 15/18/90 17/17/91 16/20/92
f 27/21/93 30/22/94 33/23/95 32/24/96
f 30/88/97 3/92/98 15/95/99 33/96/100
f 3/13/101 5/16/102 17/17/103 15/18/104
f 5/105/105 27/101/106 32/109/107 17/110/108
f 35/117/109 36/118/110 38/119/111 37/120/112
f 37/69/113 38/70/114 40/71/115 39/72/116
f 39/121/117 40/122/118 42/123/119 41/124/120
f 41/73/121 42/74/122 36/75/123 35/76/124
f 36/25/125 42/26/126 40/27/127 38/28/128
f 41/29/129 35/30/130 37/31/131 39/32/132
f 43/125/133 44/126/134 46/127/135 45/128/136
f 45/77/137 46/78/138 48/79/139 47/80/140
f 47/129/141 48/130/142 50/131/143 49/132/144
f 49/81/145 50/82/146 44/83/147 43/84/148
f 44/33/149 50/34/150 48/35/151 46/36/152
f 49/37/153 43/38/154 45/39/155 47/40/156
