# This file uses centimeters as units for non-parametric coordinates.

mtllib barricade.mtl
g default
v 6.986192 2.136346 1.347883
v 6.924675 2.138479 1.347883
v 6.986192 2.136346 2.222802
v 6.924675 2.138479 2.222802
v 6.980022 1.958413 2.222802
v 6.918505 1.960546 2.222802
v 6.980022 1.958413 1.347883
v 6.918505 1.960546 1.347883
v 7.111609 2.136346 1.347883
v 7.050092 2.138479 1.347883
v 7.111609 2.136346 2.222802
v 7.050092 2.138479 2.222802
v 7.105439 1.958413 2.222802
v 7.043922 1.960546 2.222802
v 7.105439 1.958413 1.347883
v 7.043922 1.960546 1.347883
v 7.064897 0.534060 2.997526
v 7.144346 0.534060 2.992092
v 7.004715 0.564328 0.376787
v 7.084166 0.564328 0.371352
v 7.004632 0.280268 0.373357
v 7.084083 0.280268 0.367922
v 7.064814 0.250000 2.994096
v 7.144264 0.250000 2.988661
v 2.946917 2.452302 1.736632
v 2.946917 2.452302 1.841940
v 7.046222 2.482569 1.736632
v 7.046222 2.482569 1.841940
v 7.049655 2.198509 1.736632
v 7.049655 2.198509 1.841940
v 2.950350 2.168241 1.736632
v 2.950350 2.168241 1.841940
v 2.998306 0.129573 3.257318
v 3.065814 0.129573 3.257318
v 2.997663 2.132322 2.222178
v 3.066457 2.132322 2.222178
v 2.997663 2.225610 1.847468
v 3.066457 2.225610 1.847468
v 2.998306 -0.001916 3.001228
v 3.065814 -0.001916 3.001228
v 2.998306 2.469149 1.944723
v 3.065814 2.469149 1.944723
v 3.065814 2.468200 1.842896
v 2.998306 2.468200 1.842896
v 3.126795 2.136346 1.347883
v 3.065278 2.138479 1.347883
v 3.126795 2.136346 2.222802
v 3.065278 2.138479 2.222802
v 3.120625 1.958413 2.222802
v 3.059108 1.960546 2.222802
v 3.120625 1.958413 1.347883
v 3.059108 1.960546 1.347883
v 3.015756 0.136685 0.297125
v 2.948249 0.136685 0.297125
v 3.016400 2.139434 1.332266
v 2.947605 2.139434 1.332266
v 3.016400 2.232722 1.706975
v 2.947605 2.232722 1.706975
v 3.015756 0.005196 0.553216
v 2.948249 0.005196 0.553216
v 3.015756 2.476261 1.609721
v 2.948249 2.476261 1.609721
v 2.948249 2.475312 1.711548
v 3.015756 2.475312 1.711548
v 3.001378 2.136346 1.347883
v 2.939861 2.138479 1.347883
v 3.001378 2.136346 2.222802
v 2.939861 2.138479 2.222802
v 2.995208 1.958413 2.222802
v 2.933691 1.960546 2.222802
v 2.995208 1.958413 1.347883
v 2.933691 1.960546 1.347883
v 6.983120 0.129573 3.257318
v 7.050628 0.129573 3.257318
v 6.982477 2.132322 2.222178
v 7.051271 2.132322 2.222178
v 6.982477 2.225610 1.847468
v 7.051271 2.225610 1.847468
v 6.983120 -0.001916 3.001228
v 7.050628 -0.001916 3.001228
v 6.983120 2.469149 1.944723
v 7.050628 2.469149 1.944723
v 7.050628 2.468200 1.842896
v 6.983120 2.468200 1.842896
v 7.000571 0.136685 0.297125
v 6.933063 0.136685 0.297125
v 7.001214 2.139434 1.332266
v 6.932419 2.139434 1.332266
v 7.001214 2.232722 1.706975
v 6.932419 2.232722 1.706975
v 7.000571 0.005196 0.553216
v 6.933063 0.005196 0.553216
v 7.000571 2.476261 1.609721
v 6.933063 2.476261 1.609721
v 6.933063 2.475312 1.711548
v 7.000571 2.475312 1.711548
v 6.916653 0.534060 3.014484
v 6.996102 0.534060 3.009050
v 6.856472 0.564328 0.376787
v 6.935922 0.564328 0.371352
v 6.856389 0.280268 0.373357
v 6.935839 0.280268 0.367922
v 6.916570 0.250000 3.011054
v 6.996020 0.250000 3.005620
v 3.080082 0.534060 2.997526
v 3.159532 0.534060 2.992092
v 3.019901 0.564328 0.376787
v 3.099351 0.564328 0.371352
v 3.019818 0.280268 0.373357
v 3.099268 0.280268 0.367922
v 3.079999 0.250000 2.994096
v 3.159450 0.250000 2.988661
v 2.931838 0.534060 3.014484
v 3.011288 0.534060 3.009050
v 2.871657 0.564328 0.376787
v 2.951107 0.564328 0.371352
v 2.871574 0.280268 0.373357
v 2.951024 0.280268 0.367922
v 2.931755 0.250000 3.011054
v 3.011205 0.250000 3.005620
vt 0.521477 0.703983
vt 0.501093 0.703983
vt 0.501093 0.603753
vt 0.521477 0.603753
vt 0.527757 0.603753
vt 0.548140 0.603753
vt 0.548140 0.703983
vt 0.527757 0.703983
vt 0.601467 0.703983
vt 0.581084 0.703983
vt 0.581084 0.603753
vt 0.601467 0.603753
vt 0.607747 0.603753
vt 0.628131 0.603753
vt 0.628131 0.703983
vt 0.607747 0.703983
vt 0.527921 0.312641
vt 0.495380 0.312248
vt 0.498847 0.012019
vt 0.531389 0.012412
vt 0.539184 0.012412
vt 0.571725 0.012019
vt 0.575193 0.312248
vt 0.542651 0.312641
vt 0.897873 0.618526
vt 0.885809 0.618526
vt 0.885809 0.585984
vt 0.897873 0.585984
vt 0.904854 0.585984
vt 0.916918 0.585984
vt 0.916918 0.618526
vt 0.904854 0.618526
vt 0.670596 0.027082
vt 0.699934 0.012019
vt 0.832107 0.267202
vt 0.789181 0.256515
vt 0.832631 0.294993
vt 0.820966 0.295101
vt 0.957320 0.299002
vt 0.986657 0.314065
vt 0.868073 0.543498
vt 0.825147 0.554184
vt 0.836288 0.582084
vt 0.824623 0.581975
vt 0.681458 0.703754
vt 0.661074 0.703754
vt 0.661074 0.603524
vt 0.681458 0.603524
vt 0.687737 0.603524
vt 0.708121 0.603524
vt 0.708121 0.703754
vt 0.687737 0.703754
vt 0.656593 0.331604
vt 0.685930 0.316541
vt 0.818103 0.571724
vt 0.775177 0.561037
vt 0.818627 0.599515
vt 0.806962 0.599623
vt 0.621260 0.316771
vt 0.650597 0.331834
vt 0.532013 0.561267
vt 0.489087 0.571953
vt 0.500228 0.599853
vt 0.488563 0.599744
vt 0.761448 0.703754
vt 0.741064 0.703754
vt 0.741064 0.603524
vt 0.761448 0.603524
vt 0.767728 0.603524
vt 0.788111 0.603524
vt 0.788111 0.703754
vt 0.767728 0.703754
vt 0.320533 0.333547
vt 0.349870 0.318484
vt 0.482043 0.573667
vt 0.439117 0.562980
vt 0.482567 0.601457
vt 0.470902 0.601566
vt 0.285200 0.318714
vt 0.314537 0.333777
vt 0.195953 0.563209
vt 0.153026 0.573896
vt 0.164168 0.601796
vt 0.152503 0.601687
vt 0.013343 0.620759
vt 0.042680 0.605696
vt 0.174853 0.860879
vt 0.131927 0.850192
vt 0.175377 0.888670
vt 0.163712 0.888779
vt 0.315734 0.605696
vt 0.345071 0.620759
vt 0.226487 0.850192
vt 0.183560 0.860879
vt 0.194702 0.888779
vt 0.183036 0.888670
vt 0.261287 0.314583
vt 0.228745 0.314190
vt 0.232213 0.012019
vt 0.264754 0.012412
vt 0.272549 0.012412
vt 0.305091 0.012019
vt 0.308558 0.314190
vt 0.276017 0.314583
vt 0.615530 0.312641
vt 0.582988 0.312248
vt 0.586455 0.012019
vt 0.618997 0.012412
vt 0.626792 0.012412
vt 0.659334 0.012019
vt 0.662801 0.312248
vt 0.630260 0.312641
vt 0.348895 0.314583
vt 0.316354 0.314190
vt 0.319821 0.012019
vt 0.352363 0.012412
vt 0.360158 0.012412
vt 0.392699 0.012019
vt 0.396167 0.314190
vt 0.363625 0.314583
vt 0.481477 0.705696
vt 0.474430 0.705696
vt 0.474430 0.605467
vt 0.481477 0.605467
vt 0.494809 0.703983
vt 0.487761 0.703983
vt 0.487761 0.603754
vt 0.494809 0.603754
vt 0.561467 0.703983
vt 0.554420 0.703983
vt 0.554420 0.603753
vt 0.561467 0.603753
vt 0.574799 0.703983
vt 0.567752 0.703983
vt 0.567752 0.603754
vt 0.574799 0.603754
vt 0.410856 0.012019
vt 0.419958 0.012642
vt 0.413064 0.312870
vt 0.403962 0.312248
vt 0.426816 0.012642
vt 0.435918 0.012019
vt 0.442812 0.312248
vt 0.433711 0.312870
vt 0.111301 0.481631
vt 0.099237 0.481631
vt 0.099237 0.012019
vt 0.111301 0.012019
vt 0.118282 0.012019
vt 0.130346 0.012019
vt 0.130346 0.481631
vt 0.118282 0.481631
vt 0.794465 0.635309
vt 0.802198 0.635309
vt 0.802198 0.646974
vt 0.794465 0.646974
vt 0.794391 0.603524
vt 0.802272 0.603524
vt 0.948710 0.622427
vt 0.956444 0.622427
vt 0.956444 0.651764
vt 0.948710 0.651764
vt 0.641458 0.703983
vt 0.634410 0.703983
vt 0.634410 0.603753
vt 0.641458 0.603753
vt 0.654790 0.703983
vt 0.647742 0.703983
vt 0.647742 0.603754
vt 0.654790 0.603754
vt 0.817435 0.615189
vt 0.809701 0.615189
vt 0.809701 0.603524
vt 0.817435 0.603524
vt 0.817508 0.646974
vt 0.809627 0.646974
vt 0.942715 0.651764
vt 0.934981 0.651764
vt 0.934981 0.622427
vt 0.942715 0.622427
vt 0.721448 0.703754
vt 0.714401 0.703754
vt 0.714401 0.603524
vt 0.721448 0.603524
vt 0.734780 0.703754
vt 0.727732 0.703754
vt 0.727732 0.603524
vt 0.734780 0.603524
vt 0.824937 0.617769
vt 0.832671 0.617769
vt 0.832671 0.629435
vt 0.824937 0.629435
vt 0.824864 0.585984
vt 0.832745 0.585984
vt 0.921252 0.622427
vt 0.928986 0.622427
vt 0.928986 0.651764
vt 0.921252 0.651764
vt 0.847907 0.597650
vt 0.840174 0.597650
vt 0.840174 0.585984
vt 0.847907 0.585984
vt 0.847981 0.629435
vt 0.840100 0.629435
vt 0.915257 0.651764
vt 0.907523 0.651764
vt 0.907523 0.622427
vt 0.915257 0.622427
vt 0.144222 0.012019
vt 0.153323 0.012642
vt 0.146429 0.314813
vt 0.137328 0.314190
vt 0.160182 0.012642
vt 0.169284 0.012019
vt 0.176178 0.314190
vt 0.167076 0.314813
vt 0.456565 0.012019
vt 0.465667 0.012642
vt 0.458773 0.312870
vt 0.449671 0.312248
vt 0.472525 0.012642
vt 0.481627 0.012019
vt 0.488521 0.312248
vt 0.479419 0.312870
vt 0.189931 0.012019
vt 0.199032 0.012642
vt 0.192138 0.314813
vt 0.183036 0.314190
vt 0.205891 0.012642
vt 0.214993 0.012019
vt 0.221887 0.314190
vt 0.212785 0.314813
vt 0.901528 0.642810
vt 0.894480 0.643055
vt 0.893774 0.622671
vt 0.900821 0.622427
vt 0.887072 0.643055
vt 0.880024 0.642810
vt 0.880731 0.622427
vt 0.887778 0.622671
vt 0.874029 0.642810
vt 0.866981 0.643055
vt 0.866275 0.622671
vt 0.873322 0.622427
vt 0.859572 0.653963
vt 0.852525 0.653719
vt 0.853232 0.633335
vt 0.860279 0.633580
vt 0.855345 0.585984
vt 0.864447 0.585984
vt 0.864438 0.618526
vt 0.855336 0.618526
vt 0.870572 0.585984
vt 0.879674 0.585984
vt 0.879683 0.618526
vt 0.870582 0.618526
vt 0.045884 0.482024
vt 0.013343 0.481631
vt 0.016810 0.012019
vt 0.049352 0.012412
vt 0.091442 0.481631
vt 0.058900 0.482024
vt 0.055433 0.012412
vt 0.087974 0.012019
vt 0.413559 0.605467
vt 0.421292 0.605467
vt 0.421366 0.834899
vt 0.413485 0.834899
vt 0.352540 0.633257
vt 0.360421 0.633257
vt 0.360347 0.888440
vt 0.352614 0.888440
vt 0.352614 0.605467
vt 0.360347 0.605467
vt 0.846530 0.653719
vt 0.839482 0.653963
vt 0.838776 0.633579
vt 0.845823 0.633335
vt 0.832073 0.653963
vt 0.825026 0.653719
vt 0.825733 0.633335
vt 0.832780 0.633580
vt 0.436528 0.834899
vt 0.428795 0.834899
vt 0.428721 0.605467
vt 0.436602 0.605467
vt 0.375657 0.860649
vt 0.367776 0.860649
vt 0.367850 0.605467
vt 0.375583 0.605467
vt 0.375583 0.888440
vt 0.367850 0.888440
vt 0.819030 0.671258
vt 0.811983 0.671503
vt 0.811276 0.651119
vt 0.818324 0.650875
vt 0.804574 0.671503
vt 0.797527 0.671258
vt 0.798233 0.650875
vt 0.805281 0.651119
vt 0.444031 0.605467
vt 0.451765 0.605467
vt 0.451838 0.834899
vt 0.443957 0.834899
vt 0.383012 0.633257
vt 0.390893 0.633257
vt 0.390820 0.888440
vt 0.383086 0.888440
vt 0.383086 0.605467
vt 0.390820 0.605467
vt 0.467001 0.834899
vt 0.459267 0.834899
vt 0.459193 0.605467
vt 0.467075 0.605467
vt 0.406130 0.860649
vt 0.398248 0.860649
vt 0.398322 0.605467
vt 0.406056 0.605467
vt 0.406056 0.888440
vt 0.398322 0.888440
vt 0.923909 0.585984
vt 0.933010 0.585984
vt 0.933001 0.618526
vt 0.923899 0.618526
vt 0.939135 0.585984
vt 0.948237 0.585984
vt 0.948247 0.618526
vt 0.939145 0.618526
vt 0.954381 0.585984
vt 0.963483 0.585984
vt 0.963473 0.618526
vt 0.954372 0.618526
vt 0.969608 0.585984
vt 0.978710 0.585984
vt 0.978719 0.618526
vt 0.969618 0.618526
vt 0.977556 0.622427
vt 0.986657 0.622427
vt 0.986648 0.654968
vt 0.977546 0.654968
vt 0.962439 0.622427
vt 0.971541 0.622427
vt 0.971551 0.654968
vt 0.962449 0.654968
vn 0.034655 0.999399 0.000000
vn 0.034655 0.999399 0.000000
vn 0.034655 0.999399 0.000000
vn 0.034655 0.999399 0.000000
vn 0.000000 0.000000 1.000000
vn 0.000000 0.000000 1.000000
vn 0.000000 0.000000 1.000000
vn 0.000000 0.000000 1.000000
vn -0.034655 -0.999399 0.000000
vn -0.034655 -0.999399 0.000000
vn -0.034655 -0.999399 0.000000
vn -0.034655 -0.999399 0.000000
vn 0.000000 0.000000 -1.000000
vn 0.000000 0.000000 -1.000000
vn 0.000000 0.000000 -1.000000
vn 0.000000 0.000000 -1.000000
vn -0.999399 0.034655 0.000000
vn -0.999399 0.034655 0.000000
vn -0.999399 0.034655 0.000000
vn -0.999399 0.034655 0.000000
vn 0.999399 -0.034655 0.000000
vn 0.999399 -0.034655 0.000000
vn 0.999399 -0.034655 0.000000
vn 0.999399 -0.034655 0.000000
vn 0.034655 0.999399 0.000000
vn 0.034655 0.999399 0.000000
vn 0.034655 0.999399 0.000000
vn 0.034655 0.999399 0.000000
vn 0.000000 0.000000 1.000000
vn 0.000000 0.000000 1.000000
vn 0.000000 0.000000 1.000000
vn 0.000000 0.000000 1.000000
vn -0.034655 -0.999399 0.000000
vn -0.034655 -0.999399 0.000000
vn -0.034655 -0.999399 0.000000
vn -0.034655 -0.999399 0.000000
vn 0.000000 0.000000 -1.000000
vn 0.000000 0.000000 -1.000000
vn 0.000000 0.000000 -1.000000
vn 0.000000 0.000000 -1.000000
vn -0.999399 0.034652 0.000000
vn -0.999399 0.034652 0.000000
vn -0.999399 0.034652 0.000000
vn -0.999399 0.034652 0.000000
vn 0.999399 -0.034652 0.000000
vn 0.999399 -0.034652 0.000000
vn 0.999399 -0.034652 0.000000
vn 0.999399 -0.034652 0.000000
vn 0.000789 0.999933 0.011530
vn 0.000789 0.999933 0.011530
vn 0.000789 0.999933 0.011530
vn 0.000789 0.999933 0.011530
vn -0.068239 0.012067 -0.997596
vn -0.068239 0.012067 -0.997596
vn -0.068239 0.012067 -0.997596
vn -0.068239 0.012067 -0.997596
vn -0.000789 -0.999933 -0.011530
vn -0.000789 -0.999933 -0.011530
vn -0.000789 -0.999933 -0.011530
vn -0.000789 -0.999933 -0.011530
vn 0.068236 -0.012067 0.997596
vn 0.068236 -0.012067 0.997596
vn 0.068236 -0.012067 0.997596
vn 0.068236 -0.012067 0.997596
vn 0.999736 -0.000013 -0.022957
vn 0.999736 -0.000013 -0.022957
vn 0.999736 -0.000013 -0.022957
vn 0.999737 -0.000013 -0.022957
vn -0.999736 0.000015 0.022958
vn -0.999736 0.000015 0.022958
vn -0.999737 0.000015 0.022958
vn -0.999737 0.000015 0.022958
vn -0.007383 0.999973 0.000000
vn -0.007383 0.999973 0.000000
vn -0.007383 0.999973 0.000000
vn -0.007383 0.999973 0.000000
vn 0.999927 0.012086 0.000000
vn 0.999927 0.012086 0.000000
vn 0.999927 0.012086 0.000000
vn 0.999927 0.012086 0.000000
vn 0.007383 -0.999973 0.000000
vn 0.007383 -0.999973 0.000000
vn 0.007383 -0.999973 0.000000
vn 0.007383 -0.999973 0.000000
vn -0.999927 -0.012085 0.000000
vn -0.999927 -0.012085 0.000000
vn -0.999927 -0.012085 0.000000
vn -0.999927 -0.012085 0.000000
vn 0.000000 0.000000 1.000000
vn 0.000000 0.000000 1.000000
vn 0.000000 0.000000 1.000000
vn 0.000000 0.000000 1.000000
vn -0.000000 0.000000 -1.000000
vn -0.000000 0.000000 -1.000000
vn -0.000000 0.000000 -1.000000
vn -0.000000 0.000000 -1.000000
vn 0.000000 0.459156 0.888356
vn 0.000000 0.459156 0.888356
vn 0.000000 0.459156 0.888356
vn 0.000000 0.459156 0.888356
vn 0.000000 0.999957 -0.009319
vn 0.000000 0.999957 -0.009319
vn 0.000000 0.999957 -0.009319
vn 0.000000 0.999957 -0.009319
vn 0.000000 -0.459923 -0.887959
vn 0.000000 -0.459923 -0.887959
vn 0.000000 -0.459923 -0.887959
vn 0.000000 -0.459923 -0.887959
vn 0.000000 -0.889591 0.456759
vn 0.000000 -0.889591 0.456759
vn 0.000000 -0.889591 0.456759
vn 0.000000 -0.889591 0.456759
vn 1.000000 -0.000295 0.000018
vn 1.000000 -0.000295 0.000018
vn 1.000000 -0.000295 0.000018
vn 1.000000 -0.000295 0.000018
vn -1.000000 -0.000295 0.000018
vn -1.000000 -0.000295 0.000018
vn -1.000000 -0.000295 0.000018
vn -1.000000 -0.000295 0.000018
vn 0.000000 0.635800 0.771854
vn 0.000000 0.635800 0.771854
vn 0.000000 0.635800 0.771854
vn 0.000000 0.635800 0.771854
vn 0.999997 0.002453 0.000475
vn 0.999997 0.002453 0.000475
vn 0.999997 0.002453 0.000475
vn 0.999997 0.002453 0.000475
vn 0.000000 -0.018847 -0.999822
vn 0.000000 -0.018847 -0.999822
vn 0.000000 -0.018847 -0.999822
vn 0.000000 -0.018847 -0.999822
vn -0.999997 0.002453 0.000475
vn -0.999997 0.002453 0.000475
vn -0.999997 0.002453 0.000475
vn -0.999997 0.002453 0.000475
vn 0.034655 0.999399 0.000000
vn 0.034655 0.999399 0.000000
vn 0.034655 0.999399 0.000000
vn 0.034655 0.999399 0.000000
vn 0.000000 0.000000 1.000000
vn 0.000000 0.000000 1.000000
vn 0.000000 0.000000 1.000000
vn 0.000000 0.000000 1.000000
vn -0.034655 -0.999399 0.000000
vn -0.034655 -0.999399 0.000000
vn -0.034655 -0.999399 0.000000
vn -0.034655 -0.999399 0.000000
vn 0.000000 0.000000 -1.000000
vn 0.000000 0.000000 -1.000000
vn 0.000000 0.000000 -1.000000
vn 0.000000 0.000000 -1.000000
vn -0.999399 0.034655 0.000000
vn -0.999399 0.034655 0.000000
vn -0.999399 0.034655 0.000000
vn -0.999399 0.034655 0.000000
vn 0.999399 -0.034655 0.000000
vn 0.999399 -0.034655 0.000000
vn 0.999399 -0.034655 0.000000
vn 0.999399 -0.034655 0.000000
vn 0.000000 0.459156 -0.888356
vn 0.000000 0.459156 -0.888356
vn 0.000000 0.459156 -0.888356
vn 0.000000 0.459156 -0.888356
vn 0.000000 0.999957 0.009319
vn 0.000000 0.999957 0.009319
vn 0.000000 0.999957 0.009319
vn 0.000000 0.999957 0.009319
vn 0.000000 -0.459924 0.887959
vn 0.000000 -0.459924 0.887959
vn 0.000000 -0.459924 0.887958
vn 0.000000 -0.459924 0.887958
vn 0.000000 -0.889591 -0.456759
vn 0.000000 -0.889591 -0.456759
vn 0.000000 -0.889591 -0.456759
vn 0.000000 -0.889591 -0.456759
vn -1.000000 -0.000295 -0.000018
vn -1.000000 -0.000295 -0.000018
vn -1.000000 -0.000295 -0.000018
vn -1.000000 -0.000295 -0.000018
vn 1.000000 -0.000295 -0.000018
vn 1.000000 -0.000295 -0.000018
vn 1.000000 -0.000295 -0.000018
vn 1.000000 -0.000295 -0.000018
vn 0.000000 0.635801 -0.771853
vn 0.000000 0.635801 -0.771853
vn 0.000000 0.635801 -0.771853
vn 0.000000 0.635801 -0.771853
vn -0.999997 0.002454 -0.000475
vn -0.999997 0.002454 -0.000475
vn -0.999997 0.002454 -0.000475
vn -0.999997 0.002454 -0.000475
vn 0.000000 -0.018847 0.999822
vn 0.000000 -0.018847 0.999822
vn 0.000000 -0.018847 0.999822
vn 0.000000 -0.018847 0.999822
vn 0.999997 0.002454 -0.000475
vn 0.999997 0.002454 -0.000475
vn 0.999997 0.002454 -0.000475
vn 0.999997 0.002454 -0.000475
vn 0.034655 0.999399 0.000000
vn 0.034655 0.999399 0.000000
vn 0.034655 0.999399 0.000000
vn 0.034655 0.999399 0.000000
vn 0.000000 0.000000 1.000000
vn 0.000000 0.000000 1.000000
vn 0.000000 0.000000 1.000000
vn 0.000000 0.000000 1.000000
vn -0.034655 -0.999399 0.000000
vn -0.034655 -0.999399 0.000000
vn -0.034655 -0.999399 0.000000
vn -0.034655 -0.999399 0.000000
vn 0.000000 0.000000 -1.000000
vn 0.000000 0.000000 -1.000000
vn 0.000000 0.000000 -1.000000
vn 0.000000 0.000000 -1.000000
vn -0.999399 0.034655 0.000000
vn -0.999399 0.034655 0.000000
vn -0.999399 0.034655 0.000000
vn -0.999399 0.034655 0.000000
vn 0.999399 -0.034655 0.000000
vn 0.999399 -0.034655 0.000000
vn 0.999399 -0.034655 0.000000
vn 0.999399 -0.034655 0.000000
vn 0.000000 0.459152 0.888358
vn 0.000000 0.459152 0.888358
vn 0.000000 0.459152 0.888358
vn 0.000000 0.459152 0.888358
vn 0.000000 0.999957 -0.009319
vn 0.000000 0.999957 -0.009319
vn 0.000000 0.999957 -0.009319
vn 0.000000 0.999957 -0.009319
vn 0.000000 -0.459917 -0.887962
vn 0.000000 -0.459917 -0.887962
vn 0.000000 -0.459917 -0.887962
vn 0.000000 -0.459917 -0.887962
vn 0.000000 -0.889591 0.456759
vn 0.000000 -0.889591 0.456759
vn 0.000000 -0.889591 0.456759
vn 0.000000 -0.889591 0.456759
vn 1.000000 -0.000296 0.000018
vn 1.000000 -0.000296 0.000018
vn 1.000000 -0.000296 0.000018
vn 1.000000 -0.000296 0.000018
vn -1.000000 -0.000295 0.000018
vn -1.000000 -0.000295 0.000018
vn -1.000000 -0.000295 0.000018
vn -1.000000 -0.000295 0.000018
vn 0.000000 0.635799 0.771855
vn 0.000000 0.635799 0.771855
vn 0.000000 0.635799 0.771855
vn 0.000000 0.635799 0.771855
vn 0.999997 0.002452 0.000475
vn 0.999997 0.002452 0.000475
vn 0.999997 0.002452 0.000475
vn 0.999997 0.002452 0.000475
vn 0.000000 -0.018847 -0.999822
vn 0.000000 -0.018847 -0.999822
vn 0.000000 -0.018847 -0.999822
vn 0.000000 -0.018847 -0.999822
vn -0.999997 0.002453 0.000475
vn -0.999997 0.002453 0.000475
vn -0.999997 0.002453 0.000475
vn -0.999997 0.002453 0.000475
vn 0.000000 0.459157 -0.888355
vn 0.000000 0.459157 -0.888355
vn 0.000000 0.459157 -0.888355
vn 0.000000 0.459157 -0.888355
vn 0.000000 0.999957 0.009316
vn 0.000000 0.999957 0.009316
vn 0.000000 0.999957 0.009316
vn 0.000000 0.999957 0.009316
vn 0.000000 -0.459923 0.887959
vn 0.000000 -0.459923 0.887959
vn 0.000000 -0.459923 0.887959
vn 0.000000 -0.459923 0.887959
vn 0.000000 -0.889592 -0.456756
vn 0.000000 -0.889592 -0.456756
vn 0.000000 -0.889592 -0.456756
vn 0.000000 -0.889592 -0.456756
vn -1.000000 -0.000296 -0.000018
vn -1.000000 -0.000296 -0.000018
vn -1.000000 -0.000296 -0.000018
vn -1.000000 -0.000296 -0.000018
vn 1.000000 -0.000294 -0.000018
vn 1.000000 -0.000294 -0.000018
vn 1.000000 -0.000294 -0.000018
vn 1.000000 -0.000294 -0.000018
vn 0.000000 0.635801 -0.771853
vn 0.000000 0.635801 -0.771853
vn 0.000000 0.635801 -0.771853
vn 0.000000 0.635801 -0.771853
vn -0.999997 0.002456 -0.000475
vn -0.999997 0.002456 -0.000475
vn -0.999997 0.002456 -0.000475
vn -0.999997 0.002456 -0.000475
vn 0.000000 -0.018847 0.999822
vn 0.000000 -0.018847 0.999822
vn 0.000000 -0.018847 0.999822
vn 0.000000 -0.018847 0.999822
vn 0.999997 0.002450 -0.000475
vn 0.999997 0.002450 -0.000475
vn 0.999997 0.002450 -0.000475
vn 0.999997 0.002450 -0.000475
vn 0.000784 0.999934 0.011456
vn 0.000784 0.999934 0.011456
vn 0.000784 0.999934 0.011456
vn 0.000784 0.999934 0.011456
vn -0.068239 0.012066 -0.997596
vn -0.068239 0.012066 -0.997596
vn -0.068239 0.012066 -0.997596
vn -0.068239 0.012066 -0.997596
vn -0.000784 -0.999934 -0.011456
vn -0.000784 -0.999934 -0.011456
vn -0.000784 -0.999934 -0.011456
vn -0.000784 -0.999934 -0.011456
vn 0.068239 -0.012067 0.997596
vn 0.068239 -0.012067 0.997596
vn 0.068239 -0.012067 0.997596
vn 0.068239 -0.012067 0.997596
vn 0.999740 -0.000015 -0.022810
vn 0.999740 -0.000015 -0.022810
vn 0.999740 -0.000015 -0.022810
vn 0.999740 -0.000015 -0.022810
vn -0.999740 0.000015 0.022810
vn -0.999740 0.000015 0.022810
vn -0.999740 0.000015 0.022810
vn -0.999740 0.000015 0.022810
vn 0.000789 0.999933 0.011530
vn 0.000789 0.999933 0.011530
vn 0.000789 0.999933 0.011530
vn 0.000789 0.999933 0.011530
vn -0.068239 0.012067 -0.997596
vn -0.068239 0.012067 -0.997596
vn -0.068239 0.012067 -0.997596
vn -0.068239 0.012067 -0.997596
vn -0.000789 -0.999933 -0.011530
vn -0.000789 -0.999933 -0.011530
vn -0.000789 -0.999933 -0.011530
vn -0.000789 -0.999933 -0.011530
vn 0.068236 -0.012067 0.997596
vn 0.068236 -0.012067 0.997596
vn 0.068236 -0.012067 0.997596
vn 0.068236 -0.012067 0.997596
vn 0.999736 -0.000013 -0.022957
vn 0.999736 -0.000013 -0.022957
vn 0.999736 -0.000013 -0.022957
vn 0.999737 -0.000013 -0.022957
vn -0.999736 0.000015 0.022957
vn -0.999736 0.000015 0.022957
vn -0.999737 0.000015 0.022957
vn -0.999736 0.000015 0.022957
vn 0.000784 0.999934 0.011456
vn 0.000784 0.999934 0.011456
vn 0.000784 0.999934 0.011456
vn 0.000784 0.999934 0.011456
vn -0.068239 0.012067 -0.997596
vn -0.068239 0.012067 -0.997596
vn -0.068239 0.012067 -0.997596
vn -0.068239 0.012067 -0.997596
vn -0.000784 -0.999934 -0.011456
vn -0.000784 -0.999934 -0.011456
vn -0.000784 -0.999934 -0.011456
vn -0.000784 -0.999934 -0.011456
vn 0.068239 -0.012067 0.997596
vn 0.068239 -0.012067 0.997596
vn 0.068239 -0.012067 0.997596
vn 0.068239 -0.012067 0.997596
vn 0.999740 -0.000015 -0.022810
vn 0.999740 -0.000015 -0.022810
vn 0.999740 -0.000015 -0.022810
vn 0.999740 -0.000015 -0.022810
vn -0.999740 0.000017 0.022810
vn -0.999740 0.000017 0.022810
vn -0.999740 0.000017 0.022810
vn -0.999740 0.000017 0.022810
s off
g pCube20
usemtl initialShadingGroup
f 1/121/1 2/122/2 4/123/3 3/124/4
f 3/233/5 4/234/6 6/235/7 5/236/8
f 5/125/9 6/126/10 8/127/11 7/128/12
f 7/237/13 8/238/14 2/239/15 1/240/16
f 2/1/17 8/2/18 6/3/19 4/4/20
f 7/5/21 1/6/22 3/7/23 5/8/24
f 9/129/25 10/130/26 12/131/27 11/132/28
f 11/241/29 12/242/30 14/243/31 13/244/32
f 13/133/33 14/134/34 16/135/35 15/136/36
f 15/245/37 16/246/38 10/247/39 9/248/40
f 10/9/41 16/10/42 14/11/43 12/12/44
f 15/13/45 9/14/46 11/15/47 13/16/48
f 17/137/49 18/138/50 20/139/51 19/140/52
f 19/249/53 20/250/54 22/251/55 21/252/56
f 21/141/57 22/142/58 24/143/59 23/144/60
f 23/253/61 24/254/62 18/255/63 17/256/64
f 18/17/65 24/18/66 22/19/67 20/20/68
f 23/21/69 17/22/70 19/23/71 21/24/72
f 25/145/73 26/146/74 28/147/75 27/148/76
f 27/25/77 28/26/78 30/27/79 29/28/80
f 29/149/81 30/150/82 32/151/83 31/152/84
f 31/29/85 32/30/86 26/31/87 25/32/88
f 26/257/89 32/258/90 30/259/91 28/260/92
f 31/261/93 25/262/94 27/263/95 29/264/96
f 33/265/97 34/266/98 36/267/99 35/268/100
f 41/153/101 42/154/102 43/155/103 44/156/104
f 37/269/105 38/270/106 40/271/107 39/272/108
f 39/159/109 40/160/110 34/161/111 33/162/112
f 34/33/113 40/34/114 38/35/115 36/36/116
f 39/39/117 33/40/118 35/41/119 37/42/120
f 35/157/121 36/158/122 42/154/123 41/153/124
f 36/36/125 38/35/126 43/37/127 42/38/128
f 38/270/129 37/269/130 44/273/131 43/274/132
f 37/42/133 35/41/134 41/43/135 44/44/136
f 45/163/137 46/164/138 48/165/139 47/166/140
f 47/275/141 48/276/142 50/277/143 49/278/144
f 49/167/145 50/168/146 52/169/147 51/170/148
f 51/279/149 52/280/150 46/281/151 45/282/152
f 46/45/153 52/46/154 50/47/155 48/48/156
f 51/49/157 45/50/158 47/51/159 49/52/160
f 53/283/161 54/284/162 56/285/163 55/286/164
f 61/171/165 62/172/166 63/173/167 64/174/168
f 57/287/169 58/288/170 60/289/171 59/290/172
f 59/177/173 60/178/174 54/179/175 53/180/176
f 54/53/177 60/54/178 58/55/179 56/56/180
f 59/59/181 53/60/182 55/61/183 57/62/184
f 55/175/185 56/176/186 62/172/187 61/171/188
f 56/56/189 58/55/190 63/57/191 62/58/192
f 58/288/193 57/287/194 64/291/195 63/292/196
f 57/62/197 55/61/198 61/63/199 64/64/200
f 65/181/201 66/182/202 68/183/203 67/184/204
f 67/293/205 68/294/206 70/295/207 69/296/208
f 69/185/209 70/186/210 72/187/211 71/188/212
f 71/297/213 72/298/214 66/299/215 65/300/216
f 66/65/217 72/66/218 70/67/219 68/68/220
f 71/69/221 65/70/222 67/71/223 69/72/224
f 73/301/225 74/302/226 76/303/227 75/304/228
f 81/189/229 82/190/230 83/191/231 84/192/232
f 77/305/233 78/306/234 80/307/235 79/308/236
f 79/195/237 80/196/238 74/197/239 73/198/240
f 74/73/241 80/74/242 78/75/243 76/76/244
f 79/79/245 73/80/246 75/81/247 77/82/248
f 75/193/249 76/194/250 82/190/251 81/189/252
f 76/76/253 78/75/254 83/77/255 82/78/256
f 78/306/257 77/305/258 84/309/259 83/310/260
f 77/82/261 75/81/262 81/83/263 84/84/264
f 85/311/265 86/312/266 88/313/267 87/314/268
f 93/199/269 94/200/270 95/201/271 96/202/272
f 89/315/273 90/316/274 92/317/275 91/318/276
f 91/205/277 92/206/278 86/207/279 85/208/280
f 86/85/281 92/86/282 90/87/283 88/88/284
f 91/91/285 85/92/286 87/93/287 89/94/288
f 87/203/289 88/204/290 94/200/291 93/199/292
f 88/88/293 90/87/294 95/89/295 94/90/296
f 90/316/297 89/315/298 96/319/299 95/320/300
f 89/94/301 87/93/302 93/95/303 96/96/304
f 97/209/305 98/210/306 100/211/307 99/212/308
f 99/321/309 100/322/310 102/323/311 101/324/312
f 101/213/313 102/214/314 104/215/315 103/216/316
f 103/325/317 104/326/318 98/327/319 97/328/320
f 98/97/321 104/98/322 102/99/323 100/100/324
f 103/101/325 97/102/326 99/103/327 101/104/328
f 105/217/329 106/218/330 108/219/331 107/220/332
f 107/329/333 108/330/334 110/331/335 109/332/336
f 109/221/337 110/222/338 112/223/339 111/224/340
f 111/333/341 112/334/342 106/335/343 105/336/344
f 106/105/345 112/106/346 110/107/347 108/108/348
f 111/109/349 105/110/350 107/111/351 109/112/352
f 113/225/353 114/226/354 116/227/355 115/228/356
f 115/337/357 116/338/358 118/339/359 117/340/360
f 117/229/361 118/230/362 120/231/363 119/232/364
f 119/341/365 120/342/366 114/343/367 113/344/368
f 114/113/369 120/114/370 118/115/371 116/116/372
f 119/117/373 113/118/374 115/119/375 117/120/376
