# This file uses centimeters as units for non-parametric coordinates.

mtllib wooden Chhair.mtl
g default
v -3.859509 11.442480 -4.765049
v -3.121608 11.442480 -4.765049
v -3.859511 11.442480 -5.502952
v -3.121610 11.442480 -5.502952
v -3.490560 11.442480 -4.612225
v -3.490560 11.442480 -5.655776
v -4.012336 11.442480 -5.134000
v -2.968783 11.442480 -5.134000
v -3.490560 11.442480 -5.134000
v -4.606664 -0.110940 -4.152501
v -4.267470 -0.110940 -4.012004
v -4.747161 -0.110940 -4.491693
v -3.928277 -0.110940 -4.152503
v -3.787780 -0.110940 -4.491696
v -3.928279 -0.110940 -4.830888
v -4.267470 -0.110940 -4.971385
v -4.606664 -0.110940 -4.830885
v -3.357585 -8.965348 -5.088537
v -2.980931 -8.965348 -4.932522
v -3.513599 -8.965348 -5.465189
v -2.604278 -8.965348 -5.088541
v -2.448263 -8.965348 -5.465192
v -2.604279 -8.965348 -5.841846
v -2.980931 -8.965348 -5.997860
v -3.357585 -8.965348 -5.841844
v -10.522785 4.852675 -4.613461
v -4.014172 4.913215 -4.777780
v -4.014172 4.749378 -4.710656
v -10.522785 4.674465 -4.540448
v -10.522785 4.928363 -4.789733
v -4.014172 4.982796 -4.939834
v -4.014172 4.587259 -4.777781
v -10.522785 4.498123 -4.613461
v -4.014173 4.521826 -4.939836
v -10.522787 4.426950 -4.789733
v -4.093486 4.591409 -5.101890
v -10.522786 4.502637 -4.966005
v -4.014173 4.755245 -5.169014
v -10.522786 4.680848 -5.039019
v -4.014173 4.917364 -5.101888
v -10.522785 4.857189 -4.966005
v -10.730062 11.442480 -4.712453
v -11.467964 11.442480 -4.712453
v -10.730061 11.442480 -5.450356
v -11.467962 11.442480 -5.450356
v -11.099012 11.442480 -4.559629
v -11.099012 11.442480 -5.603180
v -10.577236 11.442480 -5.081405
v -11.620789 11.442480 -5.081405
v -11.099012 11.442480 -5.081405
v -9.982908 -0.110940 -4.099905
v -10.322102 -0.110940 -3.959408
v -9.842411 -0.110940 -4.439097
v -10.661295 -0.110940 -4.099908
v -10.801792 -0.110940 -4.439100
v -10.661293 -0.110940 -4.778293
v -10.322102 -0.110940 -4.918789
v -9.982908 -0.110940 -4.778290
v -11.231987 -8.965348 -5.035941
v -11.608641 -8.965348 -4.879927
v -11.075973 -8.965348 -5.412593
v -11.985294 -8.965348 -5.035945
v -12.141309 -8.965348 -5.412597
v -11.985293 -8.965348 -5.789251
v -11.608641 -8.965348 -5.945264
v -11.231987 -8.965348 -5.789248
v -9.358980 10.805548 -5.181876
v -9.274075 4.730236 -4.700388
v -9.380058 4.735303 -4.655837
v -9.474261 10.811060 -5.133416
v -9.311081 10.790077 -5.295949
v -9.230040 4.716013 -4.805261
v -9.485908 4.728248 -4.697704
v -9.589396 10.803386 -5.178955
v -9.529615 4.713202 -4.801464
v -9.636940 10.787020 -5.291819
v -9.486150 4.750027 -4.913497
v -9.589041 10.771550 -5.405891
v -9.379597 4.693912 -4.950887
v -9.473759 10.766037 -5.454352
v -9.273747 4.700968 -4.909020
v -9.358624 10.773712 -5.408813
v -4.808178 10.805548 -5.289319
v -4.723273 4.730236 -4.807831
v -4.829257 4.735303 -4.763279
v -4.923460 10.811060 -5.240859
v -4.760279 10.790077 -5.403392
v -4.679238 4.716013 -4.912703
v -4.935105 4.728248 -4.805146
v -5.038595 10.803386 -5.286397
v -4.978814 4.713202 -4.908906
v -5.086138 10.787020 -5.399261
v -4.935348 4.750027 -5.020940
v -5.038239 10.771550 -5.513334
v -4.828795 4.693912 -5.058330
v -4.922957 10.766037 -5.561794
v -4.722946 4.700968 -5.016463
v -4.807822 10.773712 -5.516255
v -6.581573 10.805548 -5.345871
v -6.496668 4.730236 -4.864383
v -6.602652 4.735303 -4.819831
v -6.696855 10.811060 -5.297410
v -6.533674 10.790077 -5.459944
v -6.452633 4.716013 -4.969255
v -6.708500 4.728248 -4.861698
v -6.811990 10.803386 -5.342949
v -6.752209 4.713202 -4.965458
v -6.859533 10.787020 -5.455813
v -6.708743 4.750027 -5.077492
v -6.811634 10.771550 -5.569886
v -6.602190 4.693912 -5.114882
v -6.696352 10.766037 -5.618346
v -6.496341 4.700968 -5.073015
v -6.581217 10.773712 -5.572807
v -5.655771 10.805548 -5.275667
v -5.570866 4.730236 -4.794179
v -5.676849 4.735303 -4.749628
v -5.771052 10.811060 -5.227207
v -5.607872 10.790077 -5.389740
v -5.526831 4.716013 -4.899051
v -5.782698 4.728248 -4.791494
v -5.886188 10.803386 -5.272746
v -5.826406 4.713202 -4.895254
v -5.933731 10.787020 -5.385609
v -5.782941 4.750027 -5.007288
v -5.885831 10.771550 -5.499682
v -5.676388 4.693912 -5.044678
v -5.770550 10.766037 -5.548142
v -5.570539 4.700968 -5.002811
v -5.655415 10.773712 -5.502604
v -10.648498 -0.110940 3.944784
v -10.403833 -0.110940 3.843442
v -11.558383 -8.965348 3.898770
v -11.935037 -8.965348 4.054784
v -10.302491 -0.110940 3.598778
v -11.402369 -8.965348 3.522118
v -10.893162 -0.110940 3.843440
v -12.311690 -8.965348 3.898766
v -10.994504 -0.110940 3.598776
v -12.467705 -8.965348 3.522114
v -10.893161 -0.110940 3.354113
v -12.311689 -8.965348 3.145460
v -10.648498 -0.110940 3.252770
v -11.935037 -8.965348 2.989447
v -10.403833 -0.110940 3.354115
v -11.558383 -8.965348 3.145463
v -8.433178 10.805548 -5.304269
v -8.348272 4.730236 -4.822781
v -8.454256 4.735303 -4.778230
v -8.548459 10.811060 -5.255809
v -8.385279 10.790077 -5.418342
v -8.304237 4.716013 -4.927653
v -8.560105 4.728248 -4.820096
v -8.663594 10.803386 -5.301348
v -8.603813 4.713202 -4.923856
v -8.711138 10.787020 -5.414211
v -8.560348 4.750027 -5.035890
v -8.663239 10.771550 -5.528284
v -8.453794 4.693912 -5.073280
v -8.547956 10.766037 -5.576745
v -8.347945 4.700968 -5.031413
v -8.432821 10.773712 -5.531205
v -7.507375 10.805548 -5.376438
v -7.422470 4.730236 -4.894950
v -7.528454 4.735303 -4.850399
v -7.622657 10.811060 -5.327978
v -7.459476 10.790077 -5.490511
v -7.378435 4.716013 -4.999822
v -7.634303 4.728248 -4.892265
v -7.737792 10.803386 -5.373517
v -7.678011 4.713202 -4.996025
v -7.785335 10.787020 -5.486380
v -7.634545 4.750027 -5.108059
v -7.737436 10.771550 -5.600453
v -7.527992 4.693912 -5.145449
v -7.622154 10.766037 -5.648913
v -7.422143 4.700968 -5.103582
v -7.507020 10.773712 -5.603374
v -3.941074 -0.110940 3.944784
v -4.185739 -0.110940 3.843442
v -3.031189 -8.965348 3.898770
v -2.654535 -8.965348 4.054784
v -4.287081 -0.110940 3.598778
v -3.187203 -8.965348 3.522118
v -3.696410 -0.110940 3.843440
v -2.277882 -8.965348 3.898766
v -3.595068 -0.110940 3.598776
v -2.121867 -8.965348 3.522114
v -3.696411 -0.110940 3.354113
v -2.277883 -8.965348 3.145460
v -3.941074 -0.110940 3.252770
v -2.654535 -8.965348 2.989447
v -4.185739 -0.110940 3.354115
v -3.031189 -8.965348 3.145463
v -11.398664 10.630635 -4.323020
v -3.088579 10.630635 -4.323020
v -11.398664 12.254325 -4.323020
v -3.088579 12.254325 -4.323020
v -11.885064 12.254325 -5.305926
v -2.602180 12.254325 -5.305926
v -11.885064 10.630635 -5.305926
v -2.602180 10.630635 -5.305926
v -3.126254 12.254325 -5.550094
v -4.728998 12.254325 -6.093011
v -6.397987 12.254325 -6.368093
v -8.089256 12.254325 -6.368093
v -9.758247 12.254325 -6.093011
v -11.360990 12.254325 -5.550094
v -11.360990 10.630635 -5.550094
v -9.758247 10.630635 -6.093011
v -8.089256 10.630635 -6.368093
v -6.397987 10.630635 -6.368093
v -4.728998 10.630635 -6.093011
v -3.126254 10.630635 -5.550094
v -10.929511 10.630635 -4.541600
v -9.494728 10.630635 -5.027622
v -8.000638 10.630635 -5.273877
v -6.486605 10.630635 -5.273877
v -4.992517 10.630635 -5.027622
v -3.557733 10.630635 -4.541600
v -10.929511 12.254325 -4.541600
v -9.494728 12.254325 -5.027622
v -8.000638 12.254325 -5.273877
v -6.486605 12.254325 -5.273877
v -4.992517 12.254325 -5.027622
v -3.557733 12.254325 -4.541600
v -2.807236 -0.324890 2.040040
v -2.726021 -0.243676 2.056195
v -2.726021 -0.243676 -2.056195
v -2.807236 -0.324890 -2.040040
v -5.238591 0.243676 4.568764
v -5.254745 0.324890 4.487549
v -9.350982 0.243676 4.568764
v -9.334827 0.324890 4.487549
v -2.726021 0.243676 2.056195
v -2.807236 0.324890 2.040040
v -2.807236 0.324890 -2.040040
v -2.726021 0.243676 -2.056195
v -5.238591 0.243676 -4.568764
v -5.254745 0.324890 -4.487549
v -9.350982 0.243676 -4.568764
v -9.334827 0.324890 -4.487549
v -11.782337 0.324890 2.040040
v -11.863552 0.243676 2.056195
v -11.863552 0.243676 -2.056195
v -11.782337 0.324890 -2.040040
v -5.238591 -0.243676 4.568764
v -5.254745 -0.324890 4.487549
v -9.350982 -0.243676 4.568764
v -9.334827 -0.324890 4.487549
v -11.863552 -0.243676 2.056195
v -11.782337 -0.324890 2.040040
v -11.782337 -0.324890 -2.040040
v -11.863552 -0.243676 -2.056195
v -5.238591 -0.243676 -4.568764
v -5.254745 -0.324890 -4.487549
v -9.350982 -0.243676 -4.568764
v -9.334827 -0.324890 -4.487549
v -3.461936 -0.243676 3.832850
v -3.524095 -0.324890 3.770691
v -3.461936 0.243676 3.832850
v -3.524095 0.324890 3.770691
v -3.461936 -0.243676 -3.832850
v -3.524095 -0.324890 -3.770691
v -3.461936 0.243676 -3.832850
v -3.524095 0.324890 -3.770691
v -11.127636 0.243676 3.832850
v -11.065477 0.324890 3.770691
v -11.127636 -0.243676 3.832850
v -11.065477 -0.324890 3.770691
v -11.127636 0.243676 -3.832850
v -11.065477 0.324890 -3.770691
v -11.127636 -0.243676 -3.832850
v -11.065477 -0.324890 -3.770691
v -7.294786 0.243676 4.568764
v -7.294786 0.324890 4.487549
v -7.294786 0.324890 -4.487549
v -7.294786 0.243676 -4.568764
v -7.294786 -0.243676 -4.568764
v -7.294786 -0.324890 -4.487549
v -7.294786 -0.324890 4.487549
v -7.294786 -0.243676 4.568764
vt 0.084962 0.572741
vt 0.102926 0.249625
vt 0.112412 0.249625
vt 0.095281 0.572741
vt 0.074644 0.572741
vt 0.093440 0.249625
vt 0.075700 0.001992
vt 0.086234 0.001992
vt 0.065166 0.001992
vt 0.136104 0.572741
vt 0.118973 0.249625
vt 0.128459 0.249625
vt 0.146422 0.572741
vt 0.145151 0.001992
vt 0.155685 0.001992
vt 0.137945 0.249625
vt 0.156741 0.572741
vt 0.166219 0.001992
vt 0.326397 0.572741
vt 0.316079 0.572741
vt 0.298947 0.249625
vt 0.308434 0.249625
vt 0.325126 0.001992
vt 0.335660 0.001992
vt 0.336716 0.572741
vt 0.317920 0.249625
vt 0.346194 0.001992
vt 0.382869 0.572741
vt 0.372551 0.572741
vt 0.390514 0.249625
vt 0.400000 0.249625
vt 0.362232 0.572741
vt 0.381028 0.249625
vt 0.363288 0.001992
vt 0.373822 0.001992
vt 0.352754 0.001992
vt 0.133565 0.746836
vt 0.130374 0.747269
vt 0.116908 0.577359
vt 0.119841 0.576962
vt 0.136721 0.746378
vt 0.122743 0.576541
vt 0.034404 0.921394
vt 0.031248 0.920936
vt 0.044962 0.751068
vt 0.047864 0.751489
vt 0.028058 0.920503
vt 0.041829 0.752098
vt 0.107911 0.746836
vt 0.104721 0.747269
vt 0.091255 0.577359
vt 0.094188 0.576962
vt 0.111068 0.746378
vt 0.097090 0.576541
vt 0.060380 0.921394
vt 0.057224 0.920936
vt 0.070938 0.751068
vt 0.073839 0.751489
vt 0.054033 0.920503
vt 0.067804 0.752098
vt 0.082258 0.746836
vt 0.079068 0.747269
vt 0.065602 0.577359
vt 0.068535 0.576962
vt 0.085414 0.746378
vt 0.071437 0.576541
vt 0.086356 0.921394
vt 0.083199 0.920936
vt 0.096913 0.751068
vt 0.099815 0.751489
vt 0.080009 0.920503
vt 0.093780 0.752098
vt 0.056604 0.746836
vt 0.053414 0.747269
vt 0.039948 0.577359
vt 0.042881 0.576962
vt 0.059761 0.746378
vt 0.045783 0.576541
vt 0.112332 0.921394
vt 0.109175 0.920936
vt 0.122889 0.751068
vt 0.125791 0.751489
vt 0.105985 0.920503
vt 0.119756 0.752098
vt 0.614539 0.513040
vt 0.612992 0.265408
vt 0.623526 0.265408
vt 0.621382 0.513040
vt 0.634060 0.265408
vt 0.628224 0.513040
vt 0.598761 0.513040
vt 0.596617 0.265408
vt 0.607151 0.265408
vt 0.605604 0.513040
vt 0.591919 0.513040
vt 0.586083 0.265408
vt 0.030951 0.746836
vt 0.027761 0.747269
vt 0.014295 0.577359
vt 0.017228 0.576962
vt 0.034107 0.746378
vt 0.020130 0.576541
vt 0.138307 0.932693
vt 0.135151 0.932235
vt 0.148865 0.762368
vt 0.151767 0.762789
vt 0.131961 0.931803
vt 0.145731 0.763398
vt 0.018553 0.921363
vt 0.015362 0.921796
vt 0.001896 0.751887
vt 0.004829 0.751489
vt 0.021709 0.920906
vt 0.007731 0.751068
vt 0.164283 0.932693
vt 0.161127 0.932236
vt 0.174840 0.762368
vt 0.177742 0.762789
vt 0.157936 0.931803
vt 0.171707 0.763398
vt 0.460299 0.824173
vt 0.453456 0.824173
vt 0.451312 0.576541
vt 0.461846 0.576541
vt 0.446614 0.824173
vt 0.440778 0.576541
vt 0.422260 0.824173
vt 0.415417 0.824173
vt 0.413870 0.576541
vt 0.424404 0.576541
vt 0.429102 0.824173
vt 0.434938 0.576541
vt 0.362031 0.827973
vt 0.389520 0.827973
vt 0.389520 0.873383
vt 0.362031 0.873383
vt 0.395429 0.827973
vt 0.422918 0.827973
vt 0.422918 0.873383
vt 0.395429 0.873383
vt 0.295309 0.741241
vt 0.281679 0.741241
vt 0.281679 0.626229
vt 0.295309 0.626229
vt 0.281679 0.790929
vt 0.295309 0.790929
vt 0.279407 0.740789
vt 0.279407 0.626681
vt 0.281679 0.576541
vt 0.295309 0.576541
vt 0.297580 0.740789
vt 0.297580 0.626681
vt 0.279407 0.789190
vt 0.297580 0.789190
vt 0.279407 0.578279
vt 0.297580 0.578279
vt 0.257665 0.626229
vt 0.271295 0.626229
vt 0.271295 0.741241
vt 0.257665 0.741241
vt 0.271295 0.576541
vt 0.257665 0.576541
vt 0.273567 0.626681
vt 0.273567 0.740789
vt 0.271295 0.790929
vt 0.257665 0.790929
vt 0.255394 0.626681
vt 0.255394 0.740789
vt 0.273567 0.578279
vt 0.255394 0.578279
vt 0.273567 0.789190
vt 0.255394 0.789190
vt 0.433100 0.852884
vt 0.428826 0.842566
vt 0.443419 0.842566
vt 0.443419 0.857158
vt 0.433100 0.832247
vt 0.443419 0.827973
vt 0.458011 0.842566
vt 0.453737 0.852884
vt 0.453737 0.832247
vt 0.184432 0.758568
vt 0.179502 0.758568
vt 0.184098 0.576541
vt 0.188630 0.576541
vt 0.189362 0.758568
vt 0.193162 0.576541
vt 0.173662 0.758568
vt 0.168732 0.758568
vt 0.164534 0.576541
vt 0.169066 0.576541
vt 0.163802 0.758568
vt 0.160002 0.578759
vt 0.488990 0.832247
vt 0.493264 0.842566
vt 0.478671 0.842566
vt 0.478671 0.827973
vt 0.488990 0.852884
vt 0.478671 0.857158
vt 0.464079 0.842566
vt 0.468353 0.832247
vt 0.468353 0.852884
vt 0.521596 0.248005
vt 0.527710 0.234884
vt 0.555914 0.246951
vt 0.549086 0.261608
vt 0.571098 0.202127
vt 0.541302 0.194757
vt 0.578791 0.155450
vt 0.548189 0.152972
vt 0.578791 0.108150
vt 0.548189 0.110628
vt 0.571098 0.061473
vt 0.541302 0.068843
vt 0.555914 0.016649
vt 0.527710 0.028716
vt 0.521596 0.015595
vt 0.549086 0.001992
vt 0.614386 0.261608
vt 0.607557 0.246951
vt 0.635762 0.234884
vt 0.641875 0.248005
vt 0.592374 0.202127
vt 0.622170 0.194757
vt 0.584680 0.155450
vt 0.615283 0.152972
vt 0.584680 0.108150
vt 0.615283 0.110628
vt 0.592374 0.061473
vt 0.622170 0.068843
vt 0.607557 0.016649
vt 0.635762 0.028716
vt 0.614386 0.001992
vt 0.641875 0.015595
vt 0.667813 0.235223
vt 0.647764 0.186821
vt 0.647764 0.072713
vt 0.667813 0.024312
vt 0.716214 0.004263
vt 0.716214 0.255271
vt 0.715762 0.001992
vt 0.666074 0.022574
vt 0.773268 0.004263
vt 0.773268 0.255271
vt 0.715762 0.257543
vt 0.666074 0.236961
vt 0.773268 0.001992
vt 0.830323 0.004263
vt 0.830323 0.255271
vt 0.773268 0.257543
vt 0.830774 0.001992
vt 0.878724 0.024312
vt 0.878724 0.235223
vt 0.830774 0.257543
vt 0.880462 0.022574
vt 0.898772 0.072713
vt 0.898772 0.186821
vt 0.880462 0.236961
vt 0.930058 0.494573
vt 0.930058 0.283662
vt 0.950107 0.332064
vt 0.950107 0.446172
vt 0.881657 0.514622
vt 0.881657 0.263614
vt 0.824603 0.514622
vt 0.824603 0.263614
vt 0.882109 0.261343
vt 0.931797 0.281924
vt 0.882109 0.516893
vt 0.931797 0.496312
vt 0.767549 0.263614
vt 0.767549 0.514622
vt 0.824603 0.261343
vt 0.824603 0.516893
vt 0.767097 0.261343
vt 0.767097 0.516893
vt 0.719147 0.494573
vt 0.719147 0.283662
vt 0.717409 0.281924
vt 0.717409 0.496312
vt 0.699099 0.446172
vt 0.699099 0.332064
vt 0.022792 0.572741
vt 0.001896 0.249625
vt 0.011383 0.249625
vt 0.033111 0.572741
vt 0.036830 0.001992
vt 0.047364 0.001992
vt 0.020869 0.249625
vt 0.043429 0.572741
vt 0.057897 0.001992
vt 0.214312 0.001992
vt 0.191752 0.325108
vt 0.182266 0.325108
vt 0.203994 0.001992
vt 0.228781 0.572741
vt 0.218247 0.572741
vt 0.172780 0.325108
vt 0.193675 0.001992
vt 0.207713 0.572741
vt 0.208919 0.758568
vt 0.203935 0.758568
vt 0.206030 0.576541
vt 0.210612 0.576541
vt 0.199003 0.758568
vt 0.201496 0.576541
vt 0.154161 0.758568
vt 0.149177 0.758568
vt 0.147096 0.576541
vt 0.151678 0.578759
vt 0.144245 0.758568
vt 0.142562 0.576541
vt 0.270969 0.572741
vt 0.260650 0.572741
vt 0.282378 0.249625
vt 0.291865 0.249625
vt 0.250332 0.572741
vt 0.272892 0.249625
vt 0.246397 0.001992
vt 0.256931 0.001992
vt 0.235863 0.001992
vt 0.421029 0.001992
vt 0.431348 0.001992
vt 0.453076 0.325108
vt 0.443590 0.325108
vt 0.441666 0.001992
vt 0.462562 0.325108
vt 0.417095 0.572741
vt 0.406561 0.572741
vt 0.427629 0.572741
vt 0.190356 0.932333
vt 0.187132 0.932487
vt 0.189767 0.762565
vt 0.192731 0.762424
vt 0.183912 0.932272
vt 0.186806 0.762368
vt 0.272972 0.794789
vt 0.276196 0.794943
vt 0.278829 0.964763
vt 0.275849 0.963194
vt 0.279416 0.794729
vt 0.281790 0.964566
vt 0.205199 0.932333
vt 0.201975 0.932487
vt 0.204610 0.762565
vt 0.207574 0.762424
vt 0.198755 0.932272
vt 0.201650 0.762368
vt 0.287815 0.794789
vt 0.291039 0.794943
vt 0.293673 0.964763
vt 0.290693 0.963194
vt 0.294259 0.794728
vt 0.296633 0.964566
vt 0.220043 0.964693
vt 0.216819 0.964847
vt 0.219453 0.794926
vt 0.222417 0.794784
vt 0.213599 0.964633
vt 0.216493 0.794728
vt 0.302658 0.812811
vt 0.305882 0.812965
vt 0.308516 0.982785
vt 0.305536 0.981215
vt 0.309102 0.812750
vt 0.311476 0.982588
vt 0.234886 0.964693
vt 0.231662 0.964848
vt 0.234296 0.794926
vt 0.237261 0.794784
vt 0.228442 0.964633
vt 0.231336 0.794729
vt 0.317502 0.812811
vt 0.320726 0.812965
vt 0.323359 0.982785
vt 0.320379 0.981215
vt 0.323946 0.812750
vt 0.326319 0.982588
vt 0.686415 0.513040
vt 0.650435 0.265408
vt 0.660969 0.265408
vt 0.693258 0.513040
vt 0.679573 0.513040
vt 0.639901 0.265408
vt 0.573400 0.265408
vt 0.537419 0.513040
vt 0.526885 0.513040
vt 0.566557 0.265408
vt 0.580243 0.265408
vt 0.547953 0.513040
vt 0.249729 0.964693
vt 0.246505 0.964848
vt 0.249140 0.794926
vt 0.252104 0.794784
vt 0.243285 0.964633
vt 0.246179 0.794729
vt 0.332345 0.812811
vt 0.335569 0.812965
vt 0.338202 0.982785
vt 0.335222 0.981215
vt 0.338789 0.812750
vt 0.341163 0.982588
vt 0.264573 0.964693
vt 0.261348 0.964848
vt 0.263983 0.794926
vt 0.266947 0.794784
vt 0.258128 0.964633
vt 0.261023 0.794729
vt 0.347188 0.828034
vt 0.350412 0.828188
vt 0.353046 0.998008
vt 0.350066 0.996439
vt 0.353632 0.827973
vt 0.356006 0.997811
vt 0.474530 0.513040
vt 0.467687 0.513040
vt 0.499976 0.265408
vt 0.510510 0.265408
vt 0.481372 0.513040
vt 0.521044 0.265408
vt 0.361514 0.576541
vt 0.368357 0.576541
vt 0.408029 0.824173
vt 0.397495 0.824173
vt 0.354671 0.576541
vt 0.386961 0.824173
vt 0.469645 0.246951
vt 0.469645 0.202127
vt 0.515055 0.202127
vt 0.515055 0.246951
vt 0.469645 0.155450
vt 0.515055 0.155450
vt 0.469645 0.261608
vt 0.515055 0.261608
vt 0.469645 0.108150
vt 0.515055 0.108150
vt 0.469645 0.061473
vt 0.515055 0.061473
vt 0.469645 0.016649
vt 0.515055 0.016649
vt 0.469645 0.001992
vt 0.515055 0.001992
vt 0.303421 0.808950
vt 0.303421 0.795829
vt 0.348831 0.795829
vt 0.348831 0.808950
vt 0.303421 0.755703
vt 0.348831 0.755703
vt 0.303421 0.713917
vt 0.348831 0.713917
vt 0.303421 0.671574
vt 0.348831 0.671574
vt 0.303421 0.629789
vt 0.348831 0.629789
vt 0.303421 0.589662
vt 0.348831 0.589662
vt 0.303421 0.576541
vt 0.348831 0.576541
vt 0.235924 0.683735
vt 0.249553 0.683735
vt 0.249553 0.741241
vt 0.235924 0.741241
vt 0.235924 0.626229
vt 0.249553 0.626229
vt 0.235924 0.790929
vt 0.249553 0.790929
vt 0.249553 0.576541
vt 0.235924 0.576541
vt 0.230083 0.741241
vt 0.216453 0.741241
vt 0.216453 0.683735
vt 0.230083 0.683735
vt 0.230083 0.790929
vt 0.216453 0.790929
vt 0.216453 0.626229
vt 0.230083 0.626229
vt 0.216453 0.576541
vt 0.230083 0.576541
vn 0.000000 1.000000 0.000001
vn 0.000000 1.000000 0.000000
vn 0.000000 1.000000 0.000000
vn 0.000000 1.000000 0.000000
vn 0.000000 1.000000 0.000000
vn 0.000000 1.000000 0.000000
vn 0.000000 1.000000 0.000000
vn 0.000000 1.000000 0.000000
vn 0.000000 1.000000 0.000000
vn -0.381645 0.073531 0.921380
vn -0.381645 0.073531 0.921380
vn -0.381645 0.073531 0.921379
vn -0.381645 0.073531 0.921380
vn -0.920934 0.079781 0.381464
vn -0.920934 0.079781 0.381464
vn -0.920934 0.079781 0.381464
vn -0.920934 0.079781 0.381464
vn 0.382589 0.022258 0.923651
vn 0.382589 0.022258 0.923651
vn 0.382589 0.022258 0.923651
vn 0.382588 0.022258 0.923651
vn 0.922978 -0.044174 0.382308
vn 0.922978 -0.044174 0.382308
vn 0.922978 -0.044174 0.382308
vn 0.922978 -0.044174 0.382308
vn 0.920420 -0.086442 -0.381254
vn 0.920420 -0.086442 -0.381254
vn 0.920420 -0.086442 -0.381254
vn 0.920420 -0.086442 -0.381254
vn 0.381450 -0.080202 -0.920904
vn 0.381450 -0.080202 -0.920904
vn 0.381450 -0.080202 -0.920904
vn 0.381450 -0.080202 -0.920904
vn -0.382522 -0.028982 -0.923492
vn -0.382522 -0.028982 -0.923492
vn -0.382522 -0.028982 -0.923492
vn -0.382522 -0.028982 -0.923492
vn -0.923232 0.037460 -0.382413
vn -0.923232 0.037460 -0.382413
vn -0.923232 0.037460 -0.382413
vn -0.923232 0.037460 -0.382413
vn -0.378354 -0.149937 0.913437
vn -0.378354 -0.149937 0.913437
vn -0.378354 -0.149937 0.913437
vn -0.378354 -0.149937 0.913437
vn -0.910694 -0.168348 0.377221
vn -0.910694 -0.168348 0.377221
vn -0.910694 -0.168348 0.377221
vn -0.910694 -0.168348 0.377221
vn 0.382374 -0.040411 0.923123
vn 0.382374 -0.040411 0.923123
vn 0.382374 -0.040411 0.923123
vn 0.382374 -0.040411 0.923123
vn 0.919503 0.097230 0.380869
vn 0.919503 0.097230 0.380869
vn 0.919503 0.097230 0.380869
vn 0.919503 0.097230 0.380869
vn 0.908973 0.178907 -0.376510
vn 0.908973 0.178907 -0.376510
vn 0.908973 0.178907 -0.376510
vn 0.908973 0.178907 -0.376510
vn 0.377714 0.160595 -0.911889
vn 0.377714 0.160595 -0.911889
vn 0.377714 0.160595 -0.911889
vn 0.377714 0.160595 -0.911889
vn -0.382180 0.051431 -0.922656
vn -0.382180 0.051431 -0.922656
vn -0.382180 0.051431 -0.922656
vn -0.382180 0.051431 -0.922656
vn -0.920433 -0.086314 -0.381253
vn -0.920433 -0.086314 -0.381253
vn -0.920433 -0.086314 -0.381253
vn -0.920433 -0.086314 -0.381253
vn 0.019831 0.379043 0.925167
vn 0.019831 0.379043 0.925167
vn 0.019831 0.379043 0.925167
vn 0.019831 0.379043 0.925167
vn 0.001414 0.918876 0.394543
vn 0.001414 0.918876 0.394543
vn 0.001414 0.918876 0.394543
vn 0.001414 0.918876 0.394543
vn 0.028554 -0.382398 0.923556
vn 0.028554 -0.382398 0.923556
vn 0.028554 -0.382398 0.923557
vn 0.028554 -0.382398 0.923556
vn 0.022146 -0.927039 0.374310
vn 0.022146 -0.927039 0.374310
vn 0.022146 -0.927039 0.374310
vn 0.022146 -0.927039 0.374310
vn 0.004298 -0.918502 -0.395394
vn 0.004298 -0.918502 -0.395394
vn 0.004298 -0.918502 -0.395394
vn 0.004298 -0.918502 -0.395394
vn -0.014293 -0.376243 -0.926411
vn -0.014293 -0.376243 -0.926411
vn -0.014293 -0.376243 -0.926411
vn -0.014293 -0.376243 -0.926411
vn -0.022820 0.382455 -0.923693
vn -0.022820 0.382454 -0.923693
vn -0.022820 0.382454 -0.923693
vn -0.022820 0.382454 -0.923693
vn -0.016387 0.927142 -0.374352
vn -0.016387 0.927142 -0.374352
vn -0.016387 0.927142 -0.374352
vn -0.016387 0.927142 -0.374352
vn 0.000000 1.000000 0.000000
vn 0.000000 1.000000 0.000000
vn 0.000000 1.000000 0.000000
vn 0.000000 1.000000 0.000000
vn 0.000000 1.000000 0.000000
vn 0.000000 1.000000 0.000000
vn 0.000000 1.000000 0.000000
vn 0.000000 1.000000 0.000000
vn 0.000000 1.000000 0.000000
vn 0.381645 0.073531 0.921380
vn 0.381645 0.073531 0.921380
vn 0.381645 0.073531 0.921379
vn 0.381645 0.073531 0.921380
vn 0.920934 0.079781 0.381464
vn 0.920934 0.079781 0.381464
vn 0.920934 0.079781 0.381464
vn 0.920934 0.079781 0.381464
vn -0.382589 0.022258 0.923651
vn -0.382588 0.022258 0.923651
vn -0.382589 0.022258 0.923651
vn -0.382589 0.022258 0.923651
vn -0.922978 -0.044174 0.382308
vn -0.922978 -0.044174 0.382308
vn -0.922978 -0.044174 0.382308
vn -0.922978 -0.044174 0.382308
vn -0.920420 -0.086442 -0.381254
vn -0.920420 -0.086442 -0.381254
vn -0.920420 -0.086442 -0.381254
vn -0.920420 -0.086442 -0.381254
vn -0.381449 -0.080202 -0.920904
vn -0.381449 -0.080202 -0.920904
vn -0.381449 -0.080202 -0.920904
vn -0.381449 -0.080202 -0.920904
vn 0.382524 -0.028982 -0.923491
vn 0.382524 -0.028982 -0.923491
vn 0.382524 -0.028982 -0.923491
vn 0.382524 -0.028982 -0.923491
vn 0.923231 0.037460 -0.382414
vn 0.923231 0.037460 -0.382414
vn 0.923232 0.037460 -0.382414
vn 0.923231 0.037460 -0.382414
vn 0.378355 -0.149937 0.913437
vn 0.378355 -0.149937 0.913437
vn 0.378355 -0.149937 0.913436
vn 0.378355 -0.149937 0.913437
vn 0.910694 -0.168348 0.377221
vn 0.910694 -0.168348 0.377221
vn 0.910694 -0.168348 0.377221
vn 0.910694 -0.168348 0.377221
vn -0.382376 -0.040411 0.923123
vn -0.382376 -0.040411 0.923123
vn -0.382376 -0.040411 0.923123
vn -0.382376 -0.040411 0.923123
vn -0.919503 0.097230 0.380869
vn -0.919503 0.097230 0.380869
vn -0.919503 0.097230 0.380869
vn -0.919503 0.097230 0.380869
vn -0.908973 0.178907 -0.376511
vn -0.908973 0.178907 -0.376511
vn -0.908973 0.178907 -0.376511
vn -0.908973 0.178907 -0.376511
vn -0.377715 0.160595 -0.911889
vn -0.377715 0.160595 -0.911889
vn -0.377715 0.160595 -0.911889
vn -0.377715 0.160595 -0.911889
vn 0.382180 0.051431 -0.922655
vn 0.382180 0.051431 -0.922655
vn 0.382180 0.051431 -0.922655
vn 0.382180 0.051431 -0.922655
vn 0.920432 -0.086314 -0.381253
vn 0.920432 -0.086314 -0.381253
vn 0.920432 -0.086314 -0.381253
vn 0.920432 -0.086314 -0.381253
vn 0.389507 0.078175 0.917700
vn 0.389507 0.078175 0.917700
vn 0.389507 0.078175 0.917700
vn 0.389507 0.078175 0.917700
vn 0.923233 0.043162 0.381810
vn 0.923233 0.043162 0.381810
vn 0.923233 0.043162 0.381810
vn 0.923233 0.043162 0.381810
vn -0.370840 0.067058 0.926273
vn -0.370840 0.067058 0.926273
vn -0.370840 0.067058 0.926273
vn -0.370840 0.067058 0.926273
vn -0.922241 0.014893 0.386330
vn -0.922241 0.014893 0.386330
vn -0.922240 0.014893 0.386330
vn -0.922241 0.014893 0.386330
vn -0.924609 -0.046784 -0.378034
vn -0.924609 -0.046784 -0.378034
vn -0.924609 -0.046784 -0.378034
vn -0.924609 -0.046784 -0.378034
vn -0.379445 -0.082071 -0.921567
vn -0.379445 -0.082071 -0.921567
vn -0.379445 -0.082071 -0.921567
vn -0.379445 -0.082071 -0.921567
vn 0.370967 -0.071020 -0.925926
vn 0.370967 -0.071020 -0.925926
vn 0.370967 -0.071020 -0.925926
vn 0.370967 -0.071020 -0.925926
vn 0.922385 -0.018861 -0.385811
vn 0.922385 -0.018861 -0.385811
vn 0.922385 -0.018861 -0.385811
vn 0.922385 -0.018861 -0.385811
vn 0.389506 0.078175 0.917700
vn 0.389506 0.078175 0.917700
vn 0.389506 0.078175 0.917700
vn 0.389506 0.078175 0.917700
vn 0.923233 0.043162 0.381809
vn 0.923233 0.043162 0.381809
vn 0.923233 0.043162 0.381809
vn 0.923233 0.043162 0.381809
vn -0.370836 0.067059 0.926274
vn -0.370836 0.067059 0.926274
vn -0.370836 0.067059 0.926274
vn -0.370836 0.067059 0.926274
vn -0.922241 0.014893 0.386329
vn -0.922241 0.014893 0.386329
vn -0.922241 0.014893 0.386329
vn -0.922241 0.014893 0.386329
vn -0.924609 -0.046784 -0.378033
vn -0.924609 -0.046784 -0.378033
vn -0.924609 -0.046784 -0.378033
vn -0.924609 -0.046784 -0.378033
vn -0.379445 -0.082070 -0.921567
vn -0.379445 -0.082070 -0.921567
vn -0.379445 -0.082070 -0.921567
vn -0.379445 -0.082070 -0.921567
vn 0.370962 -0.071020 -0.925928
vn 0.370962 -0.071020 -0.925929
vn 0.370962 -0.071020 -0.925928
vn 0.370962 -0.071020 -0.925929
vn 0.922383 -0.018861 -0.385816
vn 0.922383 -0.018861 -0.385816
vn 0.922383 -0.018861 -0.385816
vn 0.922383 -0.018861 -0.385816
vn 0.389509 0.078173 0.917699
vn 0.389509 0.078173 0.917699
vn 0.389509 0.078173 0.917699
vn 0.389509 0.078173 0.917699
vn 0.923234 0.043162 0.381808
vn 0.923234 0.043162 0.381808
vn 0.923233 0.043162 0.381808
vn 0.923233 0.043162 0.381808
vn -0.370838 0.067059 0.926273
vn -0.370838 0.067059 0.926273
vn -0.370838 0.067059 0.926273
vn -0.370838 0.067059 0.926273
vn -0.922241 0.014893 0.386330
vn -0.922240 0.014893 0.386330
vn -0.922240 0.014893 0.386330
vn -0.922240 0.014893 0.386330
vn -0.924609 -0.046785 -0.378033
vn -0.924609 -0.046785 -0.378033
vn -0.924609 -0.046785 -0.378033
vn -0.924609 -0.046785 -0.378033
vn -0.379450 -0.082069 -0.921565
vn -0.379450 -0.082069 -0.921565
vn -0.379450 -0.082069 -0.921565
vn -0.379450 -0.082069 -0.921565
vn 0.370962 -0.071020 -0.925928
vn 0.370962 -0.071020 -0.925929
vn 0.370962 -0.071020 -0.925928
vn 0.370962 -0.071020 -0.925928
vn 0.922383 -0.018861 -0.385815
vn 0.922383 -0.018861 -0.385815
vn 0.922383 -0.018861 -0.385815
vn 0.922383 -0.018861 -0.385815
vn 0.389506 0.078174 0.917700
vn 0.389506 0.078174 0.917700
vn 0.389506 0.078174 0.917700
vn 0.389506 0.078174 0.917700
vn 0.923234 0.043162 0.381808
vn 0.923233 0.043162 0.381808
vn 0.923233 0.043162 0.381808
vn 0.923233 0.043162 0.381808
vn -0.370836 0.067059 0.926274
vn -0.370836 0.067059 0.926274
vn -0.370836 0.067059 0.926274
vn -0.370836 0.067059 0.926274
vn -0.922241 0.014893 0.386329
vn -0.922241 0.014893 0.386329
vn -0.922241 0.014893 0.386329
vn -0.922241 0.014893 0.386329
vn -0.924609 -0.046785 -0.378033
vn -0.924609 -0.046785 -0.378033
vn -0.924609 -0.046785 -0.378033
vn -0.924609 -0.046785 -0.378033
vn -0.379447 -0.082069 -0.921566
vn -0.379447 -0.082069 -0.921566
vn -0.379447 -0.082069 -0.921566
vn -0.379447 -0.082069 -0.921566
vn 0.370966 -0.071019 -0.925927
vn 0.370966 -0.071019 -0.925927
vn 0.370966 -0.071019 -0.925927
vn 0.370966 -0.071019 -0.925927
vn 0.922383 -0.018861 -0.385816
vn 0.922383 -0.018861 -0.385816
vn 0.922383 -0.018861 -0.385816
vn 0.922383 -0.018861 -0.385816
vn 0.382309 -0.044083 0.922982
vn 0.382309 -0.044083 0.922982
vn 0.382309 -0.044083 0.922982
vn 0.382309 -0.044083 0.922982
vn 0.917506 -0.117261 0.380043
vn 0.917506 -0.117261 0.380043
vn 0.917506 -0.117261 0.380043
vn 0.917506 -0.117261 0.380043
vn -0.381831 0.066931 0.921806
vn -0.381831 0.066931 0.921806
vn -0.381831 0.066931 0.921806
vn -0.381831 0.066931 0.921806
vn -0.913604 0.148730 0.378427
vn -0.913604 0.148730 0.378427
vn -0.913604 0.148730 0.378427
vn -0.913604 0.148730 0.378427
vn -0.912695 0.155128 -0.378051
vn -0.912695 0.155128 -0.378051
vn -0.912695 0.155128 -0.378051
vn -0.912695 0.155128 -0.378051
vn -0.381367 0.082794 -0.920709
vn -0.381367 0.082794 -0.920709
vn -0.381367 0.082794 -0.920709
vn -0.381367 0.082794 -0.920709
vn 0.382535 -0.028117 -0.923513
vn 0.382535 -0.028117 -0.923513
vn 0.382535 -0.028117 -0.923513
vn 0.382535 -0.028117 -0.923513
vn 0.918196 -0.110764 -0.380326
vn 0.918196 -0.110764 -0.380326
vn 0.918196 -0.110764 -0.380326
vn 0.918196 -0.110764 -0.380326
vn 0.389507 0.078174 0.917700
vn 0.389507 0.078174 0.917700
vn 0.389507 0.078174 0.917700
vn 0.389507 0.078174 0.917700
vn 0.923233 0.043162 0.381809
vn 0.923233 0.043162 0.381809
vn 0.923233 0.043162 0.381809
vn 0.923233 0.043162 0.381809
vn -0.370839 0.067059 0.926273
vn -0.370840 0.067059 0.926273
vn -0.370840 0.067059 0.926273
vn -0.370840 0.067059 0.926273
vn -0.922241 0.014893 0.386329
vn -0.922241 0.014893 0.386329
vn -0.922241 0.014893 0.386329
vn -0.922241 0.014893 0.386329
vn -0.924609 -0.046784 -0.378033
vn -0.924609 -0.046784 -0.378033
vn -0.924609 -0.046784 -0.378033
vn -0.924609 -0.046784 -0.378033
vn -0.379449 -0.082070 -0.921566
vn -0.379449 -0.082070 -0.921566
vn -0.379449 -0.082070 -0.921566
vn -0.379449 -0.082070 -0.921566
vn 0.370970 -0.071019 -0.925925
vn 0.370970 -0.071019 -0.925925
vn 0.370969 -0.071019 -0.925925
vn 0.370969 -0.071019 -0.925925
vn 0.922385 -0.018861 -0.385811
vn 0.922385 -0.018861 -0.385811
vn 0.922385 -0.018861 -0.385811
vn 0.922385 -0.018861 -0.385811
vn 0.389506 0.078174 0.917700
vn 0.389506 0.078174 0.917700
vn 0.389506 0.078174 0.917700
vn 0.389506 0.078174 0.917700
vn 0.923233 0.043162 0.381808
vn 0.923233 0.043162 0.381808
vn 0.923233 0.043162 0.381808
vn 0.923233 0.043162 0.381808
vn -0.370838 0.067059 0.926273
vn -0.370838 0.067059 0.926273
vn -0.370838 0.067059 0.926273
vn -0.370838 0.067059 0.926273
vn -0.922241 0.014893 0.386329
vn -0.922241 0.014893 0.386329
vn -0.922241 0.014893 0.386329
vn -0.922241 0.014893 0.386329
vn -0.924609 -0.046785 -0.378034
vn -0.924609 -0.046785 -0.378034
vn -0.924609 -0.046785 -0.378034
vn -0.924609 -0.046785 -0.378034
vn -0.379450 -0.082070 -0.921565
vn -0.379450 -0.082070 -0.921565
vn -0.379450 -0.082070 -0.921565
vn -0.379450 -0.082070 -0.921565
vn 0.370966 -0.071020 -0.925927
vn 0.370966 -0.071020 -0.925927
vn 0.370966 -0.071020 -0.925927
vn 0.370966 -0.071020 -0.925927
vn 0.922383 -0.018861 -0.385815
vn 0.922383 -0.018861 -0.385815
vn 0.922383 -0.018861 -0.385815
vn 0.922383 -0.018861 -0.385815
vn -0.382309 -0.044083 0.922982
vn -0.382309 -0.044083 0.922982
vn -0.382309 -0.044083 0.922982
vn -0.382309 -0.044083 0.922982
vn -0.917506 -0.117261 0.380043
vn -0.917506 -0.117261 0.380043
vn -0.917506 -0.117261 0.380043
vn -0.917506 -0.117261 0.380043
vn 0.381831 0.066931 0.921806
vn 0.381831 0.066931 0.921806
vn 0.381831 0.066931 0.921806
vn 0.381831 0.066931 0.921806
vn 0.913604 0.148730 0.378427
vn 0.913604 0.148730 0.378427
vn 0.913604 0.148730 0.378427
vn 0.913604 0.148730 0.378427
vn 0.912695 0.155128 -0.378051
vn 0.912695 0.155128 -0.378051
vn 0.912695 0.155128 -0.378051
vn 0.912695 0.155128 -0.378051
vn 0.381367 0.082794 -0.920709
vn 0.381367 0.082794 -0.920709
vn 0.381367 0.082794 -0.920709
vn 0.381367 0.082794 -0.920709
vn -0.382535 -0.028117 -0.923513
vn -0.382535 -0.028117 -0.923513
vn -0.382535 -0.028117 -0.923513
vn -0.382535 -0.028117 -0.923513
vn -0.918196 -0.110764 -0.380326
vn -0.918196 -0.110764 -0.380326
vn -0.918196 -0.110764 -0.380326
vn -0.918196 -0.110764 -0.380326
vn 0.896263 0.000000 0.443523
vn 0.896263 0.000000 0.443523
vn 0.896263 0.000000 0.443523
vn 0.896263 0.000000 0.443523
vn -0.896263 0.000000 0.443523
vn -0.896263 0.000000 0.443523
vn -0.896263 0.000000 0.443523
vn -0.896263 0.000000 0.443523
vn -0.347072 0.000000 -0.937838
vn -0.242554 0.000000 -0.970138
vn -0.242554 0.000000 -0.970138
vn -0.347072 0.000000 -0.937838
vn -0.081590 0.000000 -0.996666
vn -0.081590 0.000000 -0.996666
vn 0.081590 0.000000 -0.996666
vn 0.081590 0.000000 -0.996666
vn 0.242554 0.000000 -0.970138
vn 0.242554 0.000000 -0.970138
vn 0.347072 0.000000 -0.937838
vn 0.347072 0.000000 -0.937838
vn 0.422318 0.000000 0.906448
vn 0.347073 0.000000 0.937838
vn 0.347073 0.000000 0.937838
vn 0.422318 0.000000 0.906448
vn 0.000000 1.000000 0.000000
vn 0.000000 1.000000 0.000000
vn 0.000000 1.000000 0.000000
vn 0.000000 1.000000 0.000000
vn -0.422317 0.000000 -0.906448
vn -0.422317 0.000000 -0.906448
vn 0.000000 -1.000000 -0.000001
vn 0.000000 -1.000000 -0.000000
vn 0.000000 -1.000000 -0.000000
vn 0.000000 -1.000000 -0.000001
vn 0.422318 0.000000 -0.906448
vn 0.422318 0.000000 -0.906448
vn 0.000000 -1.000000 -0.000000
vn 0.000000 -1.000000 -0.000000
vn 0.000000 -1.000000 0.000001
vn 0.000000 -1.000000 0.000001
vn -0.347072 0.000000 0.937838
vn -0.347072 0.000000 0.937838
vn -0.422318 0.000000 0.906448
vn -0.422318 0.000000 0.906448
vn 0.000000 1.000000 0.000001
vn 0.000000 1.000000 0.000001
vn 0.000000 1.000000 0.000000
vn 0.000000 1.000000 0.000000
vn 0.000000 -1.000000 -0.000000
vn 0.000000 -1.000000 -0.000000
vn 0.000000 -1.000000 0.000000
vn 0.000000 -1.000000 0.000000
vn 0.000000 -1.000000 0.000000
vn 0.000000 -1.000000 0.000000
vn 0.000000 -1.000000 -0.000000
vn 0.000000 -1.000000 -0.000000
vn -0.242554 0.000000 0.970138
vn -0.242554 0.000000 0.970138
vn -0.081590 0.000000 0.996666
vn -0.081590 0.000000 0.996666
vn 0.081590 0.000000 0.996666
vn 0.081590 0.000000 0.996666
vn 0.242554 0.000000 0.970138
vn 0.242554 0.000000 0.970138
vn 0.000000 1.000000 0.000000
vn 0.000000 1.000000 0.000000
vn 0.000000 1.000000 0.000000
vn 0.000000 1.000000 0.000000
vn 0.000000 1.000000 0.000000
vn 0.000000 1.000000 0.000000
vn 0.000000 1.000000 -0.000000
vn 0.000000 1.000000 -0.000000
vn 0.695817 -0.713004 0.086400
vn 0.695817 -0.713004 0.086400
vn 0.653282 -0.707107 0.270598
vn 0.653282 -0.707107 0.270598
vn 0.695817 -0.713004 -0.086400
vn 0.695817 -0.713004 -0.086400
vn 0.653282 -0.707107 -0.270598
vn 0.653282 -0.707107 -0.270598
vn 0.000000 0.707107 0.707107
vn 0.000000 0.707107 0.707107
vn -0.131412 0.713923 0.687783
vn -0.131411 0.713923 0.687783
vn 0.131411 0.713923 0.687783
vn 0.131412 0.713923 0.687783
vn 0.270598 0.707107 0.653281
vn 0.270598 0.707107 0.653281
vn -0.270598 0.707108 0.653281
vn -0.270598 0.707108 0.653281
vn 0.695817 0.713004 0.086400
vn 0.695817 0.713004 0.086400
vn 0.653282 0.707107 0.270598
vn 0.653282 0.707107 0.270598
vn 0.695817 0.713004 -0.086400
vn 0.695817 0.713004 -0.086400
vn 0.653282 0.707107 -0.270598
vn 0.653282 0.707107 -0.270598
vn 0.131412 0.713923 -0.687783
vn 0.131411 0.713923 -0.687783
vn 0.270598 0.707107 -0.653281
vn 0.270598 0.707107 -0.653281
vn 0.000000 0.707107 -0.707107
vn 0.000000 0.707107 -0.707107
vn -0.131411 0.713923 -0.687783
vn -0.131412 0.713923 -0.687783
vn -0.270598 0.707108 -0.653281
vn -0.270598 0.707108 -0.653281
vn -0.695818 0.713002 0.086401
vn -0.695818 0.713002 0.086401
vn -0.653283 0.707105 0.270599
vn -0.653283 0.707106 0.270599
vn -0.695818 0.713002 -0.086401
vn -0.695818 0.713002 -0.086400
vn -0.653283 0.707106 -0.270599
vn -0.653283 0.707106 -0.270599
vn 0.131412 -0.713923 0.687783
vn 0.131411 -0.713923 0.687783
vn 0.270598 -0.707107 0.653281
vn 0.270598 -0.707107 0.653281
vn 0.000000 -0.707107 0.707107
vn 0.000000 -0.707107 0.707107
vn -0.131411 -0.713923 0.687783
vn -0.131412 -0.713923 0.687783
vn -0.270598 -0.707108 0.653281
vn -0.270598 -0.707108 0.653281
vn -0.695818 -0.713002 0.086400
vn -0.695818 -0.713002 0.086401
vn -0.653283 -0.707106 0.270599
vn -0.653283 -0.707106 0.270599
vn -0.695818 -0.713002 -0.086401
vn -0.695818 -0.713002 -0.086401
vn -0.653283 -0.707105 -0.270599
vn -0.653283 -0.707106 -0.270599
vn 0.000000 -0.707107 -0.707107
vn 0.000000 -0.707107 -0.707107
vn -0.131412 -0.713923 -0.687783
vn -0.131411 -0.713923 -0.687783
vn 0.131411 -0.713923 -0.687783
vn 0.131412 -0.713923 -0.687783
vn 0.270598 -0.707107 -0.653281
vn 0.270598 -0.707107 -0.653281
vn -0.270598 -0.707108 -0.653281
vn -0.270598 -0.707108 -0.653281
vn 0.992282 0.000000 0.123999
vn 0.992282 0.000000 0.123999
vn 0.992282 0.000000 -0.123999
vn 0.992282 0.000000 -0.123999
vn -0.992282 0.000000 0.123999
vn -0.992282 0.000000 0.123999
vn -0.992282 0.000000 -0.123999
vn -0.992282 0.000000 -0.123999
vn 0.000000 0.000000 -1.000000
vn 0.000000 0.000000 -1.000000
vn -0.188558 0.000000 -0.982062
vn -0.188558 0.000000 -0.982062
vn -0.188558 0.000000 0.982062
vn -0.188558 0.000000 0.982062
vn 0.000000 0.000000 1.000000
vn 0.000000 0.000000 1.000000
vn 0.188558 0.000000 0.982062
vn 0.382683 0.000000 0.923880
vn 0.382683 0.000000 0.923880
vn 0.188558 0.000000 0.982062
vn 0.923879 0.000000 0.382684
vn 0.923879 0.000000 0.382684
vn 0.923879 0.000000 -0.382684
vn 0.923879 0.000000 -0.382684
vn 0.382683 0.000000 -0.923880
vn 0.188558 0.000000 -0.982062
vn 0.188558 0.000000 -0.982062
vn 0.382683 0.000000 -0.923880
vn -0.382683 0.000000 0.923880
vn -0.382683 0.000000 0.923880
vn -0.923879 0.000000 0.382684
vn -0.923879 0.000000 0.382684
vn -0.923879 0.000000 -0.382684
vn -0.923879 0.000000 -0.382684
vn -0.382683 0.000000 -0.923880
vn -0.382683 0.000000 -0.923880
vn 0.000000 1.000000 0.000000
vn 0.000000 1.000000 0.000000
vn 0.000000 1.000000 0.000000
vn 0.000000 1.000000 0.000000
vn 0.000000 -1.000000 0.000000
vn 0.000000 -1.000000 0.000000
vn 0.000000 -1.000000 0.000000
vn 0.000000 -1.000000 0.000000
vn 0.000000 1.000000 0.000000
vn 0.000000 1.000000 0.000000
vn 0.000000 1.000000 0.000000
vn 0.000000 1.000000 0.000000
vn 0.000000 1.000000 0.000000
vn 0.000000 1.000000 0.000000
vn 0.000000 1.000000 0.000000
vn 0.000000 1.000000 0.000000
vn 0.000000 1.000000 0.000000
vn 0.000000 1.000000 0.000000
vn 0.000000 -1.000000 0.000000
vn 0.000000 -1.000000 0.000000
vn 0.000000 -1.000000 0.000000
vn 0.000000 -1.000000 0.000000
vn 0.000000 -1.000000 0.000000
vn 0.000000 -1.000000 0.000000
vn 0.000000 -1.000000 0.000000
vn 0.000000 -1.000000 0.000000
vn 0.000000 -1.000000 0.000000
vn 0.000000 -1.000000 0.000000
s 1
g wood_chair_simple:polySurface7
usemtl initialShadingGroup
f 1/173/1 5/174/2 9/175/3 7/176/4
f 5/174/2 2/177/5 8/178/6 9/175/3
f 9/175/3 8/178/6 4/181/7 6/179/8
f 7/176/4 9/175/3 6/179/8 3/180/9
s off
f 1/283/10 10/284/11 11/285/12 5/286/13
f 7/1/14 12/2/15 10/3/16 1/4/17
f 5/286/18 11/285/19 13/289/20 2/290/21
f 2/10/22 13/11/23 14/12/24 8/13/25
f 8/13/26 14/12/27 15/16/28 4/17/29
f 4/292/30 15/293/31 16/294/32 6/295/33
f 6/295/34 16/294/35 17/298/36 3/299/37
f 3/5/38 17/6/39 12/2/40 7/1/41
f 11/285/42 10/284/43 18/287/44 19/288/45
f 10/3/46 12/2/47 20/7/48 18/8/49
f 13/289/50 11/285/51 19/288/52 21/291/53
f 14/12/54 13/11/55 21/14/56 22/15/57
f 15/16/58 14/12/59 22/15/60 23/18/61
f 16/294/62 15/293/63 23/296/64 24/297/65
f 17/298/66 16/294/67 24/297/68 25/300/69
f 12/2/70 17/6/71 25/9/72 20/7/73
f 26/301/74 29/302/75 28/303/76 27/304/77
f 30/182/78 26/183/79 27/184/80 31/185/81
f 29/302/82 33/305/83 32/306/84 28/303/85
f 33/188/86 35/189/87 34/190/88 32/191/89
f 35/189/90 37/192/91 36/193/92 34/190/93
f 37/307/94 39/308/95 38/309/96 36/310/97
f 39/308/98 41/311/99 40/312/100 38/309/101
f 41/186/102 30/182/103 31/185/104 40/187/105
s 2
f 42/194/106 48/195/107 50/196/108 46/197/109
f 46/197/109 50/196/108 49/200/110 43/201/111
f 50/196/108 47/199/112 45/202/113 49/200/110
f 48/195/107 44/198/114 47/199/112 50/196/108
s off
f 42/313/115 46/314/116 52/315/117 51/316/118
f 48/19/119 42/20/120 51/21/121 53/22/122
f 46/314/123 43/317/124 54/318/125 52/315/126
f 43/28/127 49/29/128 55/30/129 54/31/130
f 49/29/131 45/32/132 56/33/133 55/30/134
f 45/322/135 47/323/136 57/324/137 56/325/138
f 47/323/139 44/326/140 58/327/141 57/324/142
f 44/25/143 48/19/144 53/22/145 58/26/146
f 52/315/147 60/319/148 59/320/149 51/316/150
f 51/21/151 59/23/152 61/24/153 53/22/154
f 54/318/155 62/321/156 60/319/157 52/315/158
f 55/30/159 63/34/160 62/35/161 54/31/162
f 56/33/163 64/36/164 63/34/165 55/30/166
f 57/324/167 65/328/168 64/329/169 56/325/170
f 58/327/171 66/330/172 65/328/173 57/324/174
f 53/22/175 61/24/176 66/27/177 58/26/178
f 67/331/179 70/332/180 69/333/181 68/334/182
f 71/37/183 67/38/184 68/39/185 72/40/186
f 70/332/187 74/335/188 73/336/189 69/333/190
f 74/43/191 76/44/192 75/45/193 73/46/194
f 76/44/195 78/47/196 77/48/197 75/45/198
f 78/337/199 80/338/200 79/339/201 77/340/202
f 80/338/203 82/341/204 81/342/205 79/339/206
f 82/41/207 71/37/208 72/40/209 81/42/210
f 83/343/211 86/344/212 85/345/213 84/346/214
f 87/49/215 83/50/216 84/51/217 88/52/218
f 86/344/219 90/347/220 89/348/221 85/345/222
f 90/55/223 92/56/224 91/57/225 89/58/226
f 92/56/227 94/59/228 93/60/229 91/57/230
f 94/349/231 96/350/232 95/351/233 93/352/234
f 96/350/235 98/353/236 97/354/237 95/351/238
f 98/53/239 87/49/240 88/52/241 97/54/242
f 99/355/243 102/356/244 101/357/245 100/358/246
f 103/61/247 99/62/248 100/63/249 104/64/250
f 102/356/251 106/359/252 105/360/253 101/357/254
f 106/67/255 108/68/256 107/69/257 105/70/258
f 108/68/259 110/71/260 109/72/261 107/69/262
f 110/361/263 112/362/264 111/363/265 109/364/266
f 112/362/267 114/365/268 113/366/269 111/363/270
f 114/65/271 103/61/272 104/64/273 113/66/274
f 115/367/275 118/368/276 117/369/277 116/370/278
f 119/73/279 115/74/280 116/75/281 120/76/282
f 118/368/283 122/371/284 121/372/285 117/369/286
f 122/79/287 124/80/288 123/81/289 121/82/290
f 124/80/291 126/83/292 125/84/293 123/81/294
f 126/373/295 128/374/296 127/375/297 125/376/298
f 128/374/299 130/377/300 129/378/301 127/375/302
f 130/77/303 119/73/304 120/76/305 129/78/306
f 131/379/307 134/380/308 133/381/309 132/382/310
f 132/85/311 133/86/312 136/87/313 135/88/314
f 137/383/315 138/384/316 134/380/317 131/379/318
f 139/91/319 140/92/320 138/93/321 137/94/322
f 141/95/323 142/96/324 140/92/325 139/91/326
f 143/385/327 144/386/328 142/387/329 141/388/330
f 145/389/331 146/390/332 144/386/333 143/385/334
f 135/88/335 136/87/336 146/89/337 145/90/338
f 147/391/339 150/392/340 149/393/341 148/394/342
f 151/97/343 147/98/344 148/99/345 152/100/346
f 150/392/347 154/395/348 153/396/349 149/393/350
f 154/103/351 156/104/352 155/105/353 153/106/354
f 156/104/355 158/107/356 157/108/357 155/105/358
f 158/397/359 160/398/360 159/399/361 157/400/362
f 160/398/363 162/401/364 161/402/365 159/399/366
f 162/101/367 151/97/368 152/100/369 161/102/370
f 163/403/371 166/404/372 165/405/373 164/406/374
f 167/109/375 163/110/376 164/111/377 168/112/378
f 166/404/379 170/407/380 169/408/381 165/405/382
f 170/115/383 172/116/384 171/117/385 169/118/386
f 172/116/387 174/119/388 173/120/389 171/117/390
f 174/409/391 176/410/392 175/411/393 173/412/394
f 176/410/395 178/413/396 177/414/397 175/411/398
f 178/113/399 167/109/400 168/112/401 177/114/402
f 179/415/403 180/416/404 181/417/405 182/418/406
f 180/121/407 183/122/408 184/123/409 181/124/410
f 185/419/411 179/415/412 182/418/413 186/420/414
f 187/127/415 185/128/416 186/129/417 188/130/418
f 189/131/419 187/127/420 188/130/421 190/132/422
f 191/421/423 189/422/424 190/423/425 192/424/426
f 193/425/427 191/421/428 192/424/429 194/426/430
f 183/122/431 193/125/432 194/126/433 184/123/434
f 196/133/435 202/134/436 200/135/437 198/136/438
f 201/137/439 195/138/440 197/139/441 199/140/442
s 3
f 208/427/443 207/428/444 210/429/445 209/430/446
f 207/428/444 206/431/447 211/432/448 210/429/445
f 206/431/447 205/435/449 212/436/450 211/432/448
f 205/435/449 204/437/451 213/438/452 212/436/450
f 204/437/451 203/439/453 214/440/454 213/438/452
s 4
f 195/443/455 215/444/456 221/445/457 197/446/458
s 5
f 197/203/459 221/204/460 208/205/461 199/206/462
s 3
f 199/433/463 208/427/443 209/430/446 201/434/464
s 6
f 201/219/465 209/220/466 215/221/467 195/222/468
s 3
f 203/439/453 200/441/469 202/442/470 214/440/454
s 6
f 220/232/471 214/231/472 202/233/473 196/234/474
s 4
f 226/456/475 220/455/476 196/457/477 198/458/478
s 5
f 203/215/479 226/216/480 198/217/481 200/218/482
s 6
f 213/229/483 214/231/472 220/232/471 219/230/484
f 212/227/485 213/229/483 219/230/484 218/228/486
f 211/225/487 212/227/485 218/228/486 217/226/488
f 209/220/466 210/223/489 216/224/490 215/221/467
f 210/223/489 211/225/487 217/226/488 216/224/490
s 4
f 219/453/491 220/455/476 226/456/475 225/454/492
f 218/451/493 219/453/491 225/454/492 224/452/494
f 217/449/495 218/451/493 224/452/494 223/450/496
f 215/444/456 216/447/497 222/448/498 221/445/457
f 216/447/497 217/449/495 223/450/496 222/448/498
s 5
f 203/215/479 204/213/499 225/214/500 226/216/480
f 204/213/499 205/211/501 224/212/502 225/214/500
f 205/211/501 206/209/503 223/210/504 224/212/502
f 206/209/503 207/207/505 222/208/506 223/210/504
f 207/207/505 208/205/461 221/204/460 222/208/506
s 10
f 227/147/507 228/142/508 259/145/509 260/153/510
f 228/142/508 227/147/507 230/148/511 229/143/512
f 229/143/512 230/148/511 264/155/513 263/149/514
s 11
f 275/247/515 276/243/516 234/239/517 233/241/518
f 232/248/519 231/251/520 261/255/521 262/252/522
f 233/241/518 234/239/517 268/238/523 267/242/524
s 12
f 235/141/525 236/151/526 262/154/527 261/146/528
f 236/151/526 235/141/525 238/144/529 237/152/530
f 237/152/530 238/144/529 265/150/531 266/156/532
s 13
f 239/254/533 240/249/534 266/253/535 265/258/536
f 277/244/537 278/250/538 241/245/539 242/240/540
f 242/240/540 241/245/539 271/246/541 272/235/542
s 14
f 243/163/543 244/158/544 267/161/545 268/169/546
f 244/158/544 243/163/543 246/164/547 245/159/548
f 245/159/548 246/164/547 272/171/549 271/165/550
s 15
f 247/269/551 248/263/552 260/259/553 259/270/554
f 281/265/555 282/274/556 249/276/557 250/272/558
f 250/272/558 249/276/557 269/280/559 270/277/560
s 16
f 251/157/561 252/167/562 270/170/563 269/162/564
f 252/167/562 251/157/561 254/160/565 253/168/566
f 253/168/566 254/160/565 273/166/567 274/172/568
s 17
f 279/273/569 280/266/570 258/271/571 257/275/572
f 256/264/573 255/267/574 263/268/575 264/260/576
f 257/275/572 258/271/571 274/278/577 273/279/578
s 18
f 235/141/579 228/142/580 229/143/581 238/144/582
s 19
f 251/157/583 244/158/584 245/159/585 254/160/586
s 20
f 278/459/587 279/460/588 257/461/589 241/462/590
s 21
f 233/469/591 249/470/592 282/471/593 275/472/594
f 247/475/595 259/477/596 261/478/597 231/476/598
s 18
f 259/145/599 228/142/580 235/141/579 261/146/600
f 229/143/581 263/149/601 265/150/602 238/144/582
s 20
f 263/467/603 255/464/604 239/463/605 265/468/606
s 21
f 233/469/591 267/473/607 269/474/608 249/470/592
s 19
f 267/161/609 244/158/584 251/157/583 269/162/610
f 245/159/585 271/165/611 273/166/612 254/160/586
s 20
f 271/465/613 241/462/590 257/461/589 273/466/614
s 22
f 272/235/615 246/236/616 243/237/617 268/238/618
s 23
f 260/259/619 264/260/620 230/261/621 227/262/622
s 22
f 242/240/623 234/239/624 276/243/625 277/244/626
f 272/235/615 268/238/618 234/239/624 242/240/623
f 240/249/627 232/248/628 262/252/629 266/253/630
f 266/253/630 262/252/629 236/256/631 237/257/632
s 23
f 274/278/633 270/277/634 252/281/635 253/282/636
f 258/271/637 250/272/638 270/277/634 274/278/633
f 258/271/637 280/266/639 281/265/640 250/272/638
f 248/263/641 256/264/642 264/260/620 260/259/619
s 11
f 231/251/520 232/248/519 276/243/516 275/247/515
s 22
f 277/244/626 276/243/625 232/248/628 240/249/627
s 13
f 240/249/534 239/254/533 278/250/538 277/244/537
s 20
f 239/463/605 255/464/604 279/460/588 278/459/587
s 17
f 255/267/574 256/264/573 280/266/570 279/273/569
s 23
f 281/265/640 280/266/639 256/264/642 248/263/641
s 15
f 248/263/552 247/269/551 282/274/556 281/265/555
s 21
f 275/472/594 282/471/593 247/475/595 231/476/598
